<?xml version="1.0" encoding="UTF-8" standalone="no"?><!DOCTYPE svg PUBLIC "-//W3C//DTD SVG 1.1//EN" "http://www.w3.org/Graphics/SVG/1.1/DTD/svg11.dtd"><svg width="100%" height="100%" viewBox="0 0 306 384" version="1.1" xmlns="http://www.w3.org/2000/svg" xmlns:xlink="http://www.w3.org/1999/xlink" xml:space="preserve" xmlns:serif="http://www.serif.com/" style="fill-rule:evenodd;clip-rule:evenodd;stroke-linejoin:round;stroke-miterlimit:2;"><rect id="Vertical_Logo_yuoshiblau" x="0" y="0" width="305.408" height="382.771" style="fill:none;"/><clipPath id="_clip1"><rect x="0" y="0" width="305.408" height="382.771"/></clipPath><g clip-path="url(#_clip1)"><g id="Vertical_Logo_yuoshiblau1" serif:id="Vertical_Logo_yuoshiblau"><path d="M137.756,240.854c5.222,0.747 10.475,1.018 15.738,0.758c10.765,-0.531 21.073,-2.955 30.886,-7.396c9.533,-4.314 17.981,-10.167 25.306,-17.577c8.002,-8.093 14.098,-17.434 18.259,-27.999c3.225,-8.186 5.005,-16.691 5.622,-25.456c0.457,-6.505 0.384,-13.005 -0.04,-19.506c-0.652,-10.019 -2.095,-19.933 -4.173,-29.76c-2.766,-13.089 -6.578,-25.864 -11.756,-38.229c-4.183,-9.989 -9.16,-19.554 -15.629,-28.305c-5.251,-7.102 -11.27,-13.429 -18.936,-18.047c-6.276,-3.782 -13.03,-5.907 -20.429,-5.799c-7.397,0.108 -14.24,2.232 -20.767,5.51c-6.992,3.51 -13.201,8.126 -18.988,13.319c-7.644,6.859 -14.336,14.565 -20.458,22.771c-7.664,10.273 -14.299,21.172 -20.022,32.615c-6.725,13.445 -12.29,27.319 -15.446,42.061c-1.385,6.47 -2.067,13.009 -1.953,19.638c0.179,10.315 2.222,20.257 6.15,29.803c6.019,14.628 15.45,26.683 28.265,36.086c11.452,8.402 24.284,13.513 38.371,15.513Z" style="fill:#6a96e2;"/><path d="M0.199,264.727l0,-264.727l59.949,0l0,40.059l-20.17,0l0,184.609l20.17,-0l0,40.059l-59.949,0Z" style="fill:#6a96e2;fill-rule:nonzero;"/><path d="M305.607,264.727l-0,-264.727l-59.949,0l0,40.059l20.17,0l-0,184.609l-20.17,-0l0,40.059l59.949,0Z" style="fill:#6a96e2;fill-rule:nonzero;"/><path d="M13.084,382.771l-0,-5.596l4.131,-10.393l-17.016,-45.566l0,-7.295l14.262,0l10.426,31.077l9.54,-31.077l14.065,0l-0,7.295l-22.524,61.555l-12.884,-0Z" style="fill:#6a96e2;fill-rule:nonzero;"/><path d="M81.826,367.427c-8.393,0 -15.032,-2.131 -19.917,-6.393c-4.885,-4.262 -7.328,-10.131 -7.328,-17.606l0,-46.325l16.917,-0l0,46.915c0,1.377 0.443,2.722 1.328,4.033c0.885,1.311 2.131,2.279 3.738,2.901c1.606,0.623 3.36,0.935 5.262,0.935c1.901,-0 3.672,-0.312 5.311,-0.935c1.639,-0.622 2.885,-1.59 3.738,-2.901c0.852,-1.311 1.278,-2.656 1.278,-4.033l0,-46.915l16.917,-0l0,46.325c0,7.475 -2.442,13.344 -7.327,17.606c-4.885,4.262 -11.524,6.393 -19.917,6.393Z" style="fill:#6a96e2;fill-rule:nonzero;"/><path d="M205.119,367.427c-3.869,0 -7.508,-0.508 -10.918,-1.524c-3.409,-1.017 -6.393,-2.525 -8.95,-4.525c-2.557,-2 -4.557,-4.508 -6,-7.524c-1.442,-3.016 -2.164,-6.426 -2.164,-10.229l16.917,-0c0,1.639 0.459,3.115 1.377,4.426c0.918,1.311 2.427,2.279 4.525,2.901c2.098,0.623 4.262,0.935 6.491,0.935c2.82,-0 4.984,-0.476 6.492,-1.426c1.508,-0.951 2.262,-2.279 2.262,-3.984c-0,-1.114 -0.541,-2.114 -1.623,-3c-1.082,-0.885 -3.918,-2.081 -8.508,-3.59l-11.212,-3.737c-5.18,-1.771 -8.967,-4.279 -11.36,-7.524c-2.394,-3.246 -3.59,-7 -3.59,-11.262c-0,-6.623 2.36,-11.901 7.081,-15.835c4.721,-3.935 11.115,-5.902 19.18,-5.902c3.803,0 7.327,0.492 10.573,1.476c3.246,0.983 6.032,2.458 8.36,4.426c2.328,1.967 4.148,4.458 5.459,7.475c1.311,3.016 1.967,6.426 1.967,10.229l-17.015,-0c-0,-1.902 -0.574,-3.508 -1.722,-4.82c-1.147,-1.311 -2.508,-2.18 -4.081,-2.606c-1.574,-0.426 -3.017,-0.64 -4.328,-0.64c-2.557,0 -4.574,0.476 -6.049,1.427c-1.475,0.95 -2.213,2.245 -2.213,3.885c-0,0.721 0.18,1.442 0.541,2.164c0.361,0.721 1.033,1.344 2.016,1.868c0.984,0.525 2.459,1.115 4.426,1.771l10.918,3.737c7.016,2.361 11.802,5.016 14.36,7.967c2.557,2.951 3.836,6.819 3.836,11.606c-0,3.147 -0.558,6.065 -1.672,8.754c-1.115,2.688 -2.787,4.999 -5.017,6.934c-2.229,1.934 -5.065,3.442 -8.507,4.524c-3.443,1.082 -7.394,1.623 -11.852,1.623Z" style="fill:#6a96e2;fill-rule:nonzero;"/><path d="M238.242,365.952l-0,-69.341l15.54,-0l0,19.671c3.607,-2.361 7.606,-3.541 12,-3.541c5.77,0 10.245,1.82 13.425,5.459c3.18,3.639 4.77,8.639 4.77,14.999l0,32.753l-15.54,-0l0,-31.966c0,-2.36 -0.574,-4.164 -1.721,-5.41c-1.148,-1.245 -2.639,-1.868 -4.475,-1.868c-1.377,-0 -2.869,0.393 -4.475,1.18c-1.607,0.787 -2.935,1.77 -3.984,2.951l0,35.113l-15.54,-0Z" style="fill:#6a96e2;fill-rule:nonzero;"/><path d="M290.067,365.952l-0,-52.031l15.54,0l-0,52.031l-15.54,-0Zm-0,-58.03l-0,-11.311l15.54,-0l-0,11.311l-15.54,-0Z" style="fill:#6a96e2;fill-rule:nonzero;"/><path d="M132.063,333.027l-0,10.106c-0,1.574 0.492,3.082 1.475,4.525c0.984,1.442 2.328,2.508 4.033,3.196c1.705,0.689 3.541,1.033 5.508,1.033c3.672,-0 6.426,-0.902 8.262,-2.705c1.836,-1.803 2.754,-3.819 2.754,-6.049l-0,-10.072l16.917,8.73l-0,0.752c-0,7.737 -2.525,13.819 -7.573,18.245c-5.049,4.426 -11.836,6.639 -20.36,6.639c-8.524,0 -15.311,-2.213 -20.36,-6.639c-5.049,-4.426 -7.573,-10.508 -7.573,-18.245l-0,-0.786l16.917,-8.73Zm-16.917,-3.453l-0,-8.866c-0,-2.885 0.442,-5.803 1.328,-8.754c0.885,-2.95 2.557,-5.77 5.016,-8.458c2.459,-2.689 5.639,-4.672 9.54,-5.951c3.902,-1.278 7.918,-1.918 12.049,-1.918c4.196,0 8.016,0.558 11.458,1.672c3.443,1.115 6.393,2.754 8.852,4.918c2.459,2.164 4.344,4.82 5.656,7.967c1.311,3.147 1.967,6.655 1.967,10.524l-0,8.899l-16.917,-8.73l-0,-1.054c-0,-2.23 -0.935,-4.23 -2.803,-6c-1.869,-1.77 -4.607,-2.656 -8.213,-2.656c-2.689,0 -4.918,0.541 -6.688,1.623c-1.771,1.082 -2.935,2.295 -3.492,3.64c-0.557,1.344 -0.836,2.475 -0.836,3.393l-0,1.021l-16.917,8.73Z" style="fill:#6a96e2;fill-rule:nonzero;"/></g></g></svg>