<?xml version="1.0" encoding="utf-8"?>
<!-- Generator: Adobe Illustrator 22.0.1, SVG Export Plug-In . SVG Version: 6.00 Build 0)  -->
<svg version="1.1" id="Ebene_1" xmlns="http://www.w3.org/2000/svg" xmlns:xlink="http://www.w3.org/1999/xlink" x="0px" y="0px"
	 viewBox="0 0 292 118" style="enable-background:new 0 0 292 118;" xml:space="preserve">
<style type="text/css">
	.st0{fill:#6D94CD;}
	.st1{fill:#FFFFFF;}
	.st2{fill:#455D7F;}
	.st3{fill:none;stroke:#455D7F;stroke-width:0.5438845;stroke-linecap:round;stroke-linejoin:round;stroke-miterlimit:10;}
	.st4{fill:#3C526D;}
</style>
<circle cx="142.512085" cy="60.5252571" r="57.2014236"/>
<path class="st0" d="M195.567337,82.6060257c0.9416656-24.3706818-8.3810272-30.8880692-9.8763428-35.5537491
	c-0.3488312-0.8527412,0.1493073-2.3398361,1.4079285-3.5449066c0,0,0.8208923-0.4606514,0.3545837-1.7786865
	c-0.4663086-1.3180313-1.7187195-0.4623528-1.9694824-1.6604462c-0.2507629-1.1980972,1.3193207-2.3710136,0.4036713-3.5156479
	s-2.4683228,0.8848114-3.3300934-0.2298393c-0.8617554-1.1146469,1.2476044-2.6226234,0.4219055-3.9289169
	c-0.8256989-1.3062954-3.0310822,0.5010986-3.845047-0.4458103c-0.8139496-0.946907-0.1390991-3.323658-1.5905762-3.9901638
	c-1.4514771-0.6665077-2.3605499,0.9447823-3.3244171,0.2673073c-0.9638824-0.677475,0.0555878-2.5096226-1.5253754-2.9658928
	c-1.5809631-0.4562721-3.2053375,1.3215637-4.0492859,0.4285412c-0.8439331-0.8930206,1.5561066-3.6349144,0.0868988-4.9830112
	s-10.312027-2.7188301-15.3477631-0.3639011c-3.0903625,1.2569351-5.5835114,3.0314865-7.1257019,5.6303005l5.5922699,18.5512085
	c2.1099396-1.8368988,2.8665619-5.3398209,8.0686493-4.0924568c5.2020721,1.2473679,4.795639,6.0382233,5.7790375,9.5378075
	c0.4687347,4.2966652-0.1231537,25.0704308-0.1231537,25.0704308L195.567337,82.6060257z"/>
<path d="M200.4255981,107.4196777H84.843399c-5.0806885,0-9.1994019-4.1187134-9.1994019-9.1994019V68.0273743
	c0-5.0806885,4.1187134-9.199398,9.1994019-9.199398h115.5821991c5.0806885,0,9.1994019,4.1187096,9.1994019,9.199398v30.1929016
	C209.625,103.3009644,205.5062866,107.4196777,200.4255981,107.4196777z"/>
<g>
	<path class="st1" d="M97.6186523,74.534668c1.3222656-0.152832,1.6401367,0.2792969,1.7890625,1.5683594
		c1.203125,10.4140625-7.2763672,13.5717773-6.0693359,24.0180664c0.0839844,0.7265625,0.362793,1.3989258,0.4428711,2.0932617
		c0.0805664,0.6933594-0.9521484,0.746582-1.4482422,0.8037109l-3.8344727,0.4428711
		c-0.8930664,0.1035156-1.1699219-1.1381836-1.246582-1.7993164c-0.4580078-3.9667969,1.4238281-7.0996094,1.2939453-8.2226563
		c-0.1337891-1.1572266-8.2705078-5.4770508-9.2822266-14.237793c-0.2866211-2.4794922,0.1723633-2.565918,1.6601563-2.737793
		l2.644043-0.3056641c0.628418-0.0727539,1.8774414-0.2832031,1.9838867,0.6416016
		c0.0307617,0.2646484-0.0639648,2.0507813,0.0009766,2.6132813c0.5458984,4.7265625,4.2783203,8.6171875,5.2700195,8.5024414
		c0.9584961-0.1103516,4.1245117-5.7685547,3.6699219-9.7021484c-0.1225586-1.0585938-0.5800781-2.4130859-0.6108398-2.6777344
		c-0.0800781-0.6933594,0.7944336-0.6606445,1.2573242-0.7143555L97.6186523,74.534668z"/>
	<path class="st1" d="M118.9423828,72.0712891c0.6611328-0.0766602,2.0112305,0.3027344,3.3862305,12.2041016
		c1.1230469,9.7197266-1.1762695,15.9150391-8.2514648,16.7324219c-6.2148438,0.7177734-10.5708008-3.6357422-11.7128906-13.5214844
		c-1.222168-10.5791016-0.2827148-13.4672852,0.1469727-13.5170898l4.5957031-0.5307617
		c0.3300781-0.0380859,0.7270508-0.0839844,0.7768555,0.3457031c0.0878906,0.7607422-1.1606445,4.4555664-0.2822266,12.059082
		c0.8671875,7.5048828,3.8457031,9.5048828,5.7958984,9.2797852c1.652832-0.190918,5.1738281-1.0332031,4.1274414-10.0908203
		c-0.9926758-8.5947266-2.9604492-11.4174805-3.0288086-12.012207c-0.0610352-0.5283203,0.9086914-0.5405273,1.2060547-0.574707
		L118.9423828,72.0712891z"/>
	<path d="M135.3339844,98.5517578c-6.6782227,0.7714844-9.8432617-3.7197266-10.5039063-9.4394531
		c-0.9814453-8.4960938,2.6826172-18.5341797,8.8652344-19.2485352c6.1821289-0.7138672,12.0385742,8.2241211,13.0200195,16.7202148
		c0.6606445,5.7197266-1.3974609,10.8144531-8.0756836,11.5859375L135.3339844,98.5517578z M141.2758789,86.4765625
		c-0.8442383-7.3066406-4.7470703-11.5131836-6.9619141-11.2573242c-2.215332,0.2563477-5.0566406,5.2412109-4.2124023,12.5478516
		c0.4467773,3.8681641,2.7016602,5.1137695,6.2060547,4.7089844
		C139.8115234,92.0712891,141.7226563,90.3447266,141.2758789,86.4765625z"/>
	<path class="st1" d="M156.559082,71.7451172c-1.6533203,0.190918-3.6738281,1.2617188-3.4521484,3.1796875
		c0.2749023,2.3798828,3.6547852,2.9282227,5.5454102,3.3461914c7.2099609,1.512207,9.0175781,4.6870117,9.3808594,7.8276367
		c0.4428711,3.8349609-1.7553711,8.878418-8.730957,9.6845703c-4.6943359,0.5419922-9.7451172-1.4204102-10.3525391-6.6762695
		c-0.324707-2.8105469,1.1704102-4.6577148,1.5009766-4.6958008c0.5620117-0.0649414,0.7753906,6.7109375,7.8828125,5.8896484
		c2.5126953-0.2900391,4.5688477-1.6333008,4.3320313-3.6831055c-0.2788086-2.4130859-3.3686523-3.0605469-5.3549805-3.4345703
		c-7.4995117-1.4116211-8.6713867-4.5932617-8.9960938-7.402832c-0.3203125-2.7773438,1.0175781-7.7226563,7.7290039-8.4980469
		c4.793457-0.5537109,8.4926758,1.5986328,8.6035156,2.5576172c0.1069336,0.9248047-1.2646484,4.1323242-2.1904297,4.2392578
		C161.6298828,74.1743164,159.9970703,71.3476563,156.559082,71.7451172z"/>
	<path class="st1" d="M186.0893555,92.1865234c-0.3305664,0.0380859-1.2192383,0.1748047-1.2802734-0.3544922
		c-0.019043-0.1660156-0.0053711-0.3349609,0.0454102-0.4746094c0.8061523-3.1748047,1.4052734-6.3935547,1.0273438-9.6669922
		c-0.2597656-2.2470703-1.2402344-2.9047852-3.4550781-2.6489258c-3.3388672,0.3857422-6.7265625,2.3852539-6.2832031,6.2202148
		c0.2749023,2.3808594,1.0024414,4.9091797,2.1806641,6.9838867c0.081543,0.1240234,0.1738281,0.3491211,0.1894531,0.480957
		c0.0532227,0.4628906-0.7553711,0.4228516-1.0200195,0.453125l-4.859375,0.5615234
		c-0.9257813,0.1069336-2.0258789-9.4145508-2.1899414-10.8364258c-0.2788086-2.4130859-1.2524414-16.6391602,0.3344727-16.8222656
		l4.4960938-0.5195313c0.1987305-0.0229492,0.9804688-0.2133789,1.0263672,0.1831055
		c0.0493164,0.4296875-1.6450195,5.4824219-1.2397461,8.9873047c0.0952148,0.8261719,0.484375,1.5859375,0.980957,1.5288086
		c1.0244141-0.1186523,0.909668-1.1108398,5.4057617-1.6303711c1.6196289-0.1870117,2.9511719,0.0283203,2.7910156-1.3613281
		c-0.362793-3.1396484-3.8183594-7.53125-3.8681641-7.9609375c-0.0493164-0.4296875,0.9536133-0.4453125,1.1518555-0.4682617
		l4.3310547-0.5004883c1.2563477-0.1450195,3.9760742,9.1884766,4.7895508,16.2304688
		c0.1835938,1.5869141,1.2641602,10.9433594,0.2060547,11.0654297L186.0893555,92.1865234z"/>
	<path class="st1" d="M197.4287109,90.8769531c-0.8266602,0.0952148-1.7451172,0.8369141-3.1777344-11.5595703
		c-1.8867188-16.3310547-0.0991211-15.9350586,0.4628906-16l3.5703125-0.4125977
		c0.4296875-0.0493164,1.2451172-0.2436523,1.3173828,0.3833008c0.0380859,0.3310547-1.0756836,6.0546875-0.3388672,12.4345703
		c0.9780273,8.4638672,3.2607422,13.7270508,3.3144531,14.1899414c0.0380859,0.3310547-0.15625,0.387207-0.4541016,0.421875
		l-0.6611328,0.0761719L197.4287109,90.8769531z"/>
</g>
<path class="st1" d="M126.0378723,75.4727783c1.0455627,1.1184387,2.5623016,1.7675934,4.3578339,2.1391449l-0.3858185,3.8616409
	l2.2958984,0.8113708l2.050415-1.3134842l1.8311005-2.364769l3.3452454,0.1518402l1.6435089-2.2941589l1.7552643-0.0559692
	l-1.5713348,0.3772812l-1.5190277,2.5244598l-3.1353455-0.0292816c-0.8826294,1.6723862-2.0192413,3.0162277-3.4561005,3.9716721
	l0.5036621,2.2418442l3.3504486,0.7262497c0,0,1.8411255,3.0171356,1.7859955,3.9166031l-1.9307556-3.4004364l-4.0407257-0.5281143
	l-0.6315002-3.0834732l-3.4758148-0.6995316l0.0516968-3.8414001l-3.5135345-1.5026321
	c-0.906929,2.4580078-1.2211456,5.5048447-1.193306,8.891449c0,0,0.2587433,12.2471542,12.86306,10.7910156
	s8.5680237-15.2671814,8.5680237-15.2671814c-0.9067688-3.8514481-2.881897-6.9464569-5.5617828-9.5424576
	c0,0-2.4612885-3.0372467-6.8076019-2.5351334C128.8710632,69.9214478,126.0378723,75.4727783,126.0378723,75.4727783z"/>
<path class="st0" d="M148.8507233,22.6582451c-5.4575653-4.53372-12.1976471-4.488615-12.1976471-4.488615
	c-3.118927-4.9872131-7.5609894-7.9549732-14.5890732-3.5910978c-8.8859558-1.1189995-13.6032257,2.5052671-12.9226608,12.2713366
	c0,0-14.6920776,12.5529442-11.8431854,27.4485855c1.5402069,8.0532761,7.4056244,9.9358978,14.0065079,10.0473328
	c2.2023697-4.997406,12.2134171-1.0650978,12.2134171-1.0650978c-0.4868546,3.558445,3.222847,10.7653389,7.0010529,9.9156837
	c5.7816772-0.905983,9.2186584-5.7973099,15.4005432-13.7249832c0,0,7.8837585-8.6058426,5.5644226-19.6921692
	C150.752121,32.7783012,151.3123016,24.6791229,148.8507233,22.6582451z"/>
<ellipse transform="matrix(0.2608744 -0.9653727 0.9653727 0.2608744 58.422287 134.7054596)" class="st2" cx="117.1806183" cy="29.2000256" rx="8.1904192" ry="5.6170244"/>
<ellipse transform="matrix(0.3338233 -0.9426357 0.9426357 0.3338233 46.9725266 131.557663)" class="st1" cx="116.5628891" cy="32.5459251" rx="4.8721619" ry="3.6965408"/>
<circle class="st2" cx="115.8240433" cy="34.6322327" r="1.9430367"/>
<ellipse transform="matrix(0.2608744 -0.9653727 0.9653727 0.2608744 64.4177246 148.2885132)" class="st2" cx="129.0487518" cy="32.0762291" rx="8.1904192" ry="5.6170244"/>
<ellipse transform="matrix(0.3338233 -0.9426357 0.9426357 0.3338233 52.1675949 144.6610565)" class="st1" cx="128.4310303" cy="35.4221268" rx="4.8721619" ry="3.6965408"/>
<circle class="st2" cx="127.6378098" cy="37.6619759" r="1.9430367"/>
<path class="st3" d="M127.4226379,63.4963989c0,0-1.4177322,6.7204742,2.3983307,6.9769745
	c5.2455597,0.0040894,6.0150757-11.6453972,6.0150757-11.6453972
	C132.8110962,61.3116684,129.9497986,63.1069069,127.4226379,63.4963989z"/>
<path class="st2" d="M127.1679688,65.9190369c2.2297668-1.5761642,2.682251-0.1982803,3.3455658,0.3476334
	c1.0431366,0.1572495,2.6067505-2.667675,4.5814972-2.7495651c-0.9304504,3.8733521-2.4080505,6.5076981-4.8508301,6.9562759
	C128.277832,70.5529861,127.1466751,69.214386,127.1679688,65.9190369z"/>
<path class="st3" d="M138.9013062,46.8220596c1.5005493,11.5185585-9.0803375,18.1364288-15.1210632,16.5204353"/>
<path class="st3" d="M136.0540771,48.1444855c0.4213257-1.3353653,3.0154877-2.991375,4.386261-0.9105911"/>
<ellipse transform="matrix(0.6565269 -0.7543026 0.7543026 0.6565269 -6.1346312 96.8827057)" class="st2" cx="103.3149185" cy="55.1774979" rx="1.8426324" ry="1.2825325"/>
<ellipse transform="matrix(0.4983695 -0.8669647 0.8669647 0.4983695 7.0254936 124.1821136)" class="st2" cx="110.8243179" cy="56.0200005" rx="1.8426324" ry="1.2825325"/>
<path class="st3" d="M102.9228439,50.5607491c0.8950806-0.2969246,2.1133118,0.3537941,2.8292389,1.2288704"/>
<path class="st3" d="M110.7716675,51.4717941c0.8950806-0.2969284,2.1133118,0.3537903,2.8292389,1.2288704"/>
<g>

		<ellipse transform="matrix(0.9719378 -0.2352377 0.2352377 0.9719378 -8.0016365 44.9443359)" class="st2" cx="184.3776093" cy="56.010006" rx="1.1823019" ry="1.0495437"/>

		<ellipse transform="matrix(0.9719378 -0.2352377 0.2352377 0.9719378 -7.3479295 45.1033516)" class="st2" cx="185.3709717" cy="53.3495827" rx="1.1823019" ry="1.0495437"/>

		<ellipse transform="matrix(0.9719378 -0.2352377 0.2352377 0.9719378 -6.9224133 44.3111801)" class="st2" cx="182.263443" cy="51.170002" rx="1.5704769" ry="1.3941313"/>
</g>
<g>
	<path class="st2" d="M138.3740692,18.3121719c-3.4237061,2.9922829-7.9677582,4.414465-15.1821594,3.7834892
		c-2.0645905-1.6696262-3.9926147-2.4752197-4.8300705-4.6919537c-0.295723-0.5679207-0.4515839-1.1510715-0.4693832-1.7492752
		c0.7806625-1.9821033,2.6427078-5.9942417,3.7428436-7.6146526l2.1712341,2.4569292l16.3985291,1.5427179L138.3740692,18.3121719z"
		/>
	<path class="st2" d="M113.2646255,0.0405042c4.5091171,2.864747,8.1655807,6.1366844,10.8847351,9.8562584
		c11.0435562,0.5194912,19.8833084,2.0238552,27.5403824,4.0567713L138.6052094,3.6973259
		C130.2077484,0.8390235,121.7563705-0.2299445,113.2646255,0.0405042z"/>
	<path class="st4" d="M134.8912506,6.782763c5.3318481,1.7036071,9.6426697,3.7344728,12.7081146,6.1644721l0.628067,0.1442528
		c-2.4078979-2.6945057-6.8162079-4.9375868-12.9362183-6.7944021L134.8912506,6.782763z"/>
	<ellipse class="st2" cx="148.2471924" cy="13.9081945" rx="0.728506" ry="0.8167061"/>
	<path class="st2" d="M148.7931976,14.4448166c0,0,1.4252472,1.1192942,1.8680725,2.9941254
		c0.4570923,1.7141323,0.1714172,7.0850868,0.1714172,7.0850868c0.1693573,0.9991417,0.4853668,1.71978,1.0784607,1.9141064
		l-4.3924561,0.8784924c0.6345062-1.5962639,0.7373047-3.8713608,0.5356598-6.5351276
		c-0.4204559-2.4703007-0.7940063-4.8851089-0.3022308-6.2765646L148.7931976,14.4448166z"/>
</g>
<g>
</g>
<g>
</g>
<g>
</g>
<g>
</g>
<g>
</g>
<g>
</g>
</svg>
