<?xml version="1.0" encoding="utf-8"?>
<!-- Generator: Adobe Illustrator 22.0.1, SVG Export Plug-In . SVG Version: 6.00 Build 0)  -->
<svg version="1.1" id="Ebene_1" xmlns="http://www.w3.org/2000/svg" xmlns:xlink="http://www.w3.org/1999/xlink" x="0px" y="0px"
	 viewBox="0 0 429 284" style="enable-background:new 0 0 429 284;" xml:space="preserve">
<style type="text/css">
	.st0{fill:#2D70B7;}
	.st1{fill:#2D71B7;stroke:#FFFFFF;stroke-width:2.5189;stroke-miterlimit:10;}
	.st2{fill:#FFFFFF;}
	.st3{fill:none;stroke:#FFFFFF;stroke-width:0.5892;stroke-miterlimit:10;}
	.st4{fill:none;stroke:#FFFFFF;stroke-width:0.8396;stroke-linecap:round;stroke-linejoin:round;stroke-miterlimit:10;}
	.st5{fill:none;stroke:#FFFFFF;stroke-width:0.4757;stroke-miterlimit:10;}
	.st6{fill:none;stroke:#FFFFFF;stroke-width:0.4924;stroke-miterlimit:10;}
	.st7{fill:#FFFFFF;stroke:#FFFFFF;stroke-width:0.4757;stroke-miterlimit:10;}
</style>
<path class="st0" d="M111.4,161.9H12.6c-5.6,0-10.2-4.6-10.2-10.2V76.4c0-5.6,4.6-10.2,10.2-10.2h98.7c5.6,0,10.2,4.6,10.2,10.2
	v75.2C121.6,157.3,117,161.9,111.4,161.9z"/>
<path class="st0" d="M262.6,106.6h-98.7c-5.6,0-10.2-4.6-10.2-10.2V21.1c0-5.6,4.6-10.2,10.2-10.2h98.7c5.6,0,10.2,4.6,10.2,10.2
	v75.2C272.8,102,268.2,106.6,262.6,106.6z"/>
<path class="st0" d="M416.3,162h-98.7c-5.6,0-10.2-4.6-10.2-10.2V76.5c0-5.6,4.6-10.2,10.2-10.2h98.7c5.6,0,10.2,4.6,10.2,10.2v75.2
	C426.5,157.4,421.9,162,416.3,162z"/>
<ellipse class="st0" cx="213.2" cy="214.9" rx="78.5" ry="63"/>
<polygon class="st1" points="285.3,180.9 289.4,156.5 294.7,161.9 313.1,143.5 322.6,153 304.2,171.4 309.7,176.9 "/>
<polygon class="st1" points="143.5,179.9 119.1,175.8 124.4,170.5 106,152.1 115.5,142.6 133.9,161 139.4,155.5 "/>
<polygon class="st1" points="213.2,144.8 198.8,124.6 206.4,124.6 206.4,98.6 219.8,98.6 219.8,124.6 227.6,124.6 "/>
<g>
	<path class="st2" d="M32.9,125.8l2.6-9.3h2.3l2.6,9.3h-1l-0.7-2.4h-4l-0.7,2.4H32.9z M36.3,117.4l-1.4,5.1h3.5l-1.4-5.1H36.3z"/>
	<path class="st2" d="M45.8,119.1h1v6.7h-1v-0.5c-0.7,0.4-1.3,0.6-2,0.6c-0.9,0-1.5-0.2-1.8-0.7c-0.3-0.5-0.5-1.4-0.5-2.6v-3.5h1
		v3.5c0,1,0.1,1.6,0.3,2c0.2,0.3,0.6,0.5,1.2,0.5c0.3,0,0.6,0,0.9-0.1c0.3-0.1,0.5-0.2,0.7-0.2l0.2-0.1V119.1z"/>
	<path class="st2" d="M52.2,120h-2.1v3.2c0,0.8,0.1,1.3,0.2,1.5c0.1,0.2,0.4,0.4,0.8,0.4l1.2-0.1l0.1,0.8c-0.6,0.1-1.1,0.1-1.4,0.1
		c-0.7,0-1.2-0.2-1.5-0.5c-0.3-0.3-0.4-1-0.4-1.9V120h-1v-0.9h1V117h1v2.1h2.1V120z"/>
	<path class="st2" d="M53.1,122.4c0-1.2,0.2-2.1,0.7-2.7c0.4-0.5,1.2-0.8,2.2-0.8s1.8,0.3,2.2,0.8c0.4,0.5,0.7,1.4,0.7,2.7
		s-0.2,2.1-0.6,2.7c-0.4,0.6-1.2,0.8-2.3,0.8s-1.8-0.3-2.3-0.8C53.3,124.5,53.1,123.7,53.1,122.4z M54.2,122.4c0,1,0.1,1.7,0.4,2.1
		c0.2,0.4,0.7,0.6,1.5,0.6s1.3-0.2,1.5-0.6s0.3-1.1,0.3-2.1s-0.1-1.7-0.4-2c-0.3-0.4-0.7-0.6-1.4-0.6s-1.2,0.2-1.5,0.6
		C54.3,120.8,54.2,121.4,54.2,122.4z"/>
	<path class="st2" d="M61.5,125.8h-1v-6.7h1v0.5c0.7-0.4,1.4-0.6,2.1-0.6c0.9,0,1.5,0.2,1.8,0.7s0.5,1.3,0.5,2.6v3.5h-1v-3.5
		c0-0.9-0.1-1.6-0.3-1.9s-0.6-0.5-1.2-0.5c-0.3,0-0.6,0-0.9,0.1c-0.3,0.1-0.6,0.2-0.7,0.2l-0.3,0.1V125.8z"/>
	<path class="st2" d="M67.4,122.4c0-1.2,0.2-2.1,0.7-2.7c0.4-0.5,1.2-0.8,2.2-0.8s1.8,0.3,2.2,0.8c0.4,0.5,0.7,1.4,0.7,2.7
		s-0.2,2.1-0.6,2.7c-0.4,0.6-1.2,0.8-2.3,0.8s-1.8-0.3-2.3-0.8C67.6,124.5,67.4,123.7,67.4,122.4z M68.5,122.4c0,1,0.1,1.7,0.4,2.1
		c0.2,0.4,0.7,0.6,1.5,0.6s1.3-0.2,1.5-0.6s0.3-1.1,0.3-2.1s-0.1-1.7-0.4-2c-0.3-0.4-0.7-0.6-1.4-0.6s-1.2,0.2-1.5,0.6
		C68.6,120.8,68.5,121.4,68.5,122.4z"/>
	<path class="st2" d="M75.8,125.8h-1v-6.7h1v0.5c0.7-0.4,1.3-0.6,2-0.6c0.8,0,1.4,0.2,1.7,0.7c0.3-0.2,0.7-0.3,1.1-0.5
		s0.9-0.2,1.2-0.2c0.9,0,1.5,0.2,1.8,0.7c0.3,0.5,0.5,1.3,0.5,2.6v3.5h-1v-3.5c0-0.9-0.1-1.6-0.3-1.9s-0.6-0.5-1.1-0.5
		c-0.3,0-0.6,0-0.9,0.1c-0.3,0.1-0.6,0.2-0.7,0.2l-0.3,0.1c0.1,0.3,0.2,0.9,0.2,2v3.5h-1v-3.5c0-1-0.1-1.6-0.3-2
		c-0.2-0.3-0.6-0.5-1.1-0.5c-0.3,0-0.6,0-0.9,0.1c-0.3,0.1-0.5,0.2-0.7,0.2l-0.2,0.1V125.8z"/>
	<path class="st2" d="M86.1,117.6v-1.2h1v1.2H86.1z M86.1,125.8v-6.7h1v6.7H86.1z"/>
	<path class="st2" d="M93.6,125l0.4,0l0,0.8c-1,0.1-1.9,0.2-2.6,0.2c-1,0-1.7-0.3-2.1-0.8c-0.4-0.6-0.6-1.4-0.6-2.6
		c0-2.4,0.9-3.5,2.8-3.5c0.9,0,1.6,0.3,2,0.8s0.7,1.3,0.7,2.4l-0.1,0.8h-4.4c0,0.7,0.1,1.3,0.4,1.7s0.7,0.5,1.4,0.5
		S92.9,125,93.6,125z M93.2,122.1c0-0.8-0.1-1.4-0.4-1.7s-0.7-0.5-1.3-0.5c-0.6,0-1,0.2-1.3,0.5c-0.3,0.4-0.5,0.9-0.5,1.7H93.2z"/>
</g>
<g>
	<path class="st2" d="M183.5,69.6h-1v-9.3h1v4.3l1.5-0.1l2.4-4.3h1.2l-2.7,4.7l2.8,4.6h-1.2l-2.5-4.1l-1.5,0.1V69.6z"/>
	<path class="st2" d="M189.4,66.3c0-1.2,0.2-2.1,0.7-2.7c0.4-0.5,1.2-0.8,2.2-0.8s1.8,0.3,2.2,0.8c0.4,0.5,0.7,1.4,0.7,2.7
		s-0.2,2.1-0.6,2.7c-0.4,0.6-1.2,0.8-2.3,0.8s-1.8-0.3-2.3-0.8C189.6,68.4,189.4,67.5,189.4,66.3z M190.5,66.3c0,1,0.1,1.7,0.4,2.1
		c0.2,0.4,0.7,0.6,1.5,0.6s1.3-0.2,1.5-0.6s0.3-1.1,0.3-2.1s-0.1-1.7-0.4-2c-0.3-0.4-0.7-0.6-1.4-0.6s-1.2,0.2-1.5,0.6
		C190.6,64.6,190.5,65.3,190.5,66.3z"/>
	<path class="st2" d="M197.8,69.6h-1v-6.7h1v0.5c0.7-0.4,1.3-0.6,2-0.6c0.8,0,1.4,0.2,1.7,0.7c0.3-0.2,0.7-0.3,1.1-0.5
		s0.9-0.2,1.2-0.2c0.9,0,1.5,0.2,1.8,0.7c0.3,0.5,0.5,1.3,0.5,2.6v3.5h-1v-3.5c0-0.9-0.1-1.6-0.3-1.9s-0.6-0.5-1.1-0.5
		c-0.3,0-0.6,0-0.9,0.1c-0.3,0.1-0.6,0.2-0.7,0.2l-0.3,0.1c0.1,0.3,0.2,0.9,0.2,2v3.5h-1v-3.5c0-1-0.1-1.6-0.3-2
		c-0.2-0.3-0.6-0.5-1.1-0.5c-0.3,0-0.6,0-0.9,0.1c-0.3,0.1-0.5,0.2-0.7,0.2l-0.2,0.1V69.6z"/>
	<path class="st2" d="M208.1,72.6v-9.7h1v0.5c0.7-0.4,1.4-0.6,2-0.6c0.9,0,1.5,0.3,1.9,0.8c0.4,0.5,0.6,1.4,0.6,2.7
		c0,1.2-0.2,2.1-0.7,2.7s-1.2,0.8-2.3,0.8c-0.5,0-1,0-1.5-0.1v3H208.1z M210.9,63.7c-0.3,0-0.6,0-0.9,0.1c-0.3,0.1-0.6,0.2-0.7,0.3
		l-0.3,0.1v4.5c0.6,0.1,1.1,0.1,1.5,0.1c0.7,0,1.2-0.2,1.5-0.6c0.3-0.4,0.4-1.1,0.4-2c0-0.9-0.1-1.6-0.4-2
		C211.8,63.9,211.4,63.7,210.9,63.7z"/>
	<path class="st2" d="M219.7,68.8l0.4,0l0,0.8c-1,0.1-1.9,0.2-2.6,0.2c-1,0-1.7-0.3-2.1-0.8c-0.4-0.6-0.6-1.4-0.6-2.6
		c0-2.4,0.9-3.5,2.8-3.5c0.9,0,1.6,0.3,2,0.8s0.7,1.3,0.7,2.4l-0.1,0.8h-4.4c0,0.7,0.1,1.3,0.4,1.7s0.7,0.5,1.4,0.5
		C218.3,68.9,219,68.9,219.7,68.8z M219.3,65.9c0-0.8-0.1-1.4-0.4-1.7c-0.3-0.3-0.7-0.5-1.3-0.5s-1,0.2-1.3,0.5
		c-0.3,0.4-0.5,0.9-0.5,1.7H219.3z"/>
	<path class="st2" d="M225.4,63.8h-2.1V67c0,0.8,0.1,1.3,0.2,1.5c0.1,0.2,0.4,0.4,0.8,0.4l1.2-0.1l0.1,0.8c-0.6,0.1-1.1,0.1-1.4,0.1
		c-0.7,0-1.2-0.2-1.5-0.5s-0.4-1-0.4-1.9v-3.5h-1v-0.9h1v-2.1h1v2.1h2.1V63.8z"/>
	<path class="st2" d="M231.2,68.8l0.4,0l0,0.8c-1,0.1-1.9,0.2-2.6,0.2c-1,0-1.7-0.3-2.1-0.8c-0.4-0.6-0.6-1.4-0.6-2.6
		c0-2.4,0.9-3.5,2.8-3.5c0.9,0,1.6,0.3,2,0.8s0.7,1.3,0.7,2.4l-0.1,0.8h-4.4c0,0.7,0.1,1.3,0.4,1.7s0.7,0.5,1.4,0.5
		C229.8,68.9,230.5,68.9,231.2,68.8z M230.8,65.9c0-0.8-0.1-1.4-0.4-1.7c-0.3-0.3-0.7-0.5-1.3-0.5s-1,0.2-1.3,0.5
		c-0.3,0.4-0.5,0.9-0.5,1.7H230.8z"/>
	<path class="st2" d="M234.4,69.6h-1v-6.7h1v0.5c0.7-0.4,1.4-0.6,2.1-0.6c0.9,0,1.5,0.2,1.8,0.7s0.5,1.3,0.5,2.6v3.5h-1v-3.5
		c0-0.9-0.1-1.6-0.3-1.9c-0.2-0.3-0.6-0.5-1.2-0.5c-0.3,0-0.6,0-0.9,0.1c-0.3,0.1-0.6,0.2-0.7,0.2l-0.3,0.1V69.6z"/>
	<path class="st2" d="M240.2,63.8v-0.9h5v0.9l-3.8,4.9h3.8v0.9h-5v-0.9l3.8-4.9H240.2z"/>
</g>
<g>
	<path class="st2" d="M350.6,108.6c-1.3,0-2,0.5-2,1.5c0,0.6,0.2,1,0.5,1.2s0.9,0.4,1.9,0.6c0.9,0.2,1.6,0.5,2,0.8
		c0.4,0.3,0.6,0.9,0.6,1.7c0,1.9-1,2.9-3,2.9c-0.7,0-1.5-0.1-2.5-0.2l-0.5-0.1l0.1-0.9c1.2,0.2,2.1,0.2,2.8,0.2c1.3,0,2-0.6,2-1.9
		c0-0.5-0.1-0.9-0.4-1.1c-0.3-0.2-0.8-0.4-1.6-0.6c-1-0.2-1.8-0.5-2.2-0.9c-0.4-0.4-0.7-0.9-0.7-1.8c0-1.7,1-2.5,3-2.5
		c0.7,0,1.4,0.1,2.4,0.2l0.5,0.1l-0.1,0.9C352,108.6,351.1,108.6,350.6,108.6z"/>
	<path class="st2" d="M354.8,113.7c0-1.2,0.2-2.1,0.7-2.7c0.4-0.5,1.2-0.8,2.2-0.8c1,0,1.8,0.3,2.2,0.8c0.4,0.5,0.7,1.4,0.7,2.7
		s-0.2,2.1-0.6,2.7c-0.4,0.6-1.2,0.8-2.3,0.8s-1.8-0.3-2.3-0.8C355,115.8,354.8,114.9,354.8,113.7z M355.9,113.7
		c0,1,0.1,1.7,0.4,2.1c0.2,0.4,0.7,0.6,1.5,0.6c0.8,0,1.3-0.2,1.5-0.6c0.2-0.4,0.3-1.1,0.3-2.1s-0.1-1.7-0.4-2
		c-0.3-0.4-0.7-0.6-1.4-0.6c-0.7,0-1.2,0.2-1.5,0.6C356,112,355.9,112.7,355.9,113.7z"/>
	<path class="st2" d="M361.8,111.3v-0.9h5v0.9l-3.8,4.9h3.8v0.9h-5v-0.9l3.8-4.9H361.8z"/>
	<path class="st2" d="M368.3,108.9v-1.2h1v1.2H368.3z M368.3,117.1v-6.7h1v6.7H368.3z"/>
	<path class="st2" d="M376,112.4v3.4c0,0.3,0.3,0.5,0.8,0.6l0,0.8c-0.7,0-1.2-0.2-1.6-0.5c-0.8,0.4-1.6,0.5-2.4,0.5
		c-0.6,0-1.1-0.2-1.4-0.5c-0.3-0.3-0.5-0.9-0.5-1.5s0.2-1.1,0.5-1.4s0.9-0.5,1.6-0.6l2.1-0.2v-0.6c0-0.5-0.1-0.8-0.3-1
		c-0.2-0.2-0.5-0.3-0.8-0.3c-0.7,0-1.5,0-2.2,0.1l-0.4,0l0-0.8c1-0.2,1.9-0.3,2.6-0.3c0.8,0,1.3,0.2,1.7,0.5
		C375.8,111.1,376,111.7,376,112.4z M371.8,115.1c0,0.8,0.3,1.2,1,1.2c0.6,0,1.2-0.1,1.8-0.3l0.3-0.1v-2.2l-2,0.2
		c-0.4,0-0.7,0.2-0.9,0.3C371.9,114.5,371.8,114.8,371.8,115.1z"/>
	<path class="st2" d="M378.1,117.1v-9.6h1v9.6H378.1z"/>
	<path class="st2" d="M385.6,116.3l0.4,0l0,0.8c-1,0.1-1.9,0.2-2.6,0.2c-1,0-1.7-0.3-2.1-0.8c-0.4-0.6-0.6-1.4-0.6-2.6
		c0-2.4,0.9-3.5,2.8-3.5c0.9,0,1.6,0.3,2,0.8s0.7,1.3,0.7,2.4l-0.1,0.8h-4.4c0,0.7,0.1,1.3,0.4,1.7s0.7,0.5,1.4,0.5
		C384.3,116.3,385,116.3,385.6,116.3z M385.3,113.3c0-0.8-0.1-1.4-0.4-1.7c-0.3-0.3-0.7-0.5-1.3-0.5s-1,0.2-1.3,0.5
		c-0.3,0.4-0.5,0.9-0.5,1.7H385.3z"/>
	<path class="st2" d="M320.3,133.2v-9.3h5.7v0.9h-4.6v3.2h3.8v0.9h-3.8v3.4h4.6v0.9H320.3z"/>
	<path class="st2" d="M327.6,125v-1.2h1v1.2H327.6z M327.6,133.2v-6.7h1v6.7H327.6z"/>
	<path class="st2" d="M331.5,133.2h-1v-6.7h1v0.5c0.7-0.4,1.4-0.6,2.1-0.6c0.9,0,1.5,0.2,1.8,0.7s0.5,1.3,0.5,2.6v3.5h-1v-3.5
		c0-0.9-0.1-1.6-0.3-1.9c-0.2-0.3-0.6-0.5-1.2-0.5c-0.3,0-0.6,0-0.9,0.1c-0.3,0.1-0.6,0.2-0.7,0.2l-0.3,0.1V133.2z"/>
	<path class="st2" d="M340.3,136.4c-1.1,0-1.8-0.1-2.3-0.4c-0.4-0.3-0.6-0.8-0.6-1.6c0-0.4,0.1-0.7,0.2-0.9c0.2-0.2,0.4-0.5,0.8-0.8
		c-0.3-0.2-0.4-0.5-0.4-0.9c0-0.2,0.1-0.4,0.3-0.8l0.1-0.2c-0.7-0.3-1.1-1-1.1-2c0-1.5,0.8-2.3,2.5-2.3c0.4,0,0.8,0,1.2,0.1l0.2,0
		l2-0.1v0.9l-1.3,0c0.3,0.3,0.4,0.7,0.4,1.3c0,0.8-0.2,1.4-0.6,1.8c-0.4,0.3-1.1,0.5-2,0.5c-0.2,0-0.5,0-0.7-0.1
		c-0.2,0.4-0.2,0.6-0.2,0.8c0,0.3,0.1,0.5,0.3,0.5c0.2,0.1,0.7,0.1,1.5,0.1c0.9,0,1.5,0.1,1.9,0.4c0.4,0.3,0.6,0.8,0.6,1.6
		C343.3,135.7,342.3,136.4,340.3,136.4z M338.4,134.3c0,0.5,0.1,0.8,0.4,1c0.3,0.2,0.8,0.3,1.5,0.3s1.2-0.1,1.5-0.3
		c0.3-0.2,0.5-0.5,0.5-1c0-0.5-0.1-0.8-0.3-0.9s-0.7-0.2-1.3-0.2l-1.5-0.1c-0.3,0.2-0.5,0.4-0.6,0.6
		C338.5,133.8,338.4,134,338.4,134.3z M338.5,128.7c0,0.5,0.1,0.9,0.4,1.1c0.2,0.2,0.6,0.3,1.2,0.3c0.5,0,0.9-0.1,1.2-0.3
		c0.2-0.2,0.3-0.6,0.3-1.1c0-0.5-0.1-0.9-0.3-1.1c-0.2-0.2-0.6-0.3-1.2-0.3c-0.5,0-0.9,0.1-1.2,0.3S338.5,128.1,338.5,128.7z"/>
	<path class="st2" d="M349.2,132.4l0.4,0l0,0.8c-1,0.1-1.9,0.2-2.6,0.2c-1,0-1.7-0.3-2.1-0.8c-0.4-0.6-0.6-1.4-0.6-2.6
		c0-2.4,0.9-3.5,2.8-3.5c0.9,0,1.6,0.3,2,0.8s0.7,1.3,0.7,2.4l-0.1,0.8h-4.4c0,0.7,0.1,1.3,0.4,1.7s0.7,0.5,1.4,0.5
		C347.8,132.5,348.5,132.4,349.2,132.4z M348.8,129.5c0-0.8-0.1-1.4-0.4-1.7c-0.3-0.3-0.7-0.5-1.3-0.5s-1,0.2-1.3,0.5
		c-0.3,0.4-0.5,0.9-0.5,1.7H348.8z"/>
	<path class="st2" d="M354.4,126.4c0.9,0,1.5,0.3,1.9,0.8c0.4,0.5,0.5,1.4,0.5,2.7s-0.2,2.2-0.7,2.7c-0.5,0.5-1.3,0.8-2.5,0.8
		c-0.4,0-1,0-1.9-0.1l-0.4,0v-9.6h1v3.3C353.1,126.5,353.7,126.4,354.4,126.4z M353.6,132.4c0.9,0,1.5-0.2,1.7-0.6
		c0.3-0.4,0.4-1.1,0.4-2s-0.1-1.6-0.3-2c-0.2-0.4-0.6-0.6-1.2-0.6c-0.5,0-1.1,0.1-1.6,0.3l-0.3,0.1v4.7
		C353,132.4,353.4,132.4,353.6,132.4z"/>
	<path class="st2" d="M362.7,126.5h1v6.7h-1v-0.5c-0.7,0.4-1.3,0.6-2,0.6c-0.9,0-1.5-0.2-1.8-0.7c-0.3-0.5-0.5-1.4-0.5-2.6v-3.5h1
		v3.5c0,1,0.1,1.6,0.3,2c0.2,0.3,0.6,0.5,1.2,0.5c0.3,0,0.6,0,0.9-0.1c0.3-0.1,0.5-0.2,0.7-0.2l0.2-0.1V126.5z"/>
	<path class="st2" d="M366.6,133.2h-1v-6.7h1v0.5c0.7-0.4,1.4-0.6,2.1-0.6c0.9,0,1.5,0.2,1.8,0.7s0.5,1.3,0.5,2.6v3.5h-1v-3.5
		c0-0.9-0.1-1.6-0.3-1.9c-0.2-0.3-0.6-0.5-1.2-0.5c-0.3,0-0.6,0-0.9,0.1c-0.3,0.1-0.6,0.2-0.7,0.2l-0.3,0.1V133.2z"/>
	<path class="st2" d="M378,123.6v9.6h-1v-0.5c-0.7,0.4-1.4,0.6-2,0.6c-0.4,0-0.7,0-0.9-0.1s-0.5-0.3-0.8-0.5
		c-0.5-0.5-0.7-1.4-0.7-2.7c0-1.3,0.2-2.2,0.7-2.8s1.2-0.9,2.2-0.9c0.5,0,1.1,0.1,1.7,0.2v-3H378z M374.5,132.3
		c0.2,0.1,0.4,0.1,0.6,0.1s0.5,0,0.9-0.1c0.3-0.1,0.6-0.2,0.7-0.2l0.3-0.1v-4.6c-0.6-0.1-1.1-0.2-1.6-0.2c-0.7,0-1.2,0.2-1.4,0.7
		c-0.3,0.4-0.4,1.1-0.4,2c0,1,0.2,1.7,0.5,2.1C374.2,132.2,374.3,132.3,374.5,132.3z"/>
	<path class="st2" d="M384.5,132.4l0.4,0l0,0.8c-1,0.1-1.9,0.2-2.6,0.2c-1,0-1.7-0.3-2.1-0.8c-0.4-0.6-0.6-1.4-0.6-2.6
		c0-2.4,0.9-3.5,2.8-3.5c0.9,0,1.6,0.3,2,0.8s0.7,1.3,0.7,2.4l-0.1,0.8h-4.4c0,0.7,0.1,1.3,0.4,1.7s0.7,0.5,1.4,0.5
		C383.1,132.5,383.8,132.4,384.5,132.4z M384.1,129.5c0-0.8-0.1-1.4-0.4-1.7c-0.3-0.3-0.7-0.5-1.3-0.5s-1,0.2-1.3,0.5
		c-0.3,0.4-0.5,0.9-0.5,1.7H384.1z"/>
	<path class="st2" d="M387.7,133.2h-1v-6.7h1v0.5c0.7-0.4,1.4-0.6,2.1-0.6c0.9,0,1.5,0.2,1.8,0.7s0.5,1.3,0.5,2.6v3.5h-1v-3.5
		c0-0.9-0.1-1.6-0.3-1.9c-0.2-0.3-0.6-0.5-1.2-0.5c-0.3,0-0.6,0-0.9,0.1c-0.3,0.1-0.6,0.2-0.7,0.2l-0.3,0.1V133.2z"/>
	<path class="st2" d="M394.9,133.2h-1v-9.6h1v3.3c0.7-0.3,1.4-0.5,2.1-0.5c0.9,0,1.5,0.2,1.8,0.7s0.5,1.3,0.5,2.6v3.5h-1v-3.5
		c0-0.9-0.1-1.6-0.3-1.9s-0.6-0.5-1.2-0.5c-0.6,0-1.1,0.1-1.6,0.3l-0.3,0.1V133.2z"/>
	<path class="st2" d="M405.7,132.4l0.4,0l0,0.8c-1,0.1-1.9,0.2-2.6,0.2c-1,0-1.7-0.3-2.1-0.8c-0.4-0.6-0.6-1.4-0.6-2.6
		c0-2.4,0.9-3.5,2.8-3.5c0.9,0,1.6,0.3,2,0.8s0.7,1.3,0.7,2.4l-0.1,0.8h-4.4c0,0.7,0.1,1.3,0.4,1.7s0.7,0.5,1.4,0.5
		C404.3,132.5,405,132.4,405.7,132.4z M405.3,129.5c0-0.8-0.1-1.4-0.4-1.7c-0.3-0.3-0.7-0.5-1.3-0.5s-1,0.2-1.3,0.5
		c-0.3,0.4-0.5,0.9-0.5,1.7H405.3z"/>
	<path class="st2" d="M407.9,125v-1.2h1v1.2H407.9z M407.9,133.2v-6.7h1v6.7H407.9z"/>
	<path class="st2" d="M414.3,127.4h-2.1v3.2c0,0.8,0.1,1.3,0.2,1.5c0.1,0.2,0.4,0.4,0.8,0.4l1.2-0.1l0.1,0.8
		c-0.6,0.1-1.1,0.1-1.4,0.1c-0.7,0-1.2-0.2-1.5-0.5s-0.4-1-0.4-1.9v-3.5h-1v-0.9h1v-2.1h1v2.1h2.1V127.4z"/>
</g>
<g>
	<path class="st2" d="M155.8,209.3c0.5,0.3,1.3,0.6,2.1,0.6c1.2,0,1.9-0.6,1.9-1.5c0-0.8-0.5-1.3-1.7-1.8c-1.5-0.5-2.4-1.3-2.4-2.6
		c0-1.4,1.2-2.5,2.9-2.5c0.9,0,1.6,0.2,2,0.4l-0.3,1c-0.3-0.2-0.9-0.4-1.7-0.4c-1.2,0-1.7,0.7-1.7,1.4c0,0.8,0.6,1.3,1.8,1.7
		c1.5,0.6,2.3,1.3,2.3,2.7c0,1.4-1,2.6-3.2,2.6c-0.9,0-1.8-0.3-2.3-0.6L155.8,209.3z"/>
	<path class="st2" d="M163.3,207.7c0,1.6,1,2.3,2.2,2.3c0.8,0,1.4-0.1,1.8-0.3l0.2,0.8c-0.4,0.2-1.1,0.4-2.2,0.4
		c-2,0-3.2-1.3-3.2-3.3c0-2,1.2-3.5,3-3.5c2.1,0,2.7,1.9,2.7,3.1c0,0.2,0,0.4,0,0.5H163.3z M166.8,206.8c0-0.8-0.3-1.9-1.6-1.9
		c-1.2,0-1.7,1.1-1.8,1.9H166.8z"/>
	<path class="st2" d="M169.4,201.2h1.2v9.5h-1.2V201.2z"/>
	<path class="st2" d="M172.5,210.7c0-0.4,0.1-1.1,0.1-1.7v-7.9h1.2v4.1h0c0.4-0.7,1.2-1.2,2.2-1.2c1.6,0,2.8,1.3,2.7,3.3
		c0,2.3-1.5,3.5-2.9,3.5c-0.9,0-1.7-0.4-2.2-1.2h0l-0.1,1.1H172.5z M173.7,208.1c0,0.1,0,0.3,0.1,0.4c0.2,0.8,0.9,1.4,1.8,1.4
		c1.2,0,2-1,2-2.5c0-1.3-0.7-2.4-1.9-2.4c-0.8,0-1.6,0.6-1.8,1.5c0,0.1-0.1,0.3-0.1,0.5V208.1z"/>
	<path class="st2" d="M180.1,209.5c0.3,0.2,1,0.5,1.6,0.5c0.9,0,1.3-0.4,1.3-1c0-0.6-0.3-0.9-1.2-1.2c-1.2-0.4-1.7-1.1-1.7-1.8
		c0-1,0.8-1.9,2.2-1.9c0.7,0,1.2,0.2,1.6,0.4l-0.3,0.9c-0.3-0.2-0.7-0.4-1.3-0.4c-0.7,0-1.1,0.4-1.1,0.9c0,0.5,0.4,0.8,1.2,1.1
		c1.1,0.4,1.7,1,1.7,2c0,1.1-0.9,1.9-2.4,1.9c-0.7,0-1.4-0.2-1.8-0.4L180.1,209.5z"/>
	<path class="st2" d="M187,202.3v1.9h1.7v0.9H187v3.5c0,0.8,0.2,1.3,0.9,1.3c0.3,0,0.5,0,0.7-0.1l0.1,0.9c-0.2,0.1-0.6,0.2-1,0.2
		c-0.6,0-1-0.2-1.3-0.5c-0.3-0.3-0.5-0.9-0.5-1.7v-3.5h-1v-0.9h1v-1.6L187,202.3z"/>
	<path class="st2" d="M189.9,210.7c0-0.4,0.1-1.1,0.1-1.7v-7.9h1.2v4.1h0c0.4-0.7,1.2-1.2,2.2-1.2c1.6,0,2.8,1.3,2.7,3.3
		c0,2.3-1.5,3.5-2.9,3.5c-0.9,0-1.7-0.4-2.2-1.2h0l-0.1,1.1H189.9z M191.1,208.1c0,0.1,0,0.3,0.1,0.4c0.2,0.8,0.9,1.4,1.8,1.4
		c1.2,0,2-1,2-2.5c0-1.3-0.7-2.4-1.9-2.4c-0.8,0-1.6,0.6-1.8,1.5c0,0.1-0.1,0.3-0.1,0.5V208.1z"/>
	<path class="st2" d="M198.3,207.7c0,1.6,1,2.3,2.2,2.3c0.8,0,1.4-0.1,1.8-0.3l0.2,0.8c-0.4,0.2-1.1,0.4-2.2,0.4
		c-2,0-3.2-1.3-3.2-3.3c0-2,1.2-3.5,3-3.5c2.1,0,2.7,1.9,2.7,3.1c0,0.2,0,0.4,0,0.5H198.3z M201.7,206.8c0-0.8-0.3-1.9-1.6-1.9
		c-1.2,0-1.7,1.1-1.8,1.9H201.7z"/>
	<path class="st2" d="M204.2,209.5c0.3,0.2,1,0.5,1.6,0.5c0.9,0,1.3-0.4,1.3-1c0-0.6-0.3-0.9-1.2-1.2c-1.2-0.4-1.7-1.1-1.7-1.8
		c0-1,0.8-1.9,2.2-1.9c0.7,0,1.2,0.2,1.6,0.4l-0.3,0.9c-0.3-0.2-0.7-0.4-1.3-0.4c-0.7,0-1.1,0.4-1.1,0.9c0,0.5,0.4,0.8,1.2,1.1
		c1.1,0.4,1.7,1,1.7,2c0,1.1-0.9,1.9-2.4,1.9c-0.7,0-1.4-0.2-1.8-0.4L204.2,209.5z"/>
	<path class="st2" d="M211.1,202.3v1.9h1.7v0.9h-1.7v3.5c0,0.8,0.2,1.3,0.9,1.3c0.3,0,0.5,0,0.7-0.1l0.1,0.9c-0.2,0.1-0.6,0.2-1,0.2
		c-0.6,0-1-0.2-1.3-0.5c-0.3-0.3-0.5-0.9-0.5-1.7v-3.5h-1v-0.9h1v-1.6L211.1,202.3z"/>
	<path class="st2" d="M215.4,202.4c0,0.4-0.3,0.7-0.8,0.7c-0.4,0-0.7-0.3-0.7-0.7c0-0.4,0.3-0.7,0.7-0.7
		C215.2,201.7,215.4,202,215.4,202.4z M214.1,210.7v-6.5h1.2v6.5H214.1z"/>
	<path class="st2" d="M217.3,206c0-0.7,0-1.2-0.1-1.8h1l0.1,1h0c0.4-0.6,1-1.2,2-1.2c0.9,0,1.6,0.5,1.8,1.3h0
		c0.2-0.4,0.5-0.6,0.7-0.8c0.4-0.3,0.8-0.5,1.4-0.5c0.9,0,2.1,0.6,2.1,2.8v3.8h-1.2V207c0-1.2-0.5-2-1.4-2c-0.7,0-1.2,0.5-1.4,1.1
		c-0.1,0.2-0.1,0.4-0.1,0.6v4h-1.2v-3.9c0-1-0.5-1.8-1.4-1.8c-0.7,0-1.3,0.6-1.5,1.2c-0.1,0.2-0.1,0.4-0.1,0.6v3.9h-1.2V206z"/>
	<path class="st2" d="M228.5,206c0-0.7,0-1.2-0.1-1.8h1l0.1,1h0c0.4-0.6,1-1.2,2-1.2c0.9,0,1.6,0.5,1.8,1.3h0
		c0.2-0.4,0.5-0.6,0.7-0.8c0.4-0.3,0.8-0.5,1.4-0.5c0.9,0,2.1,0.6,2.1,2.8v3.8h-1.2V207c0-1.2-0.5-2-1.4-2c-0.7,0-1.2,0.5-1.4,1.1
		c-0.1,0.2-0.1,0.4-0.1,0.6v4h-1.2v-3.9c0-1-0.5-1.8-1.4-1.8c-0.7,0-1.3,0.6-1.5,1.2c-0.1,0.2-0.1,0.4-0.1,0.6v3.9h-1.2V206z"/>
	<path class="st2" d="M245.1,208.9c0,0.7,0,1.3,0.1,1.8h-1l-0.1-1.1h0c-0.3,0.5-1,1.2-2.1,1.2c-1,0-2.2-0.6-2.2-2.8v-3.8h1.2v3.6
		c0,1.2,0.4,2.1,1.5,2.1c0.8,0,1.3-0.6,1.6-1.1c0.1-0.2,0.1-0.4,0.1-0.6v-4h1.2V208.9z"/>
	<path class="st2" d="M247.1,206c0-0.7,0-1.2-0.1-1.8h1l0.1,1.1h0c0.3-0.6,1.1-1.2,2.1-1.2c0.9,0,2.3,0.5,2.3,2.8v3.9h-1.2V207
		c0-1-0.4-1.9-1.5-1.9c-0.8,0-1.4,0.5-1.6,1.2c-0.1,0.1-0.1,0.3-0.1,0.6v3.9h-1.2V206z"/>
	<path class="st2" d="M260.1,204.2c0,0.5-0.1,1-0.1,1.8v3.8c0,1.5-0.3,2.4-0.9,3c-0.6,0.6-1.5,0.8-2.4,0.8c-0.8,0-1.6-0.2-2.2-0.5
		l0.3-0.9c0.4,0.3,1.1,0.5,1.9,0.5c1.2,0,2.1-0.6,2.1-2.3v-0.7h0c-0.4,0.6-1.1,1.1-2.1,1.1c-1.6,0-2.8-1.4-2.8-3.2
		c0-2.2,1.4-3.5,2.9-3.5c1.1,0,1.7,0.6,2,1.1h0l0.1-1H260.1z M258.9,206.8c0-0.2,0-0.4-0.1-0.5c-0.2-0.7-0.8-1.2-1.7-1.2
		c-1.1,0-1.9,1-1.9,2.5c0,1.3,0.6,2.3,1.9,2.3c0.7,0,1.4-0.5,1.6-1.2c0.1-0.2,0.1-0.4,0.1-0.6V206.8z"/>
	<path class="st2" d="M261.9,209.5c0.3,0.2,1,0.5,1.6,0.5c0.9,0,1.3-0.4,1.3-1c0-0.6-0.3-0.9-1.2-1.2c-1.2-0.4-1.7-1.1-1.7-1.8
		c0-1,0.8-1.9,2.2-1.9c0.7,0,1.2,0.2,1.6,0.4l-0.3,0.9c-0.3-0.2-0.7-0.4-1.3-0.4c-0.7,0-1.1,0.4-1.1,0.9c0,0.5,0.4,0.8,1.2,1.1
		c1.1,0.4,1.7,1,1.7,2c0,1.1-0.9,1.9-2.4,1.9c-0.7,0-1.4-0.2-1.8-0.4L261.9,209.5z"/>
	<path class="st2" d="M270.1,206.6v0.9h-3.3v-0.9H270.1z"/>
	<path class="st2" d="M195,218.5v1.9h1.7v0.9H195v3.5c0,0.8,0.2,1.3,0.9,1.3c0.3,0,0.5,0,0.7-0.1l0.1,0.9c-0.2,0.1-0.6,0.2-1,0.2
		c-0.6,0-1-0.2-1.3-0.5c-0.3-0.3-0.5-0.9-0.5-1.7v-3.5h-1v-0.9h1v-1.6L195,218.5z"/>
	<path class="st2" d="M198,217.3h1.2v4.1h0c0.2-0.3,0.5-0.6,0.8-0.8c0.3-0.2,0.8-0.3,1.2-0.3c0.9,0,2.3,0.5,2.3,2.8v3.9h-1.2v-3.7
		c0-1-0.4-1.9-1.5-1.9c-0.8,0-1.4,0.5-1.6,1.2c-0.1,0.2-0.1,0.3-0.1,0.6v3.9H198V217.3z"/>
	<path class="st2" d="M206.1,223.8c0,1.6,1,2.3,2.2,2.3c0.8,0,1.4-0.1,1.8-0.3l0.2,0.8c-0.4,0.2-1.1,0.4-2.2,0.4
		c-2,0-3.2-1.3-3.2-3.3c0-2,1.2-3.5,3-3.5c2.1,0,2.7,1.9,2.7,3.1c0,0.2,0,0.4,0,0.5H206.1z M209.6,223c0-0.8-0.3-1.9-1.6-1.9
		c-1.2,0-1.7,1.1-1.8,1.9H209.6z"/>
	<path class="st2" d="M218.1,223.5c0,2.4-1.7,3.5-3.2,3.5c-1.8,0-3.1-1.3-3.1-3.3c0-2.2,1.4-3.5,3.2-3.5
		C216.8,220.2,218.1,221.5,218.1,223.5z M212.9,223.6c0,1.4,0.8,2.5,2,2.5c1.1,0,2-1.1,2-2.5c0-1.1-0.6-2.5-1.9-2.5
		C213.5,221.1,212.9,222.4,212.9,223.6z"/>
	<path class="st2" d="M219.6,222.4c0-0.8,0-1.4-0.1-2h1l0,1.3h0.1c0.3-0.9,1-1.4,1.8-1.4c0.1,0,0.2,0,0.3,0v1.1c-0.1,0-0.2,0-0.4,0
		c-0.8,0-1.4,0.6-1.6,1.5c0,0.2-0.1,0.3-0.1,0.5v3.5h-1.2V222.4z"/>
	<path class="st2" d="M225.3,218.5c0,0.4-0.3,0.7-0.8,0.7c-0.4,0-0.7-0.3-0.7-0.7c0-0.4,0.3-0.7,0.7-0.7
		C225,217.8,225.3,218.1,225.3,218.5z M224,226.8v-6.5h1.2v6.5H224z"/>
	<path class="st2" d="M227.8,223.8c0,1.6,1,2.3,2.2,2.3c0.8,0,1.4-0.1,1.8-0.3l0.2,0.8c-0.4,0.2-1.1,0.4-2.2,0.4
		c-2,0-3.2-1.3-3.2-3.3c0-2,1.2-3.5,3-3.5c2.1,0,2.7,1.9,2.7,3.1c0,0.2,0,0.4,0,0.5H227.8z M231.3,223c0-0.8-0.3-1.9-1.6-1.9
		c-1.2,0-1.7,1.1-1.8,1.9H231.3z"/>
</g>
<g>
	<path class="st2" d="M213.3,22.9c0.2,0.1,0.3,0.3,0.3,0.6c0,0.9,0,1.9,0,2.8c0,0.2,0,0.3-0.1,0.4c-0.2,0.2-0.6,0.1-0.6-0.2
		c0-0.1,0-0.1,0-0.2c0-0.9,0-1.9,0-2.8c0-0.2,0.1-0.4,0.3-0.6C213.1,22.9,213.2,22.9,213.3,22.9z"/>
	<path class="st2" d="M219.1,34.8c0,1.1-0.4,2.3-1.1,3.3c-0.5,0.7-1,1.5-1.3,2.4c-0.1,0.5-0.2,0.9-0.1,1.4c0,0.2-0.1,0.4-0.2,0.4
		c-0.2,0.1-0.4,0-0.5-0.2c-0.1-0.1-0.1-0.3-0.1-0.4c-0.1-0.6,0.1-1.2,0.3-1.8c0.3-0.8,0.8-1.6,1.3-2.3c0.7-0.9,1-2,0.9-3.1
		c-0.1-1.6-0.7-2.9-2-3.9c-0.9-0.7-1.8-1.1-2.9-1.1c-1.5-0.1-2.8,0.4-3.9,1.4c-0.8,0.7-1.3,1.6-1.5,2.7c-0.3,1.5,0,2.9,0.8,4.1
		c0.4,0.6,0.8,1.2,1.2,1.9c0.3,0.7,0.5,1.4,0.4,2.2c0,0.1-0.1,0.3-0.1,0.4c-0.1,0.2-0.3,0.3-0.5,0.2c-0.2-0.1-0.3-0.2-0.2-0.4
		c0.2-0.6,0-1.2-0.3-1.8c-0.3-0.8-0.8-1.5-1.3-2.2c-1-1.5-1.2-3-0.8-4.7c0.3-1.1,0.8-2,1.6-2.8c1.1-1.1,2.4-1.6,3.9-1.7
		c1.1-0.1,2.2,0.2,3.1,0.7c1.1,0.6,2,1.5,2.6,2.7C218.9,32.9,219.1,33.7,219.1,34.8z"/>
	<path class="st2" d="M204.8,26.3c0.1-0.2,0.1-0.3,0.3-0.3c0.2-0.1,0.3,0,0.4,0.1c0.2,0.2,0.4,0.4,0.6,0.6c0.6,0.5,1.1,1.1,1.7,1.7
		c0.2,0.2,0.2,0.4,0.1,0.6c-0.1,0.1-0.4,0.1-0.6,0c-0.5-0.5-1-1-1.5-1.4c-0.3-0.3-0.6-0.5-0.8-0.8C205,26.6,204.9,26.5,204.8,26.3z"
		/>
	<path class="st2" d="M221.5,26.4c-0.1-0.2-0.1-0.3-0.3-0.4c-0.2-0.1-0.3,0-0.4,0.1c-0.2,0.2-0.4,0.4-0.7,0.6
		c-0.6,0.5-1.2,1-1.8,1.6c-0.2,0.2-0.3,0.4-0.1,0.6c0.1,0.2,0.4,0.1,0.6,0c0.5-0.5,1-0.9,1.6-1.4c0.3-0.3,0.6-0.5,0.9-0.8
		C221.4,26.6,221.4,26.5,221.5,26.4z"/>
	<path class="st2" d="M224.3,31.9c0-0.1,0-0.2-0.1-0.3c-0.1-0.1-0.3-0.1-0.4-0.1c-0.8,0.3-1.7,0.7-2.5,1c-0.2,0.1-0.3,0.1-0.5,0.2
		c-0.2,0.1-0.3,0.3-0.3,0.5c0.1,0.2,0.3,0.3,0.5,0.2c0.6-0.2,1.2-0.5,1.8-0.7c0.4-0.2,0.8-0.3,1.1-0.5
		C224.1,32.3,224.2,32.2,224.3,31.9z"/>
	<path class="st2" d="M206.1,33.1c0,0.1,0,0.2-0.1,0.3c-0.1,0.1-0.3,0.1-0.4,0.1c-0.8-0.3-1.7-0.7-2.5-1c-0.2-0.1-0.3-0.1-0.5-0.2
		c-0.2-0.1-0.3-0.3-0.3-0.5c0.1-0.2,0.3-0.3,0.5-0.2c0.6,0.2,1.2,0.5,1.8,0.7c0.4,0.2,0.8,0.3,1.1,0.5
		C205.8,32.7,206,32.8,206.1,33.1z"/>
	<line class="st3" x1="212.1" y1="36" x2="212.1" y2="42.9"/>
	<line class="st3" x1="214" y1="36.1" x2="214" y2="42.8"/>
	<g>
		<g>
			<path class="st2" d="M209.6,44.6c2.3,0,4.6,0,6.9,0c0.4,0,0.4-0.6,0-0.6c-2.3,0-4.6,0-6.9,0C209.2,44,209.2,44.6,209.6,44.6
				L209.6,44.6z"/>
		</g>
	</g>
	<g>
		<g>
			<path class="st2" d="M209.6,43.3c2.3,0,4.6,0,6.9,0c0.4,0,0.4-0.6,0-0.6c-2.3,0-4.6,0-6.9,0C209.2,42.7,209.2,43.3,209.6,43.3
				L209.6,43.3z"/>
		</g>
	</g>
	<g>
		<g>
			<path class="st2" d="M210.7,45.4c-0.5,1.7,0.6,3.1,2.4,3.1c1.8,0,2.9-1.4,2.4-3.1c-0.1-0.4-0.7-0.2-0.6,0.2
				c0.3,1.3-0.4,2.4-1.8,2.4c-1.4,0-2.2-1-1.8-2.3C211.4,45.2,210.8,45.1,210.7,45.4L210.7,45.4z"/>
		</g>
	</g>
	<rect x="211.8" y="36" class="st2" width="2.5" height="0.5"/>
</g>
<g>
	<path class="st4" d="M366.8,89.4l-1.5-1.5c-1.3-1.3-1.3-3.5,0-4.8l6.4-6.4c1.3-1.3,3.5-1.3,4.8,0l1.5,1.5c1.3,1.3,1.3,3.5,0,4.8
		l-6.3,6.3"/>
	<path class="st4" d="M367.1,86.2l1.5,1.5c1.3,1.3,1.3,3.5,0,4.8l-6.4,6.4c-1.3,1.3-3.5,1.3-4.8,0l-1.5-1.5c-1.3-1.3-1.3-3.5,0-4.8
		l6.3-6.3"/>
</g>
<g>
	<path class="st5" d="M67.9,89L67.9,89c-0.8,0-1.4-0.6-1.4-1.4V84c0-0.8,0.6-1.4,1.4-1.4h0c0.8,0,1.4,0.6,1.4,1.4v3.7
		C69.3,88.4,68.7,89,67.9,89z"/>
	<path class="st5" d="M57.6,84.8v-1.3c0-0.8,0.6-1.4,1.4-1.4h0c0.8,0,1.4,0.6,1.4,1.4v1.4"/>
	<path class="st6" d="M64.9,89L64.9,89c-0.8,0-1.4-0.6-1.4-1.4v-4.1c0-0.8,0.6-1.4,1.4-1.4h0c0.8,0,1.4,0.6,1.4,1.4v4.1
		C66.3,88.3,65.7,89,64.9,89z"/>
	<path class="st6" d="M60.6,85.1v-1.5c0-0.8,0.6-1.4,1.4-1.4h0c0.8,0,1.4,0.6,1.4,1.4v4.1c0,0.8-0.6,1.4-1.4,1.4h0
		c-0.8,0-1.4-0.6-1.4-1.4"/>
	<line class="st7" x1="69.3" y1="87.3" x2="69.3" y2="92.8"/>
	<line class="st7" x1="57.6" y1="87.8" x2="57.6" y2="90.1"/>
	<line class="st7" x1="59.9" y1="87.6" x2="56.4" y2="87.6"/>
	<line class="st7" x1="59.9" y1="85" x2="56.4" y2="85"/>
	<line class="st7" x1="68.3" y1="95.7" x2="68.3" y2="101.2"/>
	<line class="st7" x1="57.6" y1="95" x2="57.6" y2="102.8"/>
	<path class="st7" d="M69.3,92.8c0,1.4-0.9,1.4-0.9,3"/>
	<line class="st5" x1="54.6" y1="86.8" x2="54.6" y2="92.2"/>
	<path class="st5" d="M54.6,92.2c0,1.4,3,1.3,3,2.8"/>
	<path class="st5" d="M54.6,86.8c0-1,0.8-1.8,1.8-1.8"/>
	<path class="st5" d="M59.9,85c2,0,2,2.6,0,2.6"/>
	<rect x="59.4" y="77.6" transform="matrix(0.9659 -0.2588 0.2588 0.9659 -18.3302 18.115)" class="st2" width="0.5" height="2.2"/>
	
		<rect x="64.9" y="77.6" transform="matrix(-0.9659 -0.2588 0.2588 -0.9659 107.7484 171.5322)" class="st2" width="0.5" height="2.2"/>
	
		<rect x="69.7" y="80.3" transform="matrix(-0.6885 -0.7252 0.7252 -0.6885 59.073 188.1957)" class="st2" width="0.5" height="2.2"/>
	
		<rect x="71.2" y="85.1" transform="matrix(-0.2753 -0.9614 0.9614 -0.2753 8.2988 178.6147)" class="st2" width="0.5" height="2.2"/>
	
		<rect x="52.3" y="85.1" transform="matrix(0.2753 -0.9614 0.9614 0.2753 -44.8531 112.9818)" class="st2" width="0.5" height="2.2"/>
	
		<rect x="52.3" y="90.6" transform="matrix(-0.2599 -0.9656 0.9656 -0.2599 -22.3907 166.2989)" class="st2" width="0.5" height="2.2"/>
	
		<rect x="71.2" y="90.6" transform="matrix(0.2599 -0.9656 0.9656 0.2599 -35.7087 136.9059)" class="st2" width="0.5" height="2.2"/>
	
		<rect x="54.6" y="80.3" transform="matrix(0.6885 -0.7252 0.7252 0.6885 -41.9427 65.1524)" class="st2" width="0.5" height="2.2"/>
</g>
<g>
</g>
<g>
</g>
<g>
</g>
<g>
</g>
<g>
</g>
<g>
</g>
</svg>
