<?xml version="1.0" encoding="utf-8"?>
<!-- Generator: Adobe Illustrator 22.0.1, SVG Export Plug-In . SVG Version: 6.00 Build 0)  -->
<svg version="1.1" id="Ebene_1" xmlns="http://www.w3.org/2000/svg" xmlns:xlink="http://www.w3.org/1999/xlink" x="0px" y="0px"
	 viewBox="0 0 600 329" style="enable-background:new 0 0 600 329;" xml:space="preserve">
<style type="text/css">
	.st0{fill:#A1D4F4;}
	.st1{fill:#AFA581;}
	.st2{fill:#61583F;}
	.st3{fill:#7F7359;}
	.st4{fill:none;stroke:#412413;stroke-width:0.1949;stroke-miterlimit:10;}
	.st5{fill:#726761;}
	.st6{fill:#BAB7B4;}
	.st7{fill:none;stroke:#948078;stroke-width:1.4767;stroke-linecap:round;stroke-linejoin:round;stroke-miterlimit:10;}
	.st8{fill:none;stroke:#412413;stroke-width:0.3005;stroke-miterlimit:10;}
	.st9{fill-rule:evenodd;clip-rule:evenodd;fill:#182943;}
	.st10{fill-rule:evenodd;clip-rule:evenodd;fill:#020203;}
	.st11{fill-rule:evenodd;clip-rule:evenodd;fill:#133659;}
	.st12{fill:#F2BC98;}
	.st13{fill-rule:evenodd;clip-rule:evenodd;fill:#C1DBDF;}
	.st14{fill-rule:evenodd;clip-rule:evenodd;fill:#D9ECEE;}
	.st15{fill:#133659;}
	.st16{fill-rule:evenodd;clip-rule:evenodd;fill:#EFA47E;}
	.st17{fill:#EFA47E;}
	.st18{fill:#1E1E1C;}
	.st19{fill:none;stroke:#1E1E1C;stroke-width:0.1611;stroke-miterlimit:10;}
	.st20{fill:none;stroke:#1E1E1C;stroke-width:0.4834;stroke-linecap:round;stroke-linejoin:round;stroke-miterlimit:10;}
	.st21{fill:#679135;}
	.st22{fill:#608330;}
	.st23{opacity:0.3;fill:#FFFFFF;}
	.st24{fill:none;stroke:#7B6D55;stroke-width:3.5968;stroke-miterlimit:10;}
</style>
<rect x="104.7" y="0.8" class="st0" width="491.3" height="163.2"/>
<path class="st1" d="M596.6,328.3H134.8l1.2-164.9c40.9-31,88-32.5,129.5-4.7c15.8-11.9,36.2-19.1,69-13.6
	c43.4-43.2,106.3-46.7,139.9-14.8c45.8-20.1,96.5-4.7,122.2,26.6V328.3z"/>
<path class="st2" d="M596.6,252.1l-232.1-6.5c0,0-143.5,50.3-142.3,40.8c0.8-6,40.9-44.7,84.3-49.1c13.9-1.4,33.5-14,45.2-23.1
	c19.6-15.3,22.6-17.8,24.4-20.1c15.3-12.3,31.8-16.7,49.5-12.4c28.1-29,69.6-30.2,91-10.1c25.7-10.6,56.8-7.1,80,17.7V252.1z"/>
<g>
	<path class="st3" d="M410.3,285.8H151.9c0,0,28.1-45.5,37.9-57.9c15.3-12.3,31.8-16.7,49.5-12.4c28.1-29,69.6-30.2,91-10.1
		c25.7-10.6,56.8-7.1,80,17.7c3.6,3.8,30.4-6.3,47.6-3c26.4,5,47.2,22.9,60.5,24.8L410.3,285.8z"/>
	<path class="st4" d="M314,215.3c28.8-23.5,71.7-20,96,7.8"/>
	<path class="st4" d="M190.2,228.4c19.8-19.4,52.2-19.6,72.4-0.3"/>
	<path class="st4" d="M239.3,215c27.6-27.1,68.8-31,92.2-8.8"/>
</g>
<path class="st5" d="M1.7,1.8h103.5l11.1,14.1l1.5,82.1l17,20.7v51.8l13.3,3.7l71.7,112.4v42.2H0.9C0.9,328.6,2,2.1,1.7,1.8z"/>
<polygon class="st6" points="1.3,1.4 60.5,1.4 71.6,59.8 89.3,73.1 116.7,98.3 135.9,116.8 135.9,212.9 164,231.4 186.9,297.9 
	181.7,328.3 1.3,328.3 "/>
<polygon class="st5" points="1.3,159.7 26.4,152.3 60.5,185.5 76.7,221 98.2,231.4 98.2,238.8 126.3,252.8 166.2,328.3 1.3,328.3 
	"/>
<g>
	<path class="st7" d="M81,2.7c19.9,39.9,40.6,95.2,76,125.5"/>
	<path class="st7" d="M62.7,2c17.7,76,75.2,177.5,92.2,209.3"/>
	<path class="st7" d="M154.9,222.8c24.4,43.6,45,87.1,47.3,105.6"/>
	<path class="st7" d="M192.8,252.1c10.1,28.2,21.2,65.4,21.9,76.3"/>
</g>
<path class="st8" d="M135.9,163.3c44.4-36.3,110.6-30.9,148.1,12"/>
<path class="st8" d="M449.3,145.6c44.4-36.3,110.6-30.9,148.1,12"/>
<path class="st8" d="M258.5,165.7c30.5-30,80.4-30.2,111.6-0.5"/>
<path class="st8" d="M334.2,145c42.6-41.8,106.1-47.8,142.1-13.5"/>
<path class="st4" d="M500.3,181.6c28.8-23.5,71.7-20,96,7.8"/>
<g>
	<path class="st9" d="M166.2,173.6c-6.9,5-14.6,11.2-17.2,16.9c-0.3,0.8,0,2.7,0.6,3.5c3.4,4.7,6.5,2,9.5,0.6
		c5.8-2.8,17.1-6.7,21.7-10.1l0,0c6.7-3.7,4.5-9.9,4.3-10.8c-0.6-4,7.5-15.5,6.5-19l-19.5,13.6C173,170.7,168.6,170,166.2,173.6z"/>
	<path class="st9" d="M160.6,192c0.6,6.2-1.3,16.4-3.2,28.2c0.3,2.5-6.9,7.4-9.7,4.8l1.3-33.4c-0.4-2.7,6.8-9.6,9.5-12
		C161.5,176.9,160,185.9,160.6,192z"/>
	<path class="st10" d="M149.2,222.1c-0.8,1.9-1.4,3.5-2.3,5.2c-0.7,1.3-1.7,2.7-2.6,4.1c-0.7,1.1-2.2,1.9-2.5,3
		c-0.2,0.8,0.2,1.5,1.5,1.9c1.4,0.4,3.6-0.3,5.1-0.9c3.1-1.4,5.1-4.3,7.2-7l0.4,0.6l2.9-2.5l-0.4-2.8c-0.6-2.3-1.1-2.4-2.6-4.3
		l-3.1,1.1L149.2,222.1z"/>
	<g>
		<path class="st11" d="M183.6,178.3c-4.7,7.5-9.6,16.8-9.8,24c0,1,1.1,3.1,2,3.9c5.2,4.6,7.1,0.8,9.4-1.7
			c1.5-1.6,13.4-13.4,15.7-16.9c5.2-7.6-0.2-14.4-0.7-15.4c-2.3-4.5-6.5-12.8-8.7-18.3l-13.2,13.6
			C178.6,170.6,183.6,174.2,183.6,178.3z"/>
		<path class="st11" d="M187.3,200.4c3.1,7.2,4.9,19.8,7.2,34.3c1.3,2.9-4.8,11-8.8,8.8l-11.4-39.9c-1.5-3.1,3.8-13.5,5.8-17.2
			C182.4,182.2,184.2,193.3,187.3,200.4z"/>
	</g>
	<path class="st10" d="M186.2,239.4c-0.1,2.6-0.2,4.6-0.6,6.8c-0.3,1.8-0.8,3.7-1.3,5.7c-0.3,1.5-1.7,2.9-1.6,4.4
		c0.1,1,0.8,1.8,2.4,1.8c1.7,0.1,3.9-1.5,5.3-2.8c2.9-2.7,4-6.7,5.2-10.5l0.6,0.6l2.3-3.9l-1.5-3.2c-1.6-2.5-2.1-2.5-4.5-4.2l-3,2.3
		L186.2,239.4z"/>
	<path class="st12" d="M126.2,92.6c-0.3,0.3-1.5-0.7-1.5-0.7s-1.5-1.3-2-0.8c-0.5,0.5,0.6,1.4,0.6,1.4l1.5,1.5
		c1.6,1.2,4.6,1.3,5.3,1.4c0.7,0.2,2.4,2.4,2.4,2.4l3.8-3.8c0,0-2.7-2.6-3.1-3.1c-0.6-1.7-2.4-4.3-2.7-4.6c-0.9-1.1-2.4-2.3-3.1-2.5
		c-1.1-0.4-1.4,0.1-1.2,0.5c1.1,0.7,1.9,1.2,2.4,1.8c0.1,0.2-0.2,0.5-0.3,0.3c-1.2-1.5-2.3-2.7-3.3-2.9c-0.9-0.2-1.9-0.1-2,0.5
		c0,0.6,1.2,0.5,2.1,1c0.8,0.5,1.3,1.3,2,2c0.2,0.2-0.1,0.4-0.3,0.3c-1.5-1.7-3.1-2.9-4.6-3.6c-1-0.6-1.7,0.7-0.4,1.3
		c1.4,0.5,2.4,1.7,3.8,3.4c0.1,0.2-0.2,0.5-0.4,0.3c-1.6-1.6-2.4-2.5-4.1-3.1c-0.9-0.2-1.2,0.5-0.4,1
		C121.9,87.4,126.7,91.9,126.2,92.6z"/>
	<path class="st12" d="M120.7,136.4c0-0.4-1.5-0.6-1.5-0.6s-2-0.1-2-0.8c0-0.7,1.4-0.6,1.4-0.6l2.1,0c2,0.3,4.2,2.4,4.8,2.7
		s3.4,0,3.4,0l0,5.3c0,0-3.8-0.1-4.4,0c-1.6,0.7-4.7,1.3-5.2,1.4c-1.4,0.1-3.3,0-4-0.4c-1-0.5-0.9-1-0.5-1.2c1.3,0.3,2.2,0.5,3,0.4
		c0.2,0,0.2-0.5,0-0.4c-1.9,0.3-3.5,0.3-4.4-0.3c-0.8-0.5-1.4-1.3-1.1-1.8c0.4-0.4,1.2,0.5,2.2,0.7c0.9,0.2,1.8,0,2.8,0
		c0.2,0,0.2-0.4,0-0.4c-2.3,0.1-4.2-0.1-5.8-0.7c-1.1-0.3-0.7-1.7,0.6-1.2c1.4,0.6,2.9,0.5,5.1,0.3c0.2,0,0.2-0.5,0-0.5
		c-2.2,0-3.5,0.1-5-0.7c-0.8-0.5-0.5-1.2,0.5-1C114,137.1,120.6,137.3,120.7,136.4z"/>
	<path class="st13" d="M144,113.7c-4.2-2.6-0.1-8.4,4.5-6c4.9,1.9,16.4,5.2,19.2,9c2.1,2.8,1.2,4.9-0.1,6.1c-1.1,1.1-3.1,1.5-5.4,1
		C156.9,122.7,148.2,116.3,144,113.7z"/>
	<path class="st13" d="M130.1,95.9c0.1,0.1,13.7,19.6,14.8,18.7c1.8-1.2,5.5-4.1,7.5-5.6c-2.8-1.7-17.3-15.7-19-17.2
		C131.9,91.2,129.1,94.3,130.1,95.9z"/>
	<path class="st13" d="M126.4,142.6c0.1,0,23.9,1.7,23.8,0.2c0.2-2.2,0.3-6.8,0.4-9.3c-3.1,1.1-23.1,3.6-25.3,3.9
		C123.9,138.3,124.6,142.4,126.4,142.6z"/>
	<path class="st14" d="M156.2,133.4c1.5,10.3,14.5,32.3,15.2,33.8c0.8,1.5,1.1,2.2,2,2.4c9.9,3.3,23.5-3.8,17.9-16
		c-3-8.2-9.1-42.6-19.9-40.7C163.7,114.2,154.9,124.7,156.2,133.4z"/>
	<path class="st13" d="M152.2,142c-3.8,3.1-8-2.6-4.2-6.2c3.4-4,10.2-13.9,14.7-15.3c3.3-1.1,5,0.5,5.8,2.1c0.7,1.4,0.4,3.5-0.8,5.5
		C164.9,132.7,156.1,138.9,152.2,142z"/>
	<path class="st15" d="M159.7,87.7"/>
	<path class="st16" d="M174.4,109c-0.3,2.1-0.3,2.3,0,4.5c-0.1,1-4.2,5.1-6.4,3c-0.1-1.4-0.5-5.5-0.7-6.8L174.4,109z"/>
	<g>
		<path class="st17" d="M160.9,87.1c0,0-3,5.9-2.4,7.7c0.6,1.8-1.8,3.5-1.8,3.5s-1.2,0.6-1.2,1.8s1.8,1.2,1.8,1.2v2.4v4.7
			c0,0,0.6,1.8,4.7,1.2s5.3,1.2,5.3,1.2l7.1-0.6l1.2-1.8l2.4-18.3L160.9,87.1z"/>
		<path class="st18" d="M177,109.3c-1.5-0.7-2.8-1.5-3.8-2.7c-0.5-1.2-0.6-2.2,0.3-3.2l2.2-2.1c2.3-2.6-1.6-5-3.9-3.9l-4.8,2.2
			c-1.6,0.3-3-1.9-2.2-4.5c0,0,2-1,1-3.2s-7.5-6.8-7.5-6.8c3-4.3,9.9-7.1,15.6-6.1c7.4,1.2,10.2,6.4,12.4,12.2
			c0.8,3.3-0.1,7.6-2.5,11.3C181.9,105.6,179.7,108,177,109.3z"/>
		<path class="st18" d="M163.5,111.6l-0.2,0c-0.2-0.1-0.4-0.3-0.3-0.5l2.9-13.5c0.1-0.2,0.3-0.4,0.5-0.3l0.2,0
			c0.2,0.1,0.4,0.3,0.3,0.5l-2.9,13.5C164,111.5,163.7,111.6,163.5,111.6z"/>
		<path class="st18" d="M163.5,111.8l-0.1-0.2c-0.1-0.2-0.1-0.5,0.2-0.7l11.9-6.9c0.2-0.1,0.5-0.1,0.7,0.2l0.1,0.2
			c0.1,0.2,0.1,0.5-0.2,0.7l-11.9,6.9C163.9,112.1,163.6,112,163.5,111.8z"/>
		<g>
			<path class="st19" d="M157.1,104.2c0,0.4,3.4,0.8,4.4,0.1"/>
			<path class="st20" d="M158.3,93.3c1.4-0.4,4.5-0.1,5.5,2.4"/>
			<path class="st19" d="M159.9,94.8c0,0.9,1,1.6,2.2,1.6"/>
			<path class="st19" d="M162.1,96.4c-0.1,0.2-1,0.8-2.3,1"/>
		</g>
	</g>
</g>
<path class="st21" d="M220,328.3l-0.6-42.6c0,0,129.7-40.8,171.5-45.5s205.3,11.8,205.3,11.8v75.7L220,328.3z"/>
<path class="st22" d="M596.3,327.9v-51c0,0-163.5-16.6-205.3-11.8c-41.8,4.7-171.5,45.5-171.5,45.5l0.2,17.1L596.3,327.9z"/>
<path class="st4" d="M376.5,194.7c19.8-19.4,52.2-19.6,72.4-0.3"/>
<path class="st4" d="M425.6,181.3c27.6-27.1,68.8-31,92.2-8.8"/>
<path class="st23" d="M277.3,45.4c0-3.8-4.7-2.3-7.1-4.4c-2.7-2.4-3.5-8-9.5-7.7c-8.3,0-10.7-4.1-14.8-4.1c-10.6,0-9.5,5.9-18.3,5.9
	c-5.7,0-11.3,7.6-10.7,10.1h0c0,3.8,4.7,2.3,7.1,4.4c2.7,2.4,3.5,8,9.5,7.7c8.3,0,10.7,4.1,14.8,4.1c10.6,0,9.5-5.9,18.3-5.9
	C272.2,55.5,277.8,47.9,277.3,45.4L277.3,45.4z"/>
<path class="st23" d="M404.4,75.6c0-3.8-4.7-2.3-7.1-4.4c-2.7-2.4-3.5-8-9.5-7.7c-8.3,0-10.7-4.1-14.8-4.1c-10.6,0-9.5,5.9-18.3,5.9
	c-5.7,0-11.3,7.6-10.7,10.1h0c0,3.8,4.7,2.3,7.1,4.4c2.7,2.4,3.5,8,9.5,7.7c8.3,0,10.7,4.1,14.8,4.1c10.6,0,9.5-5.9,18.3-5.9
	C399.3,85.7,405,78.1,404.4,75.6L404.4,75.6z"/>
<path class="st23" d="M547.5,40.8c0-4.7-5.9-2.9-8.9-5.6c-3.4-3-4.4-10-11.9-9.6c-10.4,0-13.5-5.2-18.5-5.2c-13.3,0-11.9,7.4-23,7.4
	c-7.1,0-14.2,9.5-13.5,12.6h-0.1c0,4.7,5.9,2.9,8.9,5.6c3.4,3,4.4,10,11.9,9.6c10.4,0,13.5,5.2,18.5,5.2c13.3,0,11.9-7.4,23-7.4
	C541.1,53.4,548.2,43.8,547.5,40.8L547.5,40.8z"/>
<path class="st21" d="M596.5,327.9v-30.2c0,0-163.8-16.6-205.7-11.8c-34.3,3.9-127.5,31.9-160.3,41.9L596.5,327.9z"/>
<path class="st22" d="M596.3,327.8v-13.6c0,0-163.5-16.6-205.3-11.8c-21.4,2.4-65.6,14.4-103.9,25.4
	C287,327.8,593.2,327.7,596.3,327.8z"/>
<path class="st21" d="M581.8,328.3c0,0-2.1-0.2-5.8-0.6c-28.8-2.9-156.1-15.4-191.6-11.2c-11.6,1.4-30.1,5.7-50.6,11.2L581.8,328.3z
	"/>
<rect x="1.7" y="1.7" class="st24" width="596.5" height="326.3"/>
<g>
</g>
<g>
</g>
<g>
</g>
<g>
</g>
<g>
</g>
<g>
</g>
</svg>
