<svg id="Layer_1_1_" enable-background="new 0 0 64 64" height="512" viewBox="0 0 64 64" width="512" xmlns="http://www.w3.org/2000/svg"><path d="m10.99 29.02-1.4-2.35c-.94-1.57-.69-3.57.6-4.87l6.76-6.8h18.05l9-9 4 4-11 11h-6v11l2 21h-6l-2-19-2 19h-6l2-22v-10l-4 4 4 6-5.05 3z" fill="#91cbd7"/><path d="m32 61h-29v-4.33c4.49-1.83 9.19-3.25 14.05-4.21l-.05.54h6l.16-1.47c1.21-.14 2.42-.25 3.65-.33l.19 1.8h6l-.19-1.98c8.27.08 16.22 1.47 23.67 3.98h-15.48c-1.1 0-2 .9-2 2h-7c-1.1 0-2 .9-2 2 0 .55.22 1.05.59 1.41.36.37.86.59 1.41.59z" fill="#4e9bb9"/><path d="m61 56.67v4.33h-29c-.55 0-1.05-.22-1.41-.59-.37-.36-.59-.86-.59-1.41 0-1.1.9-2 2-2h7c0-1.1.9-2 2-2h15.48c1.53.51 3.04 1.07 4.52 1.67z" fill="#91cbd7"/><path d="m25 22-3-7h3 3z" fill="#ed6571"/><path d="m29.49 12.97c-1.09 1.25-2.7 2.03-4.49 2.03-3.32 0-6-2.68-6-6s2.68-6 6-6 6 2.68 6 6c0 1.53-.57 2.92-1.5 3.97z" fill="#91cbd7"/><path d="m39 40c-.37 1.08-3.14 2.97-6.82 4.34l-1.18-12.34v-11c2 2 5 16 8 19z" fill="#ed6571"/><path d="m25 34 1.25 11.84c-.75.09-1.5.15-2.25.16-.08 0-.16 0-.26 0z" fill="#ed6571"/><path d="m19 21v10l-4-6z" fill="#ed6571"/><path d="m19 32-1.28 13.42c-3.01-.39-6.22-.92-7.72-1.42-3-1-4-3-7-2 0-2 3.23-4.98 4-6 1.71-2.29 2-4.98 3.99-6.98l2.96 4.98 5.05-3z" fill="#ed6571"/><path d="m56.187 3.495c.54 2.116 2.202 3.778 4.318 4.318.2.051.2.322 0 .374-2.116.54-3.778 2.202-4.318 4.318-.051.2-.322.2-.374 0-.54-2.116-2.202-3.778-4.318-4.318-.2-.051-.2-.322 0-.374 2.116-.54 3.778-2.202 4.318-4.318.051-.2.323-.2.374 0z" fill="#ffd086"/><path d="m51.187 16.495c.54 2.116 2.202 3.778 4.318 4.318.2.051.2.322 0 .374-2.116.54-3.778 2.202-4.318 4.318-.051.2-.322.2-.374 0-.54-2.116-2.202-3.778-4.318-4.318-.2-.051-.2-.322 0-.374 2.116-.54 3.778-2.202 4.318-4.318.051-.2.323-.2.374 0z" fill="#ffd086"/><path d="m24 25h2v2h-2z" fill="#68607c"/><path d="m29.374 13.962c-2.493-.316-4.374-2.45-4.374-4.962h2c0 1.508 1.129 2.788 2.626 2.978z" fill="#68607c"/><g fill="#ffe5ca"><path d="m60 23h2v12h-2z"/><path d="m60 37h2v2h-2z"/><path d="m56 26h2v12h-2z"/><path d="m56 40h2v2h-2z"/><path d="m52 29h2v12h-2z"/><path d="m52 43h2v2h-2z"/></g></svg>