<svg xmlns="http://www.w3.org/2000/svg" width="15" height="12.657" viewBox="0 0 15 12.657">
  <path id="Icon_awesome-tasks" data-name="Icon awesome-tasks" d="M4.09,2.351a.352.352,0,0,0-.5,0L1.726,4.206l-.665-.648a.352.352,0,0,0-.5,0L.1,4.019a.352.352,0,0,0,0,.5L1.5,5.905a.374.374,0,0,0,.516,0l.457-.458L4.586,3.333a.354.354,0,0,0,0-.5Zm0,4.664a.352.352,0,0,0-.5,0L1.726,8.882l-.665-.647a.352.352,0,0,0-.5,0l-.46.46a.352.352,0,0,0,0,.5l1.391,1.392a.374.374,0,0,0,.516,0l.46-.46L4.585,8.008a.352.352,0,0,0,0-.5ZM1.875,12.093a1.406,1.406,0,1,0,0,2.813,1.406,1.406,0,1,0,0-2.813Zm12.656.469H6.094a.469.469,0,0,0-.469.469v.938a.469.469,0,0,0,.469.469h8.438A.469.469,0,0,0,15,13.968V13.03A.469.469,0,0,0,14.531,12.561Zm0-9.375H6.094a.469.469,0,0,0-.469.469v.938a.469.469,0,0,0,.469.469h8.438A.469.469,0,0,0,15,4.593V3.655A.469.469,0,0,0,14.531,3.186Zm0,4.688H6.094a.469.469,0,0,0-.469.469V9.28a.469.469,0,0,0,.469.469h8.438A.469.469,0,0,0,15,9.28V8.343A.469.469,0,0,0,14.531,7.874Z" transform="translate(0 -2.248)" fill="#fff"/>
</svg>
