<?xml version="1.0" encoding="UTF-8" standalone="no"?><!DOCTYPE svg PUBLIC "-//W3C//DTD SVG 1.1//EN" "http://www.w3.org/Graphics/SVG/1.1/DTD/svg11.dtd"><svg width="100%" height="100%" viewBox="0 0 798 177" version="1.1" xmlns="http://www.w3.org/2000/svg" xmlns:xlink="http://www.w3.org/1999/xlink" xml:space="preserve" xmlns:serif="http://www.serif.com/" style="fill-rule:evenodd;clip-rule:evenodd;stroke-linejoin:round;stroke-miterlimit:2;"><rect id="Horizontal_Logo_yuoshiblau" x="0" y="0" width="797.628" height="175.801" style="fill:none;"/><clipPath id="_clip1"><rect x="0" y="0" width="797.628" height="175.801"/></clipPath><g clip-path="url(#_clip1)"><g id="Horizontal_Logo_yuoshiblau1" serif:id="Horizontal_Logo_yuoshiblau"><path d="M72.66,129.469c2.74,0.392 5.496,0.534 8.257,0.398c5.648,-0.279 11.056,-1.551 16.205,-3.881c5.002,-2.264 9.434,-5.335 13.278,-9.222c4.198,-4.246 7.396,-9.147 9.579,-14.691c1.692,-4.294 2.626,-8.757 2.95,-13.355c0.24,-3.413 0.201,-6.824 -0.021,-10.235c-0.342,-5.256 -1.099,-10.458 -2.189,-15.614c-1.452,-6.867 -3.452,-13.57 -6.168,-20.058c-2.195,-5.24 -4.806,-10.259 -8.201,-14.85c-2.755,-3.727 -5.913,-7.046 -9.935,-9.469c-3.293,-1.984 -6.836,-3.099 -10.718,-3.043c-3.881,0.057 -7.471,1.172 -10.896,2.891c-3.668,1.842 -6.926,4.264 -9.963,6.988c-4.01,3.599 -7.521,7.642 -10.733,11.948c-4.021,5.389 -7.502,11.108 -10.505,17.112c-3.529,7.054 -6.448,14.333 -8.104,22.068c-0.727,3.395 -1.085,6.825 -1.025,10.303c0.094,5.412 1.166,10.629 3.227,15.637c3.158,7.675 8.106,14 14.83,18.933c6.008,4.409 12.741,7.09 20.132,8.14Z" style="fill:#6a96e2;"/><path d="M0.488,141.994l-0,-138.894l31.453,-0l0,21.018l-10.582,-0l-0,96.858l10.582,0l0,21.018l-31.453,0Z" style="fill:#6a96e2;fill-rule:nonzero;"/><path d="M160.726,141.994l0,-138.894l-31.453,-0l-0,21.018l10.582,-0l0,96.858l-10.582,0l-0,21.018l31.453,0Z" style="fill:#6a96e2;fill-rule:nonzero;"/><path d="M207.987,175.924l-0,-11.289l8.334,-20.965l-34.327,-91.924l-0,-14.716l28.771,-0l21.032,62.694l19.247,-62.694l28.374,-0l0,14.716l-45.438,124.178l-25.993,0Z" style="fill:#6a96e2;fill-rule:nonzero;"/><path d="M346.665,144.971c-16.931,-0 -30.325,-4.3 -40.18,-12.898c-9.855,-8.598 -14.782,-20.437 -14.782,-35.517l-0,-93.456l34.128,-0l0,94.646c0,2.778 0.893,5.49 2.679,8.136c1.786,2.645 4.299,4.596 7.54,5.853c3.241,1.257 6.779,1.885 10.615,1.885c3.837,0 7.408,-0.628 10.715,-1.885c3.307,-1.257 5.82,-3.208 7.54,-5.853c1.72,-2.646 2.58,-5.358 2.58,-8.136l-0,-94.646l34.128,-0l-0,93.456c-0,15.08 -4.927,26.919 -14.782,35.517c-9.855,8.598 -23.249,12.898 -40.181,12.898Z" style="fill:#6a96e2;fill-rule:nonzero;"/><path d="M595.393,144.971c-7.804,-0 -15.146,-1.026 -22.024,-3.076c-6.879,-2.05 -12.898,-5.093 -18.057,-9.127c-5.159,-4.035 -9.193,-9.095 -12.103,-15.179c-2.91,-6.085 -4.366,-12.964 -4.366,-20.636l34.129,-0c-0,3.307 0.926,6.283 2.778,8.929c1.852,2.645 4.894,4.596 9.127,5.853c4.233,1.257 8.598,1.885 13.096,1.885c5.688,0 10.053,-0.959 13.096,-2.877c3.042,-1.918 4.563,-4.597 4.563,-8.036c0,-2.249 -1.091,-4.266 -3.274,-6.052c-2.182,-1.786 -7.903,-4.2 -17.163,-7.242l-22.62,-7.54c-10.45,-3.572 -18.089,-8.632 -22.918,-15.179c-4.828,-6.548 -7.242,-14.121 -7.242,-22.72c0,-13.36 4.762,-24.009 14.286,-31.945c9.525,-7.937 22.422,-11.906 38.692,-11.906c7.673,0 14.783,0.993 21.331,2.977c6.547,1.984 12.169,4.96 16.865,8.929c4.696,3.968 8.367,8.995 11.013,15.08c2.645,6.085 3.968,12.963 3.968,20.635l-34.327,0c0,-3.836 -1.157,-7.077 -3.472,-9.722c-2.315,-2.646 -5.06,-4.399 -8.234,-5.258c-3.175,-0.86 -6.085,-1.29 -8.731,-1.29c-5.159,-0 -9.227,0.959 -12.203,2.877c-2.976,1.918 -4.464,4.531 -4.464,7.838c-0,1.455 0.363,2.91 1.091,4.365c0.728,1.455 2.083,2.712 4.068,3.77c1.984,1.058 4.96,2.249 8.929,3.571l22.024,7.54c14.154,4.763 23.811,10.12 28.97,16.073c5.159,5.952 7.738,13.757 7.738,23.413c0,6.35 -1.124,12.236 -3.373,17.66c-2.249,5.423 -5.622,10.086 -10.12,13.988c-4.497,3.903 -10.218,6.945 -17.163,9.128c-6.945,2.182 -14.915,3.274 -23.91,3.274Z" style="fill:#6a96e2;fill-rule:nonzero;"/><path d="M662.215,141.994l0,-139.886l31.351,-0l-0,39.684c7.275,-4.762 15.344,-7.143 24.207,-7.143c11.641,-0 20.669,3.67 27.085,11.012c6.415,7.342 9.623,17.428 9.623,30.259l-0,66.074l-31.35,0l-0,-64.486c-0,-4.763 -1.158,-8.4 -3.473,-10.914c-2.315,-2.513 -5.324,-3.77 -9.028,-3.77c-2.778,0 -5.787,0.794 -9.028,2.381c-3.241,1.588 -5.92,3.572 -8.036,5.953l-0,70.836l-31.351,0Z" style="fill:#6a96e2;fill-rule:nonzero;"/><path d="M766.765,141.994l0,-104.964l31.351,-0l-0,104.964l-31.351,0Zm0,-117.068l0,-22.818l31.351,-0l-0,22.818l-31.351,0Z" style="fill:#6a96e2;fill-rule:nonzero;"/><path d="M448.013,75.573l-0,20.388c-0,3.174 0.992,6.217 2.976,9.127c1.984,2.91 4.696,5.06 8.135,6.449c3.439,1.389 7.143,2.083 11.112,2.083c7.407,0 12.963,-1.819 16.667,-5.456c3.704,-3.638 5.556,-7.706 5.556,-12.203l-0,-20.32l34.128,17.612l0,1.517c0,15.609 -5.093,27.878 -15.278,36.807c-10.186,8.929 -23.877,13.394 -41.073,13.394c-17.197,-0 -30.888,-4.465 -41.073,-13.394c-10.186,-8.929 -15.279,-21.198 -15.279,-36.807l0,-1.585l34.129,-17.612Zm-34.129,-6.967l0,-17.885c0,-5.821 0.893,-11.707 2.679,-17.66c1.786,-5.952 5.159,-11.64 10.119,-17.064c4.961,-5.423 11.376,-9.425 19.247,-12.004c7.871,-2.58 15.973,-3.87 24.307,-3.87c8.466,0 16.171,1.125 23.116,3.374c6.944,2.248 12.897,5.555 17.858,9.921c4.96,4.365 8.763,9.722 11.409,16.072c2.645,6.349 3.968,13.426 3.968,21.231l0,17.953l-34.128,-17.612l-0,-2.127c-0,-4.498 -1.885,-8.532 -5.655,-12.104c-3.77,-3.571 -9.293,-5.357 -16.568,-5.357c-5.424,-0 -9.921,1.091 -13.493,3.274c-3.571,2.182 -5.919,4.63 -7.044,7.341c-1.124,2.712 -1.686,4.994 -1.686,6.846l-0,2.059l-34.129,17.612Z" style="fill:#6a96e2;fill-rule:nonzero;"/></g></g></svg>