<svg xmlns="http://www.w3.org/2000/svg" width="14.029" height="18.413" viewBox="0 0 14.029 18.413">
  <path id="lock-locked" d="M13.014,15.529a1.754,1.754,0,1,0-1.754-1.754A1.759,1.759,0,0,0,13.014,15.529Zm5.261-7.891H17.4V5.884a4.384,4.384,0,0,0-8.768,0V7.638H7.754A1.759,1.759,0,0,0,6,9.391v8.768a1.759,1.759,0,0,0,1.754,1.754H18.275a1.759,1.759,0,0,0,1.754-1.754V9.391A1.759,1.759,0,0,0,18.275,7.638ZM10.3,5.884a2.718,2.718,0,1,1,5.436,0V7.638H10.3Zm7.979,12.275H7.754V9.391H18.275Z" transform="translate(-6 -1.5)"/>
</svg>
