<svg xmlns="http://www.w3.org/2000/svg" width="80.183" height="22.879" viewBox="0 0 80.183 22.879">
  <g id="Logo-yUOShi" transform="translate(0)">
    <path id="Pfad_5335" data-name="Pfad 5335" d="M66.593-30.295v-1.469l1.085-2.728L63.21-46.455v-1.915h3.744l2.737,8.159,2.5-8.159h3.693v1.915L69.976-30.295Z" transform="translate(-63.21 53.174)" fill="#6a96e2"/>
    <path id="Pfad_5336" data-name="Pfad 5336" d="M108.57-41.724a7.679,7.679,0,0,1-5.229-1.679,5.814,5.814,0,0,1-1.924-4.622V-60.187h4.441v12.318a1.871,1.871,0,0,0,.349,1.059,2.034,2.034,0,0,0,.981.762,3.791,3.791,0,0,0,1.382.245,3.892,3.892,0,0,0,1.394-.245,1.958,1.958,0,0,0,.981-.762,1.92,1.92,0,0,0,.336-1.059V-60.187h4.442v12.163A5.814,5.814,0,0,1,113.8-43.4,7.68,7.68,0,0,1,108.57-41.724Z" transform="translate(-87.139 60.574)" fill="#6a96e2"/>
    <path id="Pfad_5337" data-name="Pfad 5337" d="M194.844-42.373a9.988,9.988,0,0,1-2.866-.4,7.034,7.034,0,0,1-2.35-1.188,5.455,5.455,0,0,1-1.575-1.975,6.145,6.145,0,0,1-.568-2.686h4.441a1.978,1.978,0,0,0,.361,1.162,2.124,2.124,0,0,0,1.188.762,5.956,5.956,0,0,0,1.7.245,3.208,3.208,0,0,0,1.7-.374,1.173,1.173,0,0,0,.594-1.046,1.008,1.008,0,0,0-.426-.788,8.75,8.75,0,0,0-2.234-.943l-2.944-.981a5.964,5.964,0,0,1-2.982-1.975,4.848,4.848,0,0,1-.943-2.957,5.134,5.134,0,0,1,1.86-4.157,7.621,7.621,0,0,1,5.035-1.549,9.535,9.535,0,0,1,2.776.387,6.088,6.088,0,0,1,2.195,1.162,5.274,5.274,0,0,1,1.433,1.963,6.668,6.668,0,0,1,.516,2.686H197.3a1.854,1.854,0,0,0-.452-1.265,2.151,2.151,0,0,0-1.072-.684,4.376,4.376,0,0,0-1.136-.168,2.909,2.909,0,0,0-1.588.374,1.157,1.157,0,0,0-.581,1.02,1.262,1.262,0,0,0,.142.568,1.186,1.186,0,0,0,.53.491,7.987,7.987,0,0,0,1.162.465l2.866.981a8.705,8.705,0,0,1,3.77,2.092,4.486,4.486,0,0,1,1.007,3.047,5.935,5.935,0,0,1-.439,2.3,4.828,4.828,0,0,1-1.317,1.821,6.192,6.192,0,0,1-2.234,1.188A10.381,10.381,0,0,1,194.844-42.373Z" transform="translate(-141.044 61.223)" fill="#6a96e2"/>
    <path id="Pfad_5338" data-name="Pfad 5338" d="M230.449-42.327V-60.532h4.08v5.165a5.631,5.631,0,0,1,3.151-.93,4.432,4.432,0,0,1,3.525,1.433,5.782,5.782,0,0,1,1.252,3.938v8.6h-4.08V-50.72a2.025,2.025,0,0,0-.452-1.42,1.523,1.523,0,0,0-1.175-.491,2.693,2.693,0,0,0-1.175.31,3.347,3.347,0,0,0-1.046.775v9.219Z" transform="translate(-167.952 60.791)" fill="#6a96e2"/>
    <path id="Pfad_5339" data-name="Pfad 5339" d="M266.859-42.327v-13.66h4.08v13.66Zm0-15.235v-2.97h4.08v2.97Z" transform="translate(-190.756 60.791)" fill="#6a96e2"/>
    <path id="Pfad_5340" data-name="Pfad 5340" d="M148.408-51.4v2.653a2.078,2.078,0,0,0,.388,1.188,2.281,2.281,0,0,0,1.059.839,3.826,3.826,0,0,0,1.446.271,2.979,2.979,0,0,0,2.169-.71,2.18,2.18,0,0,0,.723-1.588V-51.4l4.441,2.292v.2a6.039,6.039,0,0,1-1.988,4.79,7.822,7.822,0,0,1-5.345,1.743,7.821,7.821,0,0,1-5.345-1.743,6.04,6.04,0,0,1-1.988-4.79v-.206Zm-4.441-.907v-2.328a7.967,7.967,0,0,1,.349-2.3,5.755,5.755,0,0,1,1.317-2.221,5.738,5.738,0,0,1,2.5-1.562,10.092,10.092,0,0,1,3.163-.5,9.73,9.73,0,0,1,3.008.439,6.5,6.5,0,0,1,2.324,1.291,5.62,5.62,0,0,1,1.485,2.092,7.115,7.115,0,0,1,.516,2.763V-52.3l-4.441-2.292v-.277a2.123,2.123,0,0,0-.736-1.575,3.023,3.023,0,0,0-2.156-.7,3.317,3.317,0,0,0-1.756.426,2.138,2.138,0,0,0-.917.955,2.42,2.42,0,0,0-.22.891v.268Z" transform="translate(-113.788 61.223)" fill="#6a96e2"/>
  </g>
</svg>
