<?xml version="1.0" encoding="utf-8"?>
<!-- Generator: Adobe Illustrator 22.0.1, SVG Export Plug-In . SVG Version: 6.00 Build 0)  -->
<svg version="1.1" id="Ebene_1" xmlns="http://www.w3.org/2000/svg" xmlns:xlink="http://www.w3.org/1999/xlink" x="0px" y="0px"
	 viewBox="0 0 626 343" style="enable-background:new 0 0 626 343;" xml:space="preserve">
<style type="text/css">
	.st0{fill:#92B040;}
	.st1{fill:#A5BF46;}
	.st2{fill:#8EA33C;}
	.st3{fill:#FFFFFF;}
	.st4{fill:#CDCCCC;}
	.st5{fill:#9A9999;}
	.st6{fill:#E7E6E6;}
	.st7{fill:#B4B4B4;}
	.st8{fill:#F2BC98;}
	.st9{fill:none;stroke:#FFFFFF;stroke-width:0.5;stroke-miterlimit:10;}
	.st10{fill:#D7D7D7;}
	.st11{fill:#A2A1A1;}
</style>
<polygon class="st0" points="313.1,342.6 313,0 470.7,0 "/>
<polygon class="st1" points="313,343 626,0 470.7,0 "/>
<polygon class="st2" points="626,0 626,343 313,343 "/>
<polygon class="st0" points="312.9,342.6 313,0 155.3,0 "/>
<polygon class="st1" points="313,343 0,0 155.3,0 "/>
<polygon class="st2" points="0,0 0,343 313,343 "/>
<g>
	<path class="st3" d="M407.7,60.3V44.8h9.4v1.5h-7.7v5.3h6.3v1.5h-6.3v5.6h7.7v1.5H407.7z"/>
	<path class="st3" d="M420.5,44.8l3.9,6.6l3.9-6.6h1.9l-4.8,7.8l4.8,7.6h-1.9l-3.9-6.4l-4,6.4h-1.9l4.8-7.6l-4.8-7.9H420.5z"/>
	<path class="st3" d="M430.9,46.3v-1.5h11.2v1.5h-4.7v13.9h-1.7V46.3H430.9z"/>
	<path class="st3" d="M446,54.3v5.9h-1.7V44.8h5.7c1.6,0,2.9,0.4,3.7,1.1c0.8,0.8,1.2,1.9,1.2,3.6c0,2.4-0.9,3.9-2.8,4.5l3,6.3h-1.9
		l-2.8-5.9H446z M450,52.8c2.1,0,3.2-1.1,3.2-3.3c0-2.2-1.1-3.3-3.2-3.3h-4v6.5H450z"/>
	<path class="st3" d="M458,60.3V44.8h1.7v15.5H458z"/>
	<path class="st3" d="M463.5,60.3V44.8h3.2l5.9,13.9h0.5V44.8h1.7v15.5h-3.2l-6-13.9h-0.4v13.9H463.5z"/>
	<path class="st3" d="M482.9,46.1c-2.2,0-3.4,0.8-3.4,2.5c0,0.9,0.3,1.6,0.8,1.9c0.5,0.3,1.6,0.7,3.1,1c1.6,0.4,2.7,0.8,3.3,1.4
		s1,1.5,1,2.8c0,3.2-1.6,4.8-4.9,4.8c-1.1,0-2.5-0.1-4.1-0.4l-0.8-0.1l0.2-1.4c2,0.3,3.6,0.4,4.6,0.4c2.2,0,3.3-1,3.3-3.1
		c0-0.8-0.2-1.4-0.7-1.8c-0.5-0.4-1.4-0.7-2.7-0.9c-1.7-0.4-3-0.9-3.7-1.4c-0.7-0.6-1.1-1.6-1.1-3c0-2.8,1.7-4.2,5-4.2
		c1.1,0,2.4,0.1,3.9,0.3l0.8,0.1l-0.2,1.5C485.2,46.2,483.7,46.1,482.9,46.1z"/>
	<path class="st3" d="M490.7,60.3V44.8h1.7v15.5H490.7z"/>
	<path class="st3" d="M500.5,46.1c-2.2,0-3.4,0.8-3.4,2.5c0,0.9,0.3,1.6,0.8,1.9c0.5,0.3,1.6,0.7,3.1,1c1.6,0.4,2.7,0.8,3.3,1.4
		s1,1.5,1,2.8c0,3.2-1.6,4.8-4.9,4.8c-1.1,0-2.5-0.1-4.1-0.4l-0.8-0.1l0.2-1.4c2,0.3,3.6,0.4,4.6,0.4c2.2,0,3.3-1,3.3-3.1
		c0-0.8-0.2-1.4-0.7-1.8c-0.5-0.4-1.4-0.7-2.7-0.9c-1.7-0.4-3-0.9-3.7-1.4c-0.7-0.6-1.1-1.6-1.1-3c0-2.8,1.7-4.2,5-4.2
		c1.1,0,2.4,0.1,3.9,0.3L505,45l-0.2,1.5C502.8,46.2,501.4,46.1,500.5,46.1z"/>
	<path class="st3" d="M517.7,60c-1.5,0.3-2.9,0.5-4.1,0.5s-2.2-0.2-3-0.5c-0.8-0.3-1.3-0.9-1.7-1.6c-0.4-0.7-0.7-1.5-0.8-2.4
		c-0.2-0.9-0.2-2.1-0.2-3.4c0-1.4,0.1-2.5,0.2-3.5c0.2-0.9,0.4-1.8,0.8-2.5c0.4-0.7,1-1.2,1.7-1.6c0.7-0.3,1.7-0.5,2.9-0.5
		c1.2,0,2.6,0.2,4.2,0.5l-0.1,1.5c-1.5-0.3-2.8-0.4-4-0.4c-1.6,0-2.7,0.5-3.3,1.5c-0.5,1-0.8,2.6-0.8,5c0,1.2,0,2.1,0.1,2.8
		s0.3,1.4,0.6,1.9c0.3,0.6,0.7,1,1.2,1.2c0.5,0.2,1.3,0.4,2.4,0.4c1,0,2.3-0.1,3.7-0.4L517.7,60z"/>
	<path class="st3" d="M530.1,60.3v-7h-7.9v7h-1.7V44.8h1.7v6.9h7.9v-6.9h1.7v15.5H530.1z"/>
</g>
<polygon class="st4" points="465.2,168 465.2,256.3 527.7,230.8 527.7,165.8 532.1,163.9 532.1,143.5 "/>
<polygon class="st3" points="406.3,143.2 465.2,168 465.2,256.3 410.1,231.7 410.1,165.8 406.2,164.4 "/>
<polygon class="st5" points="465.2,168 532.1,143.5 470.6,128.7 406.3,143.2 "/>
<polygon class="st6" points="458.3,145.7 434.4,136.9 446.4,134.2 471.5,141.9 499.4,135.6 517.2,139.9 469.9,150.7 "/>
<polygon class="st7" points="532.1,143.5 465.2,168 465.2,188.6 532.1,163.9 "/>
<polygon class="st6" points="406.2,143.1 465.4,168.1 465.2,188.6 406.2,164.4 "/>
<polygon class="st6" points="490.9,245.8 505.8,239.7 506,176.8 505.8,153.1 472.3,142.2 459.4,145.5 491.2,158.9 "/>
<polygon class="st6" points="441,245.5 441,179.7 441.2,157.1 471,150.3 456.9,145.2 427.1,152 427.1,174.6 427.1,239.4 "/>
<path class="st8" d="M500.7,215.7c-1.6,0.1-3.4-6.1-3.4-6.1s-1.8-8.3-4.7-7.8c-3,0.5-1.7,6.3-1.7,6.3l1.4,8.9
	c2.7,8,12.6,15.9,14.6,18.3c2,2.4,2.2,31.1,2.2,31.1h21c0,0-2.3-32.9-1.5-38.6c2-7.3,2.6-20.6,2.4-22.5c-0.3-6-2.2-13.9-4.2-16.3
	c-2.8-4-4.8-3.2-5.4-1.4c1.9,5.1,3.3,8.9,3.6,12.1c0,0.9-1.8,1.2-1.7,0.3c-0.2-8.1-1.2-14.9-4.2-18.1c-2.7-2.8-6.4-5-8.1-3.5
	c-1.4,1.9,2.8,4.5,4.5,8.7c1.4,3.6,1.2,7.5,1.9,11.7c0.1,0.9-1.5,1.1-1.6,0.2c-1-9.7-3.3-17.6-6.8-23.9c-1.9-4.5-7.6-1.8-4.5,3.4
	c3.4,5.3,4,11.8,4.7,21c0.1,0.9-1.9,1-2,0.2c-1.5-9.3-2-14.5-6.2-20.6c-2.6-2.9-5.2-1.3-3.9,2.7
	C499.3,187.2,504.2,214.5,500.7,215.7z"/>
<path class="st8" d="M439.5,215.7c1.6,0.1,3.4-6.1,3.4-6.1s1.8-8.3,4.7-7.8c3,0.5,1.7,6.3,1.7,6.3L448,217
	c-2.7,8-12.6,15.9-14.6,18.3c-2,2.4-2.2,31.1-2.2,31.1h-21c0,0,2.3-32.9,1.5-38.6c-2-7.3-2.6-20.6-2.4-22.5c0.3-6,2.2-13.9,4.2-16.3
	c2.8-4,4.8-3.2,5.4-1.4c-1.9,5.1-3.3,8.9-3.6,12.1c0,0.9,1.8,1.2,1.7,0.3c0.2-8.1,1.2-14.9,4.2-18.1c2.7-2.8,6.4-5,8.1-3.5
	c1.4,1.9-2.8,4.5-4.5,8.7c-1.4,3.6-1.2,7.5-1.9,11.7c-0.1,0.9,1.5,1.1,1.6,0.2c1-9.7,3.3-17.6,6.8-23.9c1.9-4.5,7.6-1.8,4.5,3.4
	c-3.4,5.3-4,11.8-4.7,21c-0.1,0.9,1.9,1,2,0.2c1.5-9.3,2-14.5,6.2-20.6c2.6-2.9,5.2-1.3,3.9,2.7C441,187.2,436,214.5,439.5,215.7z"
	/>
<g>
	<path class="st3" d="M96.7,60.3V44.9h1.7v15.5H96.7z"/>
	<path class="st3" d="M102.2,60.3V44.9h3.2l5.9,13.9h0.5V44.9h1.7v15.5h-3.2l-6-13.9h-0.4v13.9H102.2z"/>
	<path class="st3" d="M115.7,46.4v-1.5h11.2v1.5h-4.7v13.9h-1.7V46.4H115.7z"/>
	<path class="st3" d="M130.8,54.4v5.9H129V44.9h5.7c1.6,0,2.9,0.4,3.7,1.1c0.8,0.8,1.2,1.9,1.2,3.6c0,2.4-0.9,3.9-2.8,4.5l3,6.3
		h-1.9l-2.8-5.9H130.8z M134.8,52.9c2.1,0,3.2-1.1,3.2-3.3c0-2.2-1.1-3.3-3.2-3.3h-4v6.5H134.8z"/>
	<path class="st3" d="M142.8,60.3V44.9h1.7v15.5H142.8z"/>
	<path class="st3" d="M148.3,60.3V44.9h3.2l5.9,13.9h0.5V44.9h1.7v15.5h-3.2l-6-13.9H150v13.9H148.3z"/>
	<path class="st3" d="M167.7,46.1c-2.2,0-3.4,0.8-3.4,2.5c0,0.9,0.3,1.6,0.8,1.9c0.5,0.3,1.6,0.7,3.1,1c1.6,0.4,2.7,0.8,3.3,1.4
		s1,1.5,1,2.8c0,3.2-1.6,4.8-4.9,4.8c-1.1,0-2.5-0.1-4.1-0.4l-0.8-0.1l0.2-1.4c2,0.3,3.6,0.4,4.6,0.4c2.2,0,3.3-1,3.3-3.1
		c0-0.8-0.2-1.4-0.7-1.8c-0.5-0.4-1.4-0.7-2.7-0.9c-1.7-0.4-3-0.9-3.7-1.4c-0.7-0.6-1.1-1.6-1.1-3c0-2.8,1.7-4.2,5-4.2
		c1.1,0,2.4,0.1,3.9,0.3l0.8,0.1l-0.2,1.5C170,46.3,168.5,46.1,167.7,46.1z"/>
	<path class="st3" d="M175.5,60.3V44.9h1.7v15.5H175.5z"/>
	<path class="st3" d="M185.3,46.1c-2.2,0-3.4,0.8-3.4,2.5c0,0.9,0.3,1.6,0.8,1.9c0.5,0.3,1.6,0.7,3.1,1c1.6,0.4,2.7,0.8,3.3,1.4
		s1,1.5,1,2.8c0,3.2-1.6,4.8-4.9,4.8c-1.1,0-2.5-0.1-4.1-0.4l-0.8-0.1l0.2-1.4c2,0.3,3.6,0.4,4.6,0.4c2.2,0,3.3-1,3.3-3.1
		c0-0.8-0.2-1.4-0.7-1.8c-0.5-0.4-1.4-0.7-2.7-0.9c-1.7-0.4-3-0.9-3.7-1.4c-0.7-0.6-1.1-1.6-1.1-3c0-2.8,1.7-4.2,5-4.2
		c1.1,0,2.4,0.1,3.9,0.3l0.8,0.1l-0.2,1.5C187.6,46.3,186.1,46.1,185.3,46.1z"/>
	<path class="st3" d="M202.5,60.1c-1.5,0.3-2.9,0.5-4.1,0.5c-1.2,0-2.2-0.2-3-0.5s-1.3-0.9-1.7-1.6c-0.4-0.7-0.7-1.5-0.8-2.4
		c-0.2-0.9-0.2-2.1-0.2-3.4c0-1.4,0.1-2.5,0.2-3.5c0.2-0.9,0.4-1.8,0.8-2.5c0.4-0.7,1-1.2,1.7-1.6c0.7-0.3,1.7-0.5,2.9-0.5
		s2.6,0.2,4.2,0.5l-0.1,1.5c-1.5-0.3-2.8-0.4-4-0.4c-1.6,0-2.7,0.5-3.3,1.5c-0.5,1-0.8,2.6-0.8,5c0,1.2,0,2.1,0.1,2.8
		s0.3,1.4,0.6,1.9c0.3,0.6,0.7,1,1.2,1.2c0.5,0.2,1.3,0.4,2.4,0.4c1,0,2.3-0.1,3.7-0.4L202.5,60.1z"/>
	<path class="st3" d="M214.9,60.3v-7H207v7h-1.7V44.9h1.7v6.9h7.9v-6.9h1.7v15.5H214.9z"/>
</g>
<g>
	<path class="st3" d="M177.4,265.6c1.2-9,3-16,5.9-19.4l22.6,0c3,0.1,11.7-5.1,11.1-10.5c0,0-0.4-3.6-3.1-11.1
		c0.5-4.1,4.4-6.6,4.5-7.7c0.1-1.1-2.8-3.8-3-4.4s3.4-2.5,3.7-4.3c0.3-1.8-2.3-4.9-2.3-4.9l-0.5-2.1c-0.4-1-0.7-2.1-0.8-3.2
		c0.1-1.3,2.1-2.1,5.7-2.5c0,0,5-2.1,5.9-4.5c0.9-2.3-1.4-5.9-1.4-5.9l-18-21.6c-0.5-1.1-0.7-2.2,0-3.1c1.7-3,1.6-6.9,0.2-11.5
		c-3.9-14.3-11.8-25.5-25.4-32.2c-18.6-9.7-45-9.7-66.5,0c-22.8,11.4-33.2,31.9-29.6,58c1.2,9.2,3.8,17.6,8.5,24.9
		c4.9,6.7,9.8,14.3,11.7,22.3c-0.4,13.9-2.4,28.5-5.7,43.8L177.4,265.6z"/>
	<path class="st0" d="M131.4,184.3c0.1-0.5,0.1-1.1,0.2-1.6c0-0.2,0-0.4,0.1-0.5c0-0.1,0-0.1,0.1-0.1c0.4-0.1,0.8-0.2,1.2-0.4
		c0.1,0,0.1,0,0.2,0c0.5,0.5,0.9,1,1.4,1.5c0.1,0.1,0.1,0.1,0.2,0c0.4-0.3,0.8-0.5,1.1-0.8c0.1,0,0.1-0.1,0-0.2
		c-0.3-0.6-0.5-1.3-0.8-1.9c0-0.1,0-0.1,0-0.2c0.3-0.3,0.6-0.6,0.8-0.9c0-0.1,0.1-0.1,0.2-0.1c0.7,0.2,1.3,0.4,2,0.6
		c0.1,0,0.1,0,0.2-0.1c0.2-0.4,0.4-0.8,0.6-1.2c0-0.1,0-0.1,0-0.2c-0.5-0.4-1.1-0.8-1.6-1.2c-0.1-0.1-0.1-0.1-0.1-0.2
		c0.1-0.4,0.2-0.8,0.2-1.2c0-0.1,0.1-0.1,0.1-0.2c0.7-0.2,1.3-0.3,2-0.5c0.1,0,0.1,0,0.1-0.2c0-0.4-0.1-0.9-0.1-1.3
		c0-0.1,0-0.1-0.1-0.1c-0.7-0.1-1.3-0.2-2-0.2c-0.1,0-0.1,0-0.2-0.1c-0.1-0.4-0.2-0.8-0.4-1.1c0-0.1,0-0.1,0-0.2
		c0.5-0.5,1-0.9,1.5-1.4c0.1-0.1,0.1-0.1,0-0.2c-0.3-0.4-0.5-0.8-0.8-1.1c0-0.1-0.1-0.1-0.2,0c-0.6,0.3-1.2,0.5-1.9,0.8
		c-0.1,0-0.1,0-0.2,0c-0.3-0.3-0.6-0.6-0.9-0.8c-0.1-0.1-0.1-0.1-0.1-0.2c0.2-0.6,0.4-1.3,0.6-1.9c0-0.1,0-0.1-0.1-0.2
		c-0.4-0.2-0.8-0.4-1.2-0.6c-0.1,0-0.1,0-0.2,0c-0.4,0.5-0.8,1.1-1.2,1.6c-0.1,0.1-0.1,0.1-0.2,0.1c-0.4-0.1-0.8-0.2-1.1-0.2
		c-0.1,0-0.1,0-0.2-0.2c-0.2-0.7-0.3-1.3-0.5-2c0-0.1-0.1-0.1-0.2-0.1c-0.4,0-0.9,0.1-1.3,0.1c-0.1,0-0.1,0-0.1,0.1
		c-0.1,0.7-0.2,1.3-0.2,2c0,0.1,0,0.1-0.2,0.2c-0.4,0.1-0.8,0.2-1.1,0.4c-0.1,0-0.1,0-0.2,0c-0.5-0.5-0.9-1-1.4-1.5
		c-0.1-0.1-0.1-0.1-0.2,0c-0.4,0.3-0.7,0.5-1.1,0.7c-0.1,0.1-0.1,0.1-0.1,0.2c0.3,0.6,0.5,1.2,0.8,1.9c0,0.1,0,0.1,0,0.2
		c-0.3,0.3-0.6,0.6-0.8,0.9c-0.1,0.1-0.1,0.1-0.2,0.1c-0.6-0.2-1.3-0.4-1.9-0.6c-0.1,0-0.1,0-0.2,0.1c-0.2,0.4-0.4,0.8-0.6,1.2
		c0,0.1,0,0.1,0,0.2c0.5,0.4,1.1,0.8,1.6,1.2c0.1,0.1,0.1,0.1,0.1,0.2c-0.1,0.4-0.2,0.8-0.2,1.2c0,0.1-0.1,0.1-0.1,0.2
		c-0.7,0.2-1.3,0.3-2,0.5c-0.1,0-0.1,0.1-0.1,0.2c0,0.4,0.1,0.9,0.1,1.3c0,0.1,0,0.1,0.1,0.1c0.7,0.1,1.3,0.2,2,0.2
		c0.1,0,0.1,0,0.2,0.2c0.1,0.4,0.2,0.8,0.4,1.1c0,0.1,0,0.1,0,0.2c-0.5,0.5-1,0.9-1.5,1.4c-0.1,0.1-0.1,0.1,0,0.2
		c0.3,0.4,0.5,0.7,0.7,1.1c0,0.1,0.1,0.1,0.2,0c0.6-0.3,1.2-0.5,1.9-0.8c0.1,0,0.1,0,0.2,0c0.3,0.3,0.6,0.6,0.9,0.8
		c0.1,0.1,0.1,0.1,0.1,0.2c-0.2,0.7-0.4,1.3-0.6,2c0,0.1,0,0.1,0.1,0.2c0.4,0.2,0.8,0.4,1.2,0.6c0.1,0,0.1,0,0.2,0
		c0.4-0.5,0.8-1.1,1.2-1.6c0.1-0.1,0.1-0.1,0.2-0.1c0.4,0.1,0.8,0.2,1.1,0.2c0.1,0,0.2,0.1,0.2,0.2c0.2,0.7,0.3,1.3,0.5,2
		c0,0,0,0,0,0.1C130.3,184.4,130.9,184.4,131.4,184.3z"/>
	<path class="st3" d="M124.5,175.3c0.2,3.1,2.8,5.4,5.9,5.2c3.1-0.2,5.4-2.9,5.2-5.9c-0.2-3.1-2.8-5.4-5.9-5.2
		C126.6,169.6,124.3,172.2,124.5,175.3z"/>
	<path class="st0" d="M147.7,176.5c0.1-0.5,0.1-1.1,0.2-1.6c0-0.2,0-0.4,0.1-0.5c0-0.1,0-0.1,0.1-0.1c0.4-0.1,0.8-0.2,1.2-0.4
		c0.1,0,0.1,0,0.2,0c0.5,0.5,0.9,1,1.4,1.5c0.1,0.1,0.1,0.1,0.2,0c0.4-0.3,0.8-0.5,1.1-0.8c0.1,0,0.1-0.1,0-0.2
		c-0.3-0.6-0.5-1.3-0.8-1.9c0-0.1,0-0.1,0-0.2c0.3-0.3,0.6-0.6,0.8-0.9c0-0.1,0.1-0.1,0.2-0.1c0.7,0.2,1.3,0.4,2,0.6
		c0.1,0,0.1,0,0.2-0.1c0.2-0.4,0.4-0.8,0.6-1.2c0-0.1,0-0.1,0-0.2c-0.5-0.4-1.1-0.8-1.6-1.2c-0.1-0.1-0.1-0.1-0.1-0.2
		c0.1-0.4,0.2-0.8,0.2-1.2c0-0.1,0.1-0.1,0.1-0.2c0.7-0.2,1.3-0.3,2-0.5c0.1,0,0.1,0,0.1-0.2c0-0.4-0.1-0.9-0.1-1.3
		c0-0.1,0-0.1-0.1-0.1c-0.7-0.1-1.3-0.2-2-0.2c-0.1,0-0.1,0-0.2-0.1c-0.1-0.4-0.2-0.8-0.4-1.1c0-0.1,0-0.1,0-0.2
		c0.5-0.5,1-0.9,1.5-1.4c0.1-0.1,0.1-0.1,0-0.2c-0.3-0.4-0.5-0.8-0.8-1.1c0-0.1-0.1-0.1-0.2,0c-0.6,0.3-1.2,0.5-1.9,0.8
		c-0.1,0-0.1,0-0.2,0c-0.3-0.3-0.6-0.6-0.9-0.8c-0.1-0.1-0.1-0.1-0.1-0.2c0.2-0.6,0.4-1.3,0.6-1.9c0-0.1,0-0.1-0.1-0.2
		c-0.4-0.2-0.8-0.4-1.2-0.6c-0.1,0-0.1,0-0.2,0c-0.4,0.5-0.8,1.1-1.2,1.6c-0.1,0.1-0.1,0.1-0.2,0.1c-0.4-0.1-0.8-0.2-1.1-0.2
		c-0.1,0-0.1,0-0.2-0.2c-0.2-0.7-0.3-1.3-0.5-2c0-0.1-0.1-0.1-0.2-0.1c-0.4,0-0.9,0.1-1.3,0.1c-0.1,0-0.1,0-0.1,0.1
		c-0.1,0.7-0.2,1.3-0.2,2c0,0.1,0,0.1-0.2,0.2c-0.4,0.1-0.8,0.2-1.1,0.4c-0.1,0-0.1,0-0.2,0c-0.5-0.5-0.9-1-1.4-1.5
		c-0.1-0.1-0.1-0.1-0.2,0c-0.4,0.3-0.7,0.5-1.1,0.7c-0.1,0.1-0.1,0.1-0.1,0.2c0.3,0.6,0.5,1.2,0.8,1.9c0,0.1,0,0.1,0,0.2
		c-0.3,0.3-0.6,0.6-0.8,0.9c-0.1,0.1-0.1,0.1-0.2,0.1c-0.6-0.2-1.3-0.4-1.9-0.6c-0.1,0-0.1,0-0.2,0.1c-0.2,0.4-0.4,0.8-0.6,1.2
		c0,0.1,0,0.1,0,0.2c0.5,0.4,1.1,0.8,1.6,1.2c0.1,0.1,0.1,0.1,0.1,0.2c-0.1,0.4-0.2,0.8-0.2,1.2c0,0.1-0.1,0.1-0.1,0.2
		c-0.7,0.2-1.3,0.3-2,0.5c-0.1,0-0.1,0.1-0.1,0.2c0,0.4,0.1,0.9,0.1,1.3c0,0.1,0,0.1,0.1,0.1c0.7,0.1,1.3,0.2,2,0.2
		c0.1,0,0.1,0,0.2,0.2c0.1,0.4,0.2,0.8,0.4,1.1c0,0.1,0,0.1,0,0.2c-0.5,0.5-1,0.9-1.5,1.4c-0.1,0.1-0.1,0.1,0,0.2
		c0.3,0.4,0.5,0.7,0.7,1.1c0,0.1,0.1,0.1,0.2,0c0.6-0.3,1.2-0.5,1.9-0.8c0.1,0,0.1,0,0.2,0c0.3,0.3,0.6,0.6,0.9,0.8
		c0.1,0.1,0.1,0.1,0.1,0.2c-0.2,0.7-0.4,1.3-0.6,2c0,0.1,0,0.1,0.1,0.2c0.4,0.2,0.8,0.4,1.2,0.6c0.1,0,0.1,0,0.2,0
		c0.4-0.5,0.8-1.1,1.2-1.6c0.1-0.1,0.1-0.1,0.2-0.1c0.4,0.1,0.8,0.2,1.1,0.2c0.1,0,0.2,0.1,0.2,0.2c0.2,0.7,0.3,1.3,0.5,2
		c0,0,0,0,0,0.1C146.7,176.6,147.2,176.5,147.7,176.5z"/>
	<path class="st3" d="M140.8,167.5c0.2,3.1,2.8,5.4,5.9,5.2c3.1-0.2,5.4-2.9,5.2-5.9c-0.2-3.1-2.8-5.4-5.9-5.2
		C142.9,161.7,140.6,164.4,140.8,167.5z"/>
	<path class="st0" d="M163.9,168.4c0.1-0.5,0.1-1.1,0.2-1.6c0-0.2,0-0.4,0.1-0.5c0-0.1,0-0.1,0.1-0.1c0.4-0.1,0.8-0.2,1.2-0.4
		c0.1,0,0.1,0,0.2,0c0.5,0.5,0.9,1,1.4,1.5c0.1,0.1,0.1,0.1,0.2,0c0.4-0.3,0.8-0.5,1.1-0.8c0.1,0,0.1-0.1,0-0.2
		c-0.3-0.6-0.5-1.3-0.8-1.9c0-0.1,0-0.1,0-0.2c0.3-0.3,0.6-0.6,0.8-0.9c0-0.1,0.1-0.1,0.2-0.1c0.7,0.2,1.3,0.4,2,0.6
		c0.1,0,0.1,0,0.2-0.1c0.2-0.4,0.4-0.8,0.6-1.2c0-0.1,0-0.1,0-0.2c-0.5-0.4-1.1-0.8-1.6-1.2c-0.1-0.1-0.1-0.1-0.1-0.2
		c0.1-0.4,0.2-0.8,0.2-1.2c0-0.1,0.1-0.1,0.1-0.2c0.7-0.2,1.3-0.3,2-0.5c0.1,0,0.1,0,0.1-0.2c0-0.4-0.1-0.9-0.1-1.3
		c0-0.1,0-0.1-0.1-0.1c-0.7-0.1-1.3-0.2-2-0.2c-0.1,0-0.1,0-0.2-0.1c-0.1-0.4-0.2-0.8-0.4-1.1c0-0.1,0-0.1,0-0.2
		c0.5-0.5,1-0.9,1.5-1.4c0.1-0.1,0.1-0.1,0-0.2c-0.3-0.4-0.5-0.8-0.8-1.1c0-0.1-0.1-0.1-0.2,0c-0.6,0.3-1.2,0.5-1.9,0.8
		c-0.1,0-0.1,0-0.2,0c-0.3-0.3-0.6-0.6-0.9-0.8c-0.1-0.1-0.1-0.1-0.1-0.2c0.2-0.6,0.4-1.3,0.6-1.9c0-0.1,0-0.1-0.1-0.2
		c-0.4-0.2-0.8-0.4-1.2-0.6c-0.1,0-0.1,0-0.2,0c-0.4,0.5-0.8,1.1-1.2,1.6c-0.1,0.1-0.1,0.1-0.2,0.1c-0.4-0.1-0.8-0.2-1.1-0.2
		c-0.1,0-0.1,0-0.2-0.2c-0.2-0.7-0.3-1.3-0.5-2c0-0.1-0.1-0.1-0.2-0.1c-0.4,0-0.9,0.1-1.3,0.1c-0.1,0-0.1,0-0.1,0.1
		c-0.1,0.7-0.2,1.3-0.2,2c0,0.1,0,0.1-0.2,0.2c-0.4,0.1-0.8,0.2-1.1,0.4c-0.1,0-0.1,0-0.2,0c-0.5-0.5-0.9-1-1.4-1.5
		c-0.1-0.1-0.1-0.1-0.2,0c-0.4,0.3-0.7,0.5-1.1,0.7c-0.1,0.1-0.1,0.1-0.1,0.2c0.3,0.6,0.5,1.2,0.8,1.9c0,0.1,0,0.1,0,0.2
		c-0.3,0.3-0.6,0.6-0.8,0.9c-0.1,0.1-0.1,0.1-0.2,0.1c-0.6-0.2-1.3-0.4-1.9-0.6c-0.1,0-0.1,0-0.2,0.1c-0.2,0.4-0.4,0.8-0.6,1.2
		c0,0.1,0,0.1,0,0.2c0.5,0.4,1.1,0.8,1.6,1.2c0.1,0.1,0.1,0.1,0.1,0.2c-0.1,0.4-0.2,0.8-0.2,1.2c0,0.1-0.1,0.1-0.1,0.2
		c-0.7,0.2-1.3,0.3-2,0.5c-0.1,0-0.1,0.1-0.1,0.2c0,0.4,0.1,0.9,0.1,1.3c0,0.1,0,0.1,0.1,0.1c0.7,0.1,1.3,0.2,2,0.2
		c0.1,0,0.1,0,0.2,0.2c0.1,0.4,0.2,0.8,0.4,1.1c0,0.1,0,0.1,0,0.2c-0.5,0.5-1,0.9-1.5,1.4c-0.1,0.1-0.1,0.1,0,0.2
		c0.3,0.4,0.5,0.7,0.7,1.1c0,0.1,0.1,0.1,0.2,0c0.6-0.3,1.2-0.5,1.9-0.8c0.1,0,0.1,0,0.2,0c0.3,0.3,0.6,0.6,0.9,0.8
		c0.1,0.1,0.1,0.1,0.1,0.2c-0.2,0.7-0.4,1.3-0.6,2c0,0.1,0,0.1,0.1,0.2c0.4,0.2,0.8,0.4,1.2,0.6c0.1,0,0.1,0,0.2,0
		c0.4-0.5,0.8-1.1,1.2-1.6c0.1-0.1,0.1-0.1,0.2-0.1c0.4,0.1,0.8,0.2,1.1,0.2c0.1,0,0.2,0.1,0.2,0.2c0.2,0.7,0.3,1.3,0.5,2
		c0,0,0,0,0,0.1C162.8,168.5,163.3,168.4,163.9,168.4z"/>
	<path class="st3" d="M156.9,159.4c0.2,3.1,2.8,5.4,5.9,5.2c3.1-0.2,5.4-2.9,5.2-5.9c-0.2-3.1-2.8-5.4-5.9-5.2
		C159.1,153.7,156.7,156.3,156.9,159.4z"/>
	<path class="st0" d="M170.7,150.1c0.1-0.5,0.1-1.1,0.2-1.6c0-0.2,0-0.4,0.1-0.5c0-0.1,0-0.1,0.1-0.1c0.4-0.1,0.8-0.2,1.2-0.4
		c0.1,0,0.1,0,0.2,0c0.5,0.5,0.9,1,1.4,1.5c0.1,0.1,0.1,0.1,0.2,0c0.4-0.3,0.8-0.5,1.1-0.8c0.1,0,0.1-0.1,0-0.2
		c-0.3-0.6-0.5-1.3-0.8-1.9c0-0.1,0-0.1,0-0.2c0.3-0.3,0.6-0.6,0.8-0.9c0-0.1,0.1-0.1,0.2-0.1c0.7,0.2,1.3,0.4,2,0.6
		c0.1,0,0.1,0,0.2-0.1c0.2-0.4,0.4-0.8,0.6-1.2c0-0.1,0-0.1,0-0.2c-0.5-0.4-1.1-0.8-1.6-1.2c-0.1-0.1-0.1-0.1-0.1-0.2
		c0.1-0.4,0.2-0.8,0.2-1.2c0-0.1,0.1-0.1,0.1-0.2c0.7-0.2,1.3-0.3,2-0.5c0.1,0,0.1,0,0.1-0.2c0-0.4-0.1-0.9-0.1-1.3
		c0-0.1,0-0.1-0.1-0.1c-0.7-0.1-1.3-0.2-2-0.2c-0.1,0-0.1,0-0.2-0.1c-0.1-0.4-0.2-0.8-0.4-1.1c0-0.1,0-0.1,0-0.2
		c0.5-0.5,1-0.9,1.5-1.4c0.1-0.1,0.1-0.1,0-0.2c-0.3-0.4-0.5-0.8-0.8-1.1c0-0.1-0.1-0.1-0.2,0c-0.6,0.3-1.2,0.5-1.9,0.8
		c-0.1,0-0.1,0-0.2,0c-0.3-0.3-0.6-0.6-0.9-0.8c-0.1-0.1-0.1-0.1-0.1-0.2c0.2-0.6,0.4-1.3,0.6-1.9c0-0.1,0-0.1-0.1-0.2
		c-0.4-0.2-0.8-0.4-1.2-0.6c-0.1,0-0.1,0-0.2,0c-0.4,0.5-0.8,1.1-1.2,1.6c-0.1,0.1-0.1,0.1-0.2,0.1c-0.4-0.1-0.8-0.2-1.1-0.2
		c-0.1,0-0.1,0-0.2-0.2c-0.2-0.7-0.3-1.3-0.5-2c0-0.1-0.1-0.1-0.2-0.1c-0.4,0-0.9,0.1-1.3,0.1c-0.1,0-0.1,0-0.1,0.1
		c-0.1,0.7-0.2,1.3-0.2,2c0,0.1,0,0.1-0.2,0.2c-0.4,0.1-0.8,0.2-1.1,0.4c-0.1,0-0.1,0-0.2,0c-0.5-0.5-0.9-1-1.4-1.5
		c-0.1-0.1-0.1-0.1-0.2,0c-0.4,0.3-0.7,0.5-1.1,0.7c-0.1,0.1-0.1,0.1-0.1,0.2c0.3,0.6,0.5,1.2,0.8,1.9c0,0.1,0,0.1,0,0.2
		c-0.3,0.3-0.6,0.6-0.8,0.9c-0.1,0.1-0.1,0.1-0.2,0.1c-0.6-0.2-1.3-0.4-1.9-0.6c-0.1,0-0.1,0-0.2,0.1c-0.2,0.4-0.4,0.8-0.6,1.2
		c0,0.1,0,0.1,0,0.2c0.5,0.4,1.1,0.8,1.6,1.2c0.1,0.1,0.1,0.1,0.1,0.2c-0.1,0.4-0.2,0.8-0.2,1.2c0,0.1-0.1,0.1-0.1,0.2
		c-0.7,0.2-1.3,0.3-2,0.5c-0.1,0-0.1,0.1-0.1,0.2c0,0.4,0.1,0.9,0.1,1.3c0,0.1,0,0.1,0.1,0.1c0.7,0.1,1.3,0.2,2,0.2
		c0.1,0,0.1,0,0.2,0.2c0.1,0.4,0.2,0.8,0.4,1.1c0,0.1,0,0.1,0,0.2c-0.5,0.5-1,0.9-1.5,1.4c-0.1,0.1-0.1,0.1,0,0.2
		c0.3,0.4,0.5,0.7,0.7,1.1c0,0.1,0.1,0.1,0.2,0c0.6-0.3,1.2-0.5,1.9-0.8c0.1,0,0.1,0,0.2,0c0.3,0.3,0.6,0.6,0.9,0.8
		c0.1,0.1,0.1,0.1,0.1,0.2c-0.2,0.7-0.4,1.3-0.6,2c0,0.1,0,0.1,0.1,0.2c0.4,0.2,0.8,0.4,1.2,0.6c0.1,0,0.1,0,0.2,0
		c0.4-0.5,0.8-1.1,1.2-1.6c0.1-0.1,0.1-0.1,0.2-0.1c0.4,0.1,0.8,0.2,1.1,0.2c0.1,0,0.2,0.1,0.2,0.2c0.2,0.7,0.3,1.3,0.5,2
		c0,0,0,0,0,0.1C169.7,150.1,170.2,150.1,170.7,150.1z"/>
	<path class="st3" d="M163.8,141c0.2,3.1,2.8,5.4,5.9,5.2c3.1-0.2,5.4-2.9,5.2-5.9c-0.2-3.1-2.8-5.4-5.9-5.2
		C166,135.3,163.6,138,163.8,141z"/>
	<path class="st0" d="M155.2,142.1c0.1-0.5,0.1-1.1,0.2-1.6c0-0.2,0-0.4,0.1-0.5c0-0.1,0-0.1,0.1-0.1c0.4-0.1,0.8-0.2,1.2-0.4
		c0.1,0,0.1,0,0.2,0c0.5,0.5,0.9,1,1.4,1.5c0.1,0.1,0.1,0.1,0.2,0c0.4-0.3,0.8-0.5,1.1-0.8c0.1,0,0.1-0.1,0-0.2
		c-0.3-0.6-0.5-1.3-0.8-1.9c0-0.1,0-0.1,0-0.2c0.3-0.3,0.6-0.6,0.8-0.9c0-0.1,0.1-0.1,0.2-0.1c0.7,0.2,1.3,0.4,2,0.6
		c0.1,0,0.1,0,0.2-0.1c0.2-0.4,0.4-0.8,0.6-1.2c0-0.1,0-0.1,0-0.2c-0.5-0.4-1.1-0.8-1.6-1.2c-0.1-0.1-0.1-0.1-0.1-0.2
		c0.1-0.4,0.2-0.8,0.2-1.2c0-0.1,0.1-0.1,0.1-0.2c0.7-0.2,1.3-0.3,2-0.5c0.1,0,0.1,0,0.1-0.2c0-0.4-0.1-0.9-0.1-1.3
		c0-0.1,0-0.1-0.1-0.1c-0.7-0.1-1.3-0.2-2-0.2c-0.1,0-0.1,0-0.2-0.1c-0.1-0.4-0.2-0.8-0.4-1.1c0-0.1,0-0.1,0-0.2
		c0.5-0.5,1-0.9,1.5-1.4c0.1-0.1,0.1-0.1,0-0.2c-0.3-0.4-0.5-0.8-0.8-1.1c0-0.1-0.1-0.1-0.2,0c-0.6,0.3-1.2,0.5-1.9,0.8
		c-0.1,0-0.1,0-0.2,0c-0.3-0.3-0.6-0.6-0.9-0.8c-0.1-0.1-0.1-0.1-0.1-0.2c0.2-0.6,0.4-1.3,0.6-1.9c0-0.1,0-0.1-0.1-0.2
		c-0.4-0.2-0.8-0.4-1.2-0.6c-0.1,0-0.1,0-0.2,0c-0.4,0.5-0.8,1.1-1.2,1.6c-0.1,0.1-0.1,0.1-0.2,0.1c-0.4-0.1-0.8-0.2-1.1-0.2
		c-0.1,0-0.1,0-0.2-0.2c-0.2-0.7-0.3-1.3-0.5-2c0-0.1-0.1-0.1-0.2-0.1c-0.4,0-0.9,0.1-1.3,0.1c-0.1,0-0.1,0-0.1,0.1
		c-0.1,0.7-0.2,1.3-0.2,2c0,0.1,0,0.1-0.2,0.2c-0.4,0.1-0.8,0.2-1.1,0.4c-0.1,0-0.1,0-0.2,0c-0.5-0.5-0.9-1-1.4-1.5
		c-0.1-0.1-0.1-0.1-0.2,0c-0.4,0.3-0.7,0.5-1.1,0.7c-0.1,0.1-0.1,0.1-0.1,0.2c0.3,0.6,0.5,1.2,0.8,1.9c0,0.1,0,0.1,0,0.2
		c-0.3,0.3-0.6,0.6-0.8,0.9c-0.1,0.1-0.1,0.1-0.2,0.1c-0.6-0.2-1.3-0.4-1.9-0.6c-0.1,0-0.1,0-0.2,0.1c-0.2,0.4-0.4,0.8-0.6,1.2
		c0,0.1,0,0.1,0,0.2c0.5,0.4,1.1,0.8,1.6,1.2c0.1,0.1,0.1,0.1,0.1,0.2c-0.1,0.4-0.2,0.8-0.2,1.2c0,0.1-0.1,0.1-0.1,0.2
		c-0.7,0.2-1.3,0.3-2,0.5c-0.1,0-0.1,0.1-0.1,0.2c0,0.4,0.1,0.9,0.1,1.3c0,0.1,0,0.1,0.1,0.1c0.7,0.1,1.3,0.2,2,0.2
		c0.1,0,0.1,0,0.2,0.2c0.1,0.4,0.2,0.8,0.4,1.1c0,0.1,0,0.1,0,0.2c-0.5,0.5-1,0.9-1.5,1.4c-0.1,0.1-0.1,0.1,0,0.2
		c0.3,0.4,0.5,0.7,0.7,1.1c0,0.1,0.1,0.1,0.2,0c0.6-0.3,1.2-0.5,1.9-0.8c0.1,0,0.1,0,0.2,0c0.3,0.3,0.6,0.6,0.9,0.8
		c0.1,0.1,0.1,0.1,0.1,0.2c-0.2,0.7-0.4,1.3-0.6,2c0,0.1,0,0.1,0.1,0.2c0.4,0.2,0.8,0.4,1.2,0.6c0.1,0,0.1,0,0.2,0
		c0.4-0.5,0.8-1.1,1.2-1.6c0.1-0.1,0.1-0.1,0.2-0.1c0.4,0.1,0.8,0.2,1.1,0.2c0.1,0,0.2,0.1,0.2,0.2c0.2,0.7,0.3,1.3,0.5,2
		c0,0,0,0,0,0.1C154.2,142.2,154.7,142.1,155.2,142.1z"/>
	<path class="st3" d="M148.3,133.1c0.2,3.1,2.8,5.4,5.9,5.2c3.1-0.2,5.4-2.9,5.2-5.9c-0.2-3.1-2.8-5.4-5.9-5.2
		C150.5,127.4,148.1,130,148.3,133.1z"/>
	<path class="st0" d="M149.3,158.6c0.1-0.5,0.1-1.1,0.2-1.6c0-0.2,0-0.4,0.1-0.5c0-0.1,0-0.1,0.1-0.1c0.4-0.1,0.8-0.2,1.2-0.4
		c0.1,0,0.1,0,0.2,0c0.5,0.5,0.9,1,1.4,1.5c0.1,0.1,0.1,0.1,0.2,0c0.4-0.3,0.8-0.5,1.1-0.8c0.1,0,0.1-0.1,0-0.2
		c-0.3-0.6-0.5-1.3-0.8-1.9c0-0.1,0-0.1,0-0.2c0.3-0.3,0.6-0.6,0.8-0.9c0-0.1,0.1-0.1,0.2-0.1c0.7,0.2,1.3,0.4,2,0.6
		c0.1,0,0.1,0,0.2-0.1c0.2-0.4,0.4-0.8,0.6-1.2c0-0.1,0-0.1,0-0.2c-0.5-0.4-1.1-0.8-1.6-1.2c-0.1-0.1-0.1-0.1-0.1-0.2
		c0.1-0.4,0.2-0.8,0.2-1.2c0-0.1,0.1-0.1,0.1-0.2c0.7-0.2,1.3-0.3,2-0.5c0.1,0,0.1,0,0.1-0.2c0-0.4-0.1-0.9-0.1-1.3
		c0-0.1,0-0.1-0.1-0.1c-0.7-0.1-1.3-0.2-2-0.2c-0.1,0-0.1,0-0.2-0.1c-0.1-0.4-0.2-0.8-0.4-1.1c0-0.1,0-0.1,0-0.2
		c0.5-0.5,1-0.9,1.5-1.4c0.1-0.1,0.1-0.1,0-0.2c-0.3-0.4-0.5-0.8-0.8-1.1c0-0.1-0.1-0.1-0.2,0c-0.6,0.3-1.2,0.5-1.9,0.8
		c-0.1,0-0.1,0-0.2,0c-0.3-0.3-0.6-0.6-0.9-0.8c-0.1-0.1-0.1-0.1-0.1-0.2c0.2-0.6,0.4-1.3,0.6-1.9c0-0.1,0-0.1-0.1-0.2
		c-0.4-0.2-0.8-0.4-1.2-0.6c-0.1,0-0.1,0-0.2,0c-0.4,0.5-0.8,1.1-1.2,1.6c-0.1,0.1-0.1,0.1-0.2,0.1c-0.4-0.1-0.8-0.2-1.1-0.2
		c-0.1,0-0.1-0.1-0.2-0.2c-0.2-0.7-0.3-1.3-0.5-2c0-0.1-0.1-0.1-0.2-0.1c-0.4,0-0.9,0.1-1.3,0.1c-0.1,0-0.1,0-0.1,0.1
		c-0.1,0.7-0.2,1.3-0.2,2c0,0.1,0,0.1-0.2,0.2c-0.4,0.1-0.8,0.2-1.1,0.4c-0.1,0-0.1,0-0.2,0c-0.5-0.5-0.9-1-1.4-1.5
		c-0.1-0.1-0.1-0.1-0.2,0c-0.4,0.3-0.7,0.5-1.1,0.7c-0.1,0.1-0.1,0.1-0.1,0.2c0.3,0.6,0.5,1.2,0.8,1.9c0,0.1,0,0.1,0,0.2
		c-0.3,0.3-0.6,0.6-0.8,0.9c-0.1,0.1-0.1,0.1-0.2,0.1c-0.6-0.2-1.3-0.4-1.9-0.6c-0.1,0-0.1,0-0.2,0.1c-0.2,0.4-0.4,0.8-0.6,1.2
		c0,0.1,0,0.1,0,0.2c0.5,0.4,1.1,0.8,1.6,1.2c0.1,0.1,0.1,0.1,0.1,0.2c-0.1,0.4-0.2,0.8-0.2,1.2c0,0.1-0.1,0.1-0.1,0.2
		c-0.7,0.2-1.3,0.3-2,0.5c-0.1,0-0.1,0.1-0.1,0.2c0,0.4,0.1,0.9,0.1,1.3c0,0.1,0,0.1,0.1,0.1c0.7,0.1,1.3,0.2,2,0.2
		c0.1,0,0.1,0,0.2,0.2c0.1,0.4,0.2,0.8,0.4,1.1c0,0.1,0,0.1,0,0.2c-0.5,0.5-1,0.9-1.5,1.4c-0.1,0.1-0.1,0.1,0,0.2
		c0.3,0.4,0.5,0.7,0.7,1.1c0,0.1,0.1,0.1,0.2,0c0.6-0.3,1.2-0.5,1.9-0.8c0.1,0,0.1,0,0.2,0c0.3,0.3,0.6,0.6,0.9,0.8
		c0.1,0.1,0.1,0.1,0.1,0.2c-0.2,0.7-0.4,1.3-0.6,2c0,0.1,0,0.1,0.1,0.2c0.4,0.2,0.8,0.4,1.2,0.6c0.1,0,0.1,0,0.2,0
		c0.4-0.5,0.8-1.1,1.2-1.6c0.1-0.1,0.1-0.1,0.2-0.1c0.4,0.1,0.8,0.2,1.1,0.2c0.1,0,0.2,0.1,0.2,0.2c0.2,0.7,0.3,1.3,0.5,2
		c0,0,0,0,0,0.1C148.3,158.6,148.8,158.6,149.3,158.6z"/>
	<path class="st3" d="M142.4,149.5c0.2,3.1,2.8,5.4,5.9,5.2c3.1-0.2,5.4-2.9,5.2-5.9c-0.2-3.1-2.8-5.4-5.9-5.2
		C144.5,143.8,142.2,146.5,142.4,149.5z"/>
	<path class="st0" d="M132.6,166.7c0.1-0.5,0.1-1.1,0.2-1.6c0-0.2,0-0.4,0.1-0.5c0-0.1,0-0.1,0.1-0.1c0.4-0.1,0.8-0.2,1.2-0.4
		c0.1,0,0.1,0,0.2,0c0.5,0.5,0.9,1,1.4,1.5c0.1,0.1,0.1,0.1,0.2,0c0.4-0.3,0.8-0.5,1.1-0.8c0.1,0,0.1-0.1,0-0.2
		c-0.3-0.6-0.5-1.3-0.8-1.9c0-0.1,0-0.1,0-0.2c0.3-0.3,0.6-0.6,0.8-0.9c0-0.1,0.1-0.1,0.2-0.1c0.7,0.2,1.3,0.4,2,0.6
		c0.1,0,0.1,0,0.2-0.1c0.2-0.4,0.4-0.8,0.6-1.2c0-0.1,0-0.1,0-0.2c-0.5-0.4-1.1-0.8-1.6-1.2c-0.1-0.1-0.1-0.1-0.1-0.2
		c0.1-0.4,0.2-0.8,0.2-1.2c0-0.1,0.1-0.1,0.1-0.2c0.7-0.2,1.3-0.3,2-0.5c0.1,0,0.1,0,0.1-0.2c0-0.4-0.1-0.9-0.1-1.3
		c0-0.1,0-0.1-0.1-0.1c-0.7-0.1-1.3-0.2-2-0.2c-0.1,0-0.1,0-0.2-0.1c-0.1-0.4-0.2-0.8-0.4-1.1c0-0.1,0-0.1,0-0.2
		c0.5-0.5,1-0.9,1.5-1.4c0.1-0.1,0.1-0.1,0-0.2c-0.3-0.4-0.5-0.8-0.8-1.1c0-0.1-0.1-0.1-0.2,0c-0.6,0.3-1.2,0.5-1.9,0.8
		c-0.1,0-0.1,0-0.2,0c-0.3-0.3-0.6-0.6-0.9-0.8c-0.1-0.1-0.1-0.1-0.1-0.2c0.2-0.6,0.4-1.3,0.6-1.9c0-0.1,0-0.1-0.1-0.2
		c-0.4-0.2-0.8-0.4-1.2-0.6c-0.1,0-0.1,0-0.2,0c-0.4,0.5-0.8,1.1-1.2,1.6c-0.1,0.1-0.1,0.1-0.2,0.1c-0.4-0.1-0.8-0.2-1.1-0.2
		c-0.1,0-0.1-0.1-0.2-0.2c-0.2-0.7-0.3-1.3-0.5-2c0-0.1-0.1-0.1-0.2-0.1c-0.4,0-0.9,0.1-1.3,0.1c-0.1,0-0.1,0-0.1,0.1
		c-0.1,0.7-0.2,1.3-0.2,2c0,0.1,0,0.1-0.2,0.2c-0.4,0.1-0.8,0.2-1.1,0.4c-0.1,0-0.1,0-0.2,0c-0.5-0.5-0.9-1-1.4-1.5
		c-0.1-0.1-0.1-0.1-0.2,0c-0.4,0.3-0.7,0.5-1.1,0.7c-0.1,0.1-0.1,0.1-0.1,0.2c0.3,0.6,0.5,1.2,0.8,1.9c0,0.1,0,0.1,0,0.2
		c-0.3,0.3-0.6,0.6-0.8,0.9c-0.1,0.1-0.1,0.1-0.2,0.1c-0.6-0.2-1.3-0.4-1.9-0.6c-0.1,0-0.1,0-0.2,0.1c-0.2,0.4-0.4,0.8-0.6,1.2
		c0,0.1,0,0.1,0,0.2c0.5,0.4,1.1,0.8,1.6,1.2c0.1,0.1,0.1,0.1,0.1,0.2c-0.1,0.4-0.2,0.8-0.2,1.2c0,0.1-0.1,0.1-0.1,0.2
		c-0.7,0.2-1.3,0.3-2,0.5c-0.1,0-0.1,0.1-0.1,0.2c0,0.4,0.1,0.9,0.1,1.3c0,0.1,0,0.1,0.1,0.1c0.7,0.1,1.3,0.2,2,0.2
		c0.1,0,0.1,0,0.2,0.2c0.1,0.4,0.2,0.8,0.4,1.1c0,0.1,0,0.1,0,0.2c-0.5,0.5-1,0.9-1.5,1.4c-0.1,0.1-0.1,0.1,0,0.2
		c0.3,0.4,0.5,0.7,0.7,1.1c0,0.1,0.1,0.1,0.2,0c0.6-0.3,1.2-0.5,1.9-0.8c0.1,0,0.1,0,0.2,0c0.3,0.3,0.6,0.6,0.9,0.8
		c0.1,0.1,0.1,0.1,0.1,0.2c-0.2,0.7-0.4,1.3-0.6,2c0,0.1,0,0.1,0.1,0.2c0.4,0.2,0.8,0.4,1.2,0.6c0.1,0,0.1,0,0.2,0
		c0.4-0.5,0.8-1.1,1.2-1.6c0.1-0.1,0.1-0.1,0.2-0.1c0.4,0.1,0.8,0.2,1.1,0.2c0.1,0,0.2,0.1,0.2,0.2c0.2,0.7,0.3,1.3,0.5,2
		c0,0,0,0,0,0.1C131.6,166.8,132.1,166.8,132.6,166.7z"/>
	<path class="st3" d="M125.7,157.7c0.2,3.1,2.8,5.4,5.9,5.2c3.1-0.2,5.4-2.9,5.2-5.9c-0.2-3.1-2.8-5.4-5.9-5.2
		C127.9,152,125.5,154.6,125.7,157.7z"/>
	<path class="st0" d="M124.8,151.1c0.1-0.5,0.1-1.1,0.2-1.6c0-0.2,0-0.4,0.1-0.5c0-0.1,0-0.1,0.1-0.1c0.4-0.1,0.8-0.2,1.2-0.4
		c0.1,0,0.1,0,0.2,0c0.5,0.5,0.9,1,1.4,1.5c0.1,0.1,0.1,0.1,0.2,0c0.4-0.3,0.8-0.5,1.1-0.8c0.1,0,0.1-0.1,0-0.2
		c-0.3-0.6-0.5-1.3-0.8-1.9c0-0.1,0-0.1,0-0.2c0.3-0.3,0.6-0.6,0.8-0.9c0-0.1,0.1-0.1,0.2-0.1c0.7,0.2,1.3,0.4,2,0.6
		c0.1,0,0.1,0,0.2-0.1c0.2-0.4,0.4-0.8,0.6-1.2c0-0.1,0-0.1,0-0.2c-0.5-0.4-1.1-0.8-1.6-1.2c-0.1-0.1-0.1-0.1-0.1-0.2
		c0.1-0.4,0.2-0.8,0.2-1.2c0-0.1,0.1-0.1,0.1-0.2c0.7-0.2,1.3-0.3,2-0.5c0.1,0,0.1,0,0.1-0.2c0-0.4-0.1-0.9-0.1-1.3
		c0-0.1,0-0.1-0.1-0.1c-0.7-0.1-1.3-0.2-2-0.2c-0.1,0-0.1,0-0.2-0.1c-0.1-0.4-0.2-0.8-0.4-1.1c0-0.1,0-0.1,0-0.2
		c0.5-0.5,1-0.9,1.5-1.4c0.1-0.1,0.1-0.1,0-0.2c-0.3-0.4-0.5-0.8-0.8-1.1c0-0.1-0.1-0.1-0.2,0c-0.6,0.3-1.2,0.5-1.9,0.8
		c-0.1,0-0.1,0-0.2,0c-0.3-0.3-0.6-0.6-0.9-0.8c-0.1-0.1-0.1-0.1-0.1-0.2c0.2-0.6,0.4-1.3,0.6-1.9c0-0.1,0-0.1-0.1-0.2
		c-0.4-0.2-0.8-0.4-1.2-0.6c-0.1,0-0.1,0-0.2,0c-0.4,0.5-0.8,1.1-1.2,1.6c-0.1,0.1-0.1,0.1-0.2,0.1c-0.4-0.1-0.8-0.2-1.1-0.2
		c-0.1,0-0.1-0.1-0.2-0.2c-0.2-0.7-0.3-1.3-0.5-2c0-0.1-0.1-0.1-0.2-0.1c-0.4,0-0.9,0.1-1.3,0.1c-0.1,0-0.1,0-0.1,0.1
		c-0.1,0.7-0.2,1.3-0.2,2c0,0.1,0,0.1-0.2,0.2c-0.4,0.1-0.8,0.2-1.1,0.4c-0.1,0-0.1,0-0.2,0c-0.5-0.5-0.9-1-1.4-1.5
		c-0.1-0.1-0.1-0.1-0.2,0c-0.4,0.3-0.7,0.5-1.1,0.7c-0.1,0.1-0.1,0.1-0.1,0.2c0.3,0.6,0.5,1.2,0.8,1.9c0,0.1,0,0.1,0,0.2
		c-0.3,0.3-0.6,0.6-0.8,0.9c-0.1,0.1-0.1,0.1-0.2,0.1c-0.6-0.2-1.3-0.4-1.9-0.6c-0.1,0-0.1,0-0.2,0.1c-0.2,0.4-0.4,0.8-0.6,1.2
		c0,0.1,0,0.1,0,0.2c0.5,0.4,1.1,0.8,1.6,1.2c0.1,0.1,0.1,0.1,0.1,0.2c-0.1,0.4-0.2,0.8-0.2,1.2c0,0.1-0.1,0.1-0.1,0.2
		c-0.7,0.2-1.3,0.3-2,0.5c-0.1,0-0.1,0.1-0.1,0.2c0,0.4,0.1,0.9,0.1,1.3c0,0.1,0,0.1,0.1,0.1c0.7,0.1,1.3,0.2,2,0.2
		c0.1,0,0.1,0,0.2,0.2c0.1,0.4,0.2,0.8,0.4,1.1c0,0.1,0,0.1,0,0.2c-0.5,0.5-1,0.9-1.5,1.4c-0.1,0.1-0.1,0.1,0,0.2
		c0.3,0.4,0.5,0.7,0.7,1.1c0,0.1,0.1,0.1,0.2,0c0.6-0.3,1.2-0.5,1.9-0.8c0.1,0,0.1,0,0.2,0c0.3,0.3,0.6,0.6,0.9,0.8
		c0.1,0.1,0.1,0.1,0.1,0.2c-0.2,0.7-0.4,1.3-0.6,2c0,0.1,0,0.1,0.1,0.2c0.4,0.2,0.8,0.4,1.2,0.6c0.1,0,0.1,0,0.2,0
		c0.4-0.5,0.8-1.1,1.2-1.6c0.1-0.1,0.1-0.1,0.2-0.1c0.4,0.1,0.8,0.2,1.1,0.2c0.1,0,0.2,0.1,0.2,0.2c0.2,0.7,0.3,1.3,0.5,2
		c0,0,0,0,0,0.1C123.8,151.2,124.3,151.2,124.8,151.1z"/>
	<path class="st3" d="M117.9,142.1c0.2,3.1,2.8,5.4,5.9,5.2c3.1-0.2,5.4-2.9,5.2-5.9c-0.2-3.1-2.8-5.4-5.9-5.2
		C120,136.4,117.7,139,117.9,142.1z"/>
	<path class="st0" d="M115.2,164.3c0.1-0.5,0.1-1,0.2-1.4c0-0.2,0-0.3,0.1-0.5c0-0.1,0-0.1,0.1-0.1c0.4-0.1,0.7-0.2,1.1-0.4
		c0.1,0,0.1,0,0.1,0c0.4,0.4,0.8,0.9,1.2,1.3c0.1,0.1,0.1,0.1,0.2,0c0.3-0.2,0.7-0.5,1-0.7c0.1,0,0.1-0.1,0-0.1
		c-0.2-0.6-0.5-1.1-0.7-1.7c0-0.1,0-0.1,0-0.2c0.3-0.2,0.5-0.5,0.7-0.8c0-0.1,0.1-0.1,0.2,0c0.6,0.2,1.2,0.3,1.8,0.5
		c0.1,0,0.1,0,0.1-0.1c0.2-0.4,0.4-0.7,0.5-1.1c0-0.1,0-0.1,0-0.1c-0.5-0.4-1-0.7-1.5-1.1c-0.1,0-0.1-0.1-0.1-0.2
		c0.1-0.3,0.2-0.7,0.2-1c0-0.1,0-0.1,0.1-0.1c0.6-0.1,1.2-0.3,1.7-0.4c0.1,0,0.1,0,0.1-0.1c0-0.4-0.1-0.8-0.1-1.2
		c0-0.1,0-0.1-0.1-0.1c-0.6-0.1-1.2-0.1-1.8-0.2c-0.1,0-0.1,0-0.2-0.1c-0.1-0.3-0.2-0.7-0.3-1c0-0.1,0-0.1,0-0.2
		c0.4-0.4,0.9-0.8,1.3-1.2c0.1-0.1,0.1-0.1,0-0.2c-0.2-0.3-0.4-0.7-0.7-1c0-0.1-0.1-0.1-0.1,0c-0.6,0.2-1.1,0.5-1.7,0.7
		c-0.1,0-0.1,0-0.2,0c-0.2-0.3-0.5-0.5-0.8-0.7c-0.1,0-0.1-0.1-0.1-0.2c0.2-0.6,0.3-1.2,0.5-1.7c0-0.1,0-0.1-0.1-0.2
		c-0.4-0.2-0.7-0.4-1.1-0.5c-0.1,0-0.1,0-0.1,0c-0.4,0.5-0.7,1-1.1,1.5c-0.1,0.1-0.1,0.1-0.2,0.1c-0.3-0.1-0.7-0.2-1-0.2
		c-0.1,0-0.1,0-0.2-0.1c-0.1-0.6-0.3-1.2-0.4-1.7c0-0.1-0.1-0.1-0.1-0.1c-0.4,0-0.8,0.1-1.2,0.1c-0.1,0-0.1,0-0.1,0.1
		c-0.1,0.6-0.1,1.2-0.2,1.8c0,0.1,0,0.1-0.1,0.2c-0.3,0.1-0.7,0.2-1,0.3c-0.1,0-0.1,0-0.2,0c-0.4-0.4-0.8-0.9-1.2-1.3
		c-0.1-0.1-0.1-0.1-0.2,0c-0.3,0.2-0.7,0.4-1,0.7c-0.1,0-0.1,0.1-0.1,0.2c0.2,0.6,0.5,1.1,0.7,1.7c0,0.1,0,0.1,0,0.2
		c-0.3,0.2-0.5,0.5-0.7,0.8c-0.1,0.1-0.1,0.1-0.2,0.1c-0.6-0.2-1.1-0.3-1.7-0.5c-0.1,0-0.1,0-0.2,0.1c-0.2,0.4-0.4,0.7-0.5,1.1
		c0,0.1,0,0.1,0,0.1c0.5,0.4,1,0.7,1.5,1.1c0.1,0,0.1,0.1,0.1,0.2c-0.1,0.3-0.2,0.7-0.2,1c0,0.1,0,0.1-0.1,0.1
		c-0.6,0.1-1.2,0.3-1.7,0.4c-0.1,0-0.1,0-0.1,0.1c0,0.4,0.1,0.8,0.1,1.2c0,0.1,0,0.1,0.1,0.1c0.6,0.1,1.2,0.1,1.8,0.2
		c0.1,0,0.1,0,0.2,0.1c0.1,0.3,0.2,0.7,0.3,1c0,0.1,0,0.1,0,0.2c-0.4,0.4-0.9,0.8-1.3,1.2c-0.1,0.1-0.1,0.1,0,0.2
		c0.2,0.3,0.4,0.7,0.7,1c0,0.1,0.1,0.1,0.1,0c0.6-0.2,1.1-0.5,1.7-0.7c0.1,0,0.1,0,0.2,0c0.2,0.3,0.5,0.5,0.8,0.7
		c0.1,0,0.1,0.1,0.1,0.2c-0.2,0.6-0.3,1.2-0.5,1.7c0,0.1,0,0.1,0.1,0.1c0.4,0.2,0.7,0.4,1.1,0.5c0.1,0,0.1,0,0.1,0
		c0.4-0.5,0.7-1,1.1-1.5c0-0.1,0.1-0.1,0.2-0.1c0.3,0.1,0.7,0.2,1,0.2c0.1,0,0.1,0.1,0.2,0.2c0.1,0.6,0.3,1.2,0.4,1.8c0,0,0,0,0,0.1
		C114.3,164.4,114.7,164.3,115.2,164.3z"/>
	<path class="st3" d="M109,156.3c0.2,2.7,2.5,4.8,5.3,4.7c2.7-0.2,4.8-2.5,4.7-5.3c-0.2-2.7-2.5-4.8-5.3-4.7
		C111,151.2,108.9,153.5,109,156.3z"/>
	<path class="st0" d="M139.2,137.6c0-0.4,0.1-0.7,0.1-1.1c0-0.1,0-0.2,0-0.4c0,0,0-0.1,0.1-0.1c0.3-0.1,0.6-0.2,0.8-0.3
		c0.1,0,0.1,0,0.1,0c0.3,0.3,0.6,0.7,1,1c0,0,0.1,0.1,0.1,0c0.3-0.2,0.5-0.3,0.8-0.5c0.1,0,0.1-0.1,0-0.1c-0.2-0.4-0.4-0.9-0.6-1.3
		c0-0.1,0-0.1,0-0.1c0.2-0.2,0.4-0.4,0.6-0.6c0,0,0.1-0.1,0.1,0c0.4,0.1,0.9,0.3,1.4,0.4c0.1,0,0.1,0,0.1,0c0.1-0.3,0.3-0.6,0.4-0.8
		c0-0.1,0-0.1,0-0.1c-0.4-0.3-0.8-0.6-1.1-0.8c-0.1,0-0.1-0.1,0-0.1c0.1-0.3,0.1-0.5,0.2-0.8c0-0.1,0-0.1,0.1-0.1
		c0.4-0.1,0.9-0.2,1.3-0.3c0.1,0,0.1,0,0.1-0.1c0-0.3,0-0.6-0.1-0.9c0-0.1,0-0.1-0.1-0.1c-0.5,0-0.9-0.1-1.4-0.2
		c-0.1,0-0.1,0-0.1-0.1c-0.1-0.3-0.1-0.5-0.3-0.8c0-0.1,0-0.1,0-0.1c0.3-0.3,0.7-0.6,1-1c0,0,0.1-0.1,0-0.1
		c-0.2-0.3-0.3-0.5-0.5-0.8c0,0-0.1-0.1-0.1,0c-0.4,0.2-0.9,0.4-1.3,0.6c-0.1,0-0.1,0-0.1,0c-0.2-0.2-0.4-0.4-0.6-0.5
		c0,0-0.1-0.1,0-0.1c0.1-0.4,0.3-0.9,0.4-1.3c0-0.1,0-0.1-0.1-0.1c-0.3-0.1-0.5-0.3-0.8-0.4c-0.1,0-0.1,0-0.1,0
		c-0.3,0.4-0.6,0.7-0.8,1.1c0,0.1-0.1,0.1-0.1,0c-0.3-0.1-0.5-0.1-0.8-0.2c-0.1,0-0.1,0-0.1-0.1c-0.1-0.4-0.2-0.9-0.3-1.3
		c0-0.1,0-0.1-0.1-0.1c-0.3,0-0.6,0-0.9,0.1c-0.1,0-0.1,0-0.1,0.1c0,0.5-0.1,0.9-0.2,1.4c0,0.1,0,0.1-0.1,0.1
		c-0.3,0.1-0.5,0.1-0.8,0.3c-0.1,0-0.1,0-0.1,0c-0.3-0.3-0.6-0.7-1-1c0,0-0.1-0.1-0.1,0c-0.3,0.2-0.5,0.3-0.8,0.5
		c-0.1,0-0.1,0.1,0,0.1c0.2,0.4,0.4,0.9,0.6,1.3c0,0.1,0,0.1,0,0.1c-0.2,0.2-0.4,0.4-0.5,0.6c0,0.1-0.1,0.1-0.1,0
		c-0.4-0.1-0.9-0.3-1.3-0.4c-0.1,0-0.1,0-0.1,0c-0.1,0.3-0.3,0.6-0.4,0.8c0,0.1,0,0.1,0,0.1c0.4,0.3,0.8,0.6,1.1,0.8
		c0.1,0,0.1,0.1,0,0.1c-0.1,0.3-0.1,0.5-0.2,0.8c0,0.1,0,0.1-0.1,0.1c-0.4,0.1-0.9,0.2-1.3,0.3c-0.1,0-0.1,0-0.1,0.1
		c0,0.3,0,0.6,0.1,0.9c0,0.1,0,0.1,0.1,0.1c0.5,0,0.9,0.1,1.4,0.2c0.1,0,0.1,0,0.1,0.1c0.1,0.3,0.1,0.5,0.3,0.8c0,0.1,0,0.1,0,0.1
		c-0.3,0.3-0.7,0.6-1,1c0,0-0.1,0.1,0,0.1c0.2,0.3,0.3,0.5,0.5,0.8c0,0.1,0.1,0.1,0.1,0c0.4-0.2,0.9-0.4,1.3-0.6c0.1,0,0.1,0,0.1,0
		c0.2,0.2,0.4,0.4,0.6,0.5c0.1,0,0.1,0.1,0,0.1c-0.1,0.4-0.3,0.9-0.4,1.3c0,0.1,0,0.1,0,0.1c0.3,0.1,0.6,0.3,0.8,0.4
		c0.1,0,0.1,0,0.1,0c0.3-0.4,0.6-0.8,0.8-1.1c0-0.1,0.1-0.1,0.1,0c0.3,0.1,0.5,0.1,0.8,0.2c0.1,0,0.1,0,0.1,0.1
		c0.1,0.5,0.2,0.9,0.3,1.4c0,0,0,0,0,0.1C138.5,137.6,138.9,137.6,139.2,137.6z"/>
	<path class="st3" d="M134.5,131.4c0.1,2.1,2,3.7,4.1,3.6c2.1-0.1,3.7-2,3.6-4.1c-0.1-2.1-2-3.7-4.1-3.6
		C136,127.4,134.3,129.3,134.5,131.4z"/>
	<path class="st0" d="M119,171.9c0-0.3,0.1-0.5,0.1-0.8c0-0.1,0-0.2,0-0.3c0,0,0,0,0-0.1c0.2,0,0.4-0.1,0.6-0.2c0,0,0.1,0,0.1,0
		c0.2,0.2,0.4,0.5,0.7,0.7c0,0,0,0,0.1,0c0.2-0.1,0.4-0.2,0.5-0.4c0,0,0,0,0-0.1c-0.1-0.3-0.3-0.6-0.4-0.9c0,0,0-0.1,0-0.1
		c0.1-0.1,0.3-0.3,0.4-0.4c0,0,0,0,0.1,0c0.3,0.1,0.6,0.2,0.9,0.3c0,0,0.1,0,0.1,0c0.1-0.2,0.2-0.4,0.3-0.6c0,0,0-0.1,0-0.1
		c-0.3-0.2-0.5-0.4-0.8-0.6c0,0,0,0,0-0.1c0.1-0.2,0.1-0.4,0.1-0.5c0,0,0-0.1,0.1-0.1c0.3-0.1,0.6-0.1,0.9-0.2c0,0,0.1,0,0.1-0.1
		c0-0.2,0-0.4,0-0.6c0,0,0-0.1-0.1-0.1c-0.3,0-0.6-0.1-0.9-0.1c0,0-0.1,0-0.1-0.1c0-0.2-0.1-0.4-0.2-0.5c0,0,0-0.1,0-0.1
		c0.2-0.2,0.5-0.4,0.7-0.7c0,0,0,0,0-0.1c-0.1-0.2-0.2-0.4-0.4-0.5c0,0,0,0-0.1,0c-0.3,0.1-0.6,0.3-0.9,0.4c0,0-0.1,0-0.1,0
		c-0.1-0.1-0.3-0.3-0.4-0.4c0,0,0,0,0-0.1c0.1-0.3,0.2-0.6,0.3-0.9c0-0.1,0-0.1,0-0.1c-0.2-0.1-0.4-0.2-0.6-0.3c0,0-0.1,0-0.1,0
		c-0.2,0.3-0.4,0.5-0.6,0.8c0,0-0.1,0-0.1,0c-0.2-0.1-0.4-0.1-0.5-0.1c0,0-0.1,0-0.1-0.1c-0.1-0.3-0.1-0.6-0.2-0.9
		c0,0,0-0.1-0.1-0.1c-0.2,0-0.4,0-0.6,0c0,0-0.1,0-0.1,0.1c0,0.3-0.1,0.6-0.1,0.9c0,0,0,0.1-0.1,0.1c-0.2,0-0.4,0.1-0.5,0.2
		c0,0-0.1,0-0.1,0c-0.2-0.2-0.4-0.5-0.7-0.7c0,0-0.1,0-0.1,0c-0.2,0.1-0.3,0.2-0.5,0.3c0,0,0,0,0,0.1c0.1,0.3,0.3,0.6,0.4,0.9
		c0,0,0,0.1,0,0.1c-0.1,0.1-0.3,0.3-0.4,0.4c0,0-0.1,0-0.1,0c-0.3-0.1-0.6-0.2-0.9-0.3c0,0-0.1,0-0.1,0c-0.1,0.2-0.2,0.4-0.3,0.6
		c0,0,0,0.1,0,0.1c0.3,0.2,0.5,0.4,0.8,0.6c0,0,0,0,0,0.1c-0.1,0.2-0.1,0.4-0.1,0.5c0,0,0,0.1-0.1,0.1c-0.3,0.1-0.6,0.1-0.9,0.2
		c0,0-0.1,0-0.1,0.1c0,0.2,0,0.4,0,0.6c0,0,0,0.1,0.1,0.1c0.3,0,0.6,0.1,0.9,0.1c0,0,0.1,0,0.1,0.1c0,0.2,0.1,0.4,0.2,0.5
		c0,0,0,0.1,0,0.1c-0.2,0.2-0.5,0.4-0.7,0.7c0,0,0,0.1,0,0.1c0.1,0.2,0.2,0.3,0.3,0.5c0,0,0,0,0.1,0c0.3-0.1,0.6-0.3,0.9-0.4
		c0,0,0.1,0,0.1,0c0.1,0.1,0.3,0.3,0.4,0.4c0,0,0,0,0,0.1c-0.1,0.3-0.2,0.6-0.3,0.9c0,0,0,0.1,0,0.1c0.2,0.1,0.4,0.2,0.6,0.3
		c0,0,0.1,0,0.1,0c0.2-0.3,0.4-0.5,0.6-0.8c0,0,0,0,0.1,0c0.2,0.1,0.4,0.1,0.5,0.1c0.1,0,0.1,0,0.1,0.1c0.1,0.3,0.1,0.6,0.2,0.9
		c0,0,0,0,0,0C118.5,171.9,118.8,171.9,119,171.9z"/>
	<path class="st3" d="M115.8,167.7c0.1,1.4,1.3,2.5,2.8,2.4c1.4-0.1,2.5-1.3,2.4-2.8c-0.1-1.4-1.3-2.5-2.8-2.4
		C116.8,165,115.7,166.2,115.8,167.7z"/>
	<path class="st0" d="M178.7,154.9c0-0.3,0.1-0.5,0.1-0.8c0-0.1,0-0.2,0-0.3c0,0,0,0,0-0.1c0.2,0,0.4-0.1,0.6-0.2c0,0,0.1,0,0.1,0
		c0.2,0.2,0.4,0.5,0.7,0.7c0,0,0,0,0.1,0c0.2-0.1,0.4-0.2,0.5-0.4c0,0,0,0,0-0.1c-0.1-0.3-0.3-0.6-0.4-0.9c0,0,0-0.1,0-0.1
		c0.1-0.1,0.3-0.3,0.4-0.4c0,0,0,0,0.1,0c0.3,0.1,0.6,0.2,0.9,0.3c0,0,0.1,0,0.1,0c0.1-0.2,0.2-0.4,0.3-0.6c0,0,0-0.1,0-0.1
		c-0.3-0.2-0.5-0.4-0.8-0.6c0,0,0,0,0-0.1c0.1-0.2,0.1-0.4,0.1-0.5c0,0,0-0.1,0.1-0.1c0.3-0.1,0.6-0.1,0.9-0.2c0,0,0.1,0,0.1-0.1
		c0-0.2,0-0.4,0-0.6c0,0,0-0.1-0.1-0.1c-0.3,0-0.6-0.1-0.9-0.1c0,0-0.1,0-0.1-0.1c0-0.2-0.1-0.4-0.2-0.5c0,0,0-0.1,0-0.1
		c0.2-0.2,0.5-0.4,0.7-0.7c0,0,0,0,0-0.1c-0.1-0.2-0.2-0.4-0.4-0.5c0,0,0,0-0.1,0c-0.3,0.1-0.6,0.3-0.9,0.4c0,0-0.1,0-0.1,0
		c-0.1-0.1-0.3-0.3-0.4-0.4c0,0,0,0,0-0.1c0.1-0.3,0.2-0.6,0.3-0.9c0-0.1,0-0.1,0-0.1c-0.2-0.1-0.4-0.2-0.6-0.3c0,0-0.1,0-0.1,0
		c-0.2,0.3-0.4,0.5-0.6,0.8c0,0-0.1,0-0.1,0c-0.2-0.1-0.4-0.1-0.5-0.1c0,0-0.1,0-0.1-0.1c-0.1-0.3-0.1-0.6-0.2-0.9
		c0,0,0-0.1-0.1-0.1c-0.2,0-0.4,0-0.6,0c0,0-0.1,0-0.1,0.1c0,0.3-0.1,0.6-0.1,0.9c0,0,0,0.1-0.1,0.1c-0.2,0-0.4,0.1-0.5,0.2
		c0,0-0.1,0-0.1,0c-0.2-0.2-0.4-0.5-0.7-0.7c0,0-0.1,0-0.1,0c-0.2,0.1-0.3,0.2-0.5,0.3c0,0,0,0,0,0.1c0.1,0.3,0.3,0.6,0.4,0.9
		c0,0,0,0.1,0,0.1c-0.1,0.1-0.3,0.3-0.4,0.4c0,0-0.1,0-0.1,0c-0.3-0.1-0.6-0.2-0.9-0.3c0,0-0.1,0-0.1,0c-0.1,0.2-0.2,0.4-0.3,0.6
		c0,0,0,0.1,0,0.1c0.3,0.2,0.5,0.4,0.8,0.6c0,0,0,0,0,0.1c-0.1,0.2-0.1,0.4-0.1,0.5c0,0,0,0.1-0.1,0.1c-0.3,0.1-0.6,0.1-0.9,0.2
		c0,0-0.1,0-0.1,0.1c0,0.2,0,0.4,0,0.6c0,0,0,0.1,0.1,0.1c0.3,0,0.6,0.1,0.9,0.1c0,0,0.1,0,0.1,0.1c0,0.2,0.1,0.4,0.2,0.5
		c0,0,0,0.1,0,0.1c-0.2,0.2-0.5,0.4-0.7,0.7c0,0,0,0.1,0,0.1c0.1,0.2,0.2,0.3,0.3,0.5c0,0,0,0,0.1,0c0.3-0.1,0.6-0.3,0.9-0.4
		c0,0,0.1,0,0.1,0c0.1,0.1,0.3,0.3,0.4,0.4c0,0,0,0,0,0.1c-0.1,0.3-0.2,0.6-0.3,0.9c0,0,0,0.1,0,0.1c0.2,0.1,0.4,0.2,0.6,0.3
		c0,0,0.1,0,0.1,0c0.2-0.3,0.4-0.5,0.6-0.8c0,0,0,0,0.1,0c0.2,0.1,0.4,0.1,0.5,0.1c0.1,0,0.1,0,0.1,0.1c0.1,0.3,0.1,0.6,0.2,0.9
		c0,0,0,0,0,0C178.2,155,178.5,154.9,178.7,154.9z"/>
	<path class="st3" d="M175.5,150.7c0.1,1.4,1.3,2.5,2.8,2.4c1.4-0.1,2.5-1.3,2.4-2.8c-0.1-1.4-1.3-2.5-2.8-2.4
		C176.5,148,175.4,149.3,175.5,150.7z"/>
	<path class="st0" d="M175.8,162.9c0-0.3,0.1-0.5,0.1-0.8c0-0.1,0-0.2,0-0.3c0,0,0,0,0-0.1c0.2,0,0.4-0.1,0.6-0.2c0,0,0.1,0,0.1,0
		c0.2,0.2,0.4,0.5,0.7,0.7c0,0,0,0,0.1,0c0.2-0.1,0.4-0.2,0.5-0.4c0,0,0,0,0-0.1c-0.1-0.3-0.3-0.6-0.4-0.9c0,0,0-0.1,0-0.1
		c0.1-0.1,0.3-0.3,0.4-0.4c0,0,0,0,0.1,0c0.3,0.1,0.6,0.2,0.9,0.3c0,0,0.1,0,0.1,0c0.1-0.2,0.2-0.4,0.3-0.6c0,0,0-0.1,0-0.1
		c-0.3-0.2-0.5-0.4-0.8-0.6c0,0,0,0,0-0.1c0.1-0.2,0.1-0.4,0.1-0.5c0,0,0-0.1,0.1-0.1c0.3-0.1,0.6-0.1,0.9-0.2c0,0,0.1,0,0.1-0.1
		c0-0.2,0-0.4,0-0.6c0,0,0-0.1-0.1-0.1c-0.3,0-0.6-0.1-0.9-0.1c0,0-0.1,0-0.1-0.1c0-0.2-0.1-0.4-0.2-0.5c0,0,0-0.1,0-0.1
		c0.2-0.2,0.5-0.4,0.7-0.7c0,0,0,0,0-0.1c-0.1-0.2-0.2-0.4-0.4-0.5c0,0,0,0-0.1,0c-0.3,0.1-0.6,0.3-0.9,0.4c0,0-0.1,0-0.1,0
		c-0.1-0.1-0.3-0.3-0.4-0.4c0,0,0,0,0-0.1c0.1-0.3,0.2-0.6,0.3-0.9c0-0.1,0-0.1,0-0.1c-0.2-0.1-0.4-0.2-0.6-0.3c0,0-0.1,0-0.1,0
		c-0.2,0.3-0.4,0.5-0.6,0.8c0,0-0.1,0-0.1,0c-0.2-0.1-0.4-0.1-0.5-0.1c0,0-0.1,0-0.1-0.1c-0.1-0.3-0.1-0.6-0.2-0.9
		c0,0,0-0.1-0.1-0.1c-0.2,0-0.4,0-0.6,0c0,0-0.1,0-0.1,0.1c0,0.3-0.1,0.6-0.1,0.9c0,0,0,0.1-0.1,0.1c-0.2,0-0.4,0.1-0.5,0.2
		c0,0-0.1,0-0.1,0c-0.2-0.2-0.4-0.5-0.7-0.7c0,0-0.1,0-0.1,0c-0.2,0.1-0.3,0.2-0.5,0.3c0,0,0,0,0,0.1c0.1,0.3,0.3,0.6,0.4,0.9
		c0,0,0,0.1,0,0.1c-0.1,0.1-0.3,0.3-0.4,0.4c0,0-0.1,0-0.1,0c-0.3-0.1-0.6-0.2-0.9-0.3c0,0-0.1,0-0.1,0c-0.1,0.2-0.2,0.4-0.3,0.6
		c0,0,0,0.1,0,0.1c0.3,0.2,0.5,0.4,0.8,0.6c0,0,0,0,0,0.1c-0.1,0.2-0.1,0.4-0.1,0.5c0,0,0,0.1-0.1,0.1c-0.3,0.1-0.6,0.1-0.9,0.2
		c0,0-0.1,0-0.1,0.1c0,0.2,0,0.4,0,0.6c0,0,0,0.1,0.1,0.1c0.3,0,0.6,0.1,0.9,0.1c0,0,0.1,0,0.1,0.1c0,0.2,0.1,0.4,0.2,0.5
		c0,0,0,0.1,0,0.1c-0.2,0.2-0.5,0.4-0.7,0.7c0,0,0,0.1,0,0.1c0.1,0.2,0.2,0.3,0.3,0.5c0,0,0,0,0.1,0c0.3-0.1,0.6-0.3,0.9-0.4
		c0,0,0.1,0,0.1,0c0.1,0.1,0.3,0.3,0.4,0.4c0,0,0,0,0,0.1c-0.1,0.3-0.2,0.6-0.3,0.9c0,0,0,0.1,0,0.1c0.2,0.1,0.4,0.2,0.6,0.3
		c0,0,0.1,0,0.1,0c0.2-0.3,0.4-0.5,0.6-0.8c0,0,0,0,0.1,0c0.2,0.1,0.4,0.1,0.5,0.1c0.1,0,0.1,0,0.1,0.1c0.1,0.3,0.1,0.6,0.2,0.9
		c0,0,0,0,0,0C175.3,162.9,175.5,162.9,175.8,162.9z"/>
	<path class="st3" d="M172.5,158.7c0.1,1.4,1.3,2.5,2.8,2.4c1.4-0.1,2.5-1.3,2.4-2.8c-0.1-1.4-1.3-2.5-2.8-2.4
		C173.5,156,172.4,157.2,172.5,158.7z"/>
	<path class="st0" d="M136.7,147.7c0-0.3,0.1-0.5,0.1-0.8c0-0.1,0-0.2,0-0.3c0,0,0,0,0-0.1c0.2,0,0.4-0.1,0.6-0.2c0,0,0.1,0,0.1,0
		c0.2,0.2,0.4,0.5,0.7,0.7c0,0,0,0,0.1,0c0.2-0.1,0.4-0.2,0.5-0.4c0,0,0,0,0-0.1c-0.1-0.3-0.3-0.6-0.4-0.9c0,0,0-0.1,0-0.1
		c0.1-0.1,0.3-0.3,0.4-0.4c0,0,0,0,0.1,0c0.3,0.1,0.6,0.2,0.9,0.3c0,0,0.1,0,0.1,0c0.1-0.2,0.2-0.4,0.3-0.6c0,0,0-0.1,0-0.1
		c-0.3-0.2-0.5-0.4-0.8-0.6c0,0,0,0,0-0.1c0.1-0.2,0.1-0.4,0.1-0.5c0,0,0-0.1,0.1-0.1c0.3-0.1,0.6-0.1,0.9-0.2c0,0,0.1,0,0.1-0.1
		c0-0.2,0-0.4,0-0.6c0,0,0-0.1-0.1-0.1c-0.3,0-0.6-0.1-0.9-0.1c0,0-0.1,0-0.1-0.1c0-0.2-0.1-0.4-0.2-0.5c0,0,0-0.1,0-0.1
		c0.2-0.2,0.5-0.4,0.7-0.7c0,0,0,0,0-0.1c-0.1-0.2-0.2-0.4-0.4-0.5c0,0,0,0-0.1,0c-0.3,0.1-0.6,0.3-0.9,0.4c0,0-0.1,0-0.1,0
		c-0.1-0.1-0.3-0.3-0.4-0.4c0,0,0,0,0-0.1c0.1-0.3,0.2-0.6,0.3-0.9c0-0.1,0-0.1,0-0.1c-0.2-0.1-0.4-0.2-0.6-0.3c0,0-0.1,0-0.1,0
		c-0.2,0.3-0.4,0.5-0.6,0.8c0,0-0.1,0-0.1,0c-0.2-0.1-0.4-0.1-0.5-0.1c0,0-0.1,0-0.1-0.1c-0.1-0.3-0.1-0.6-0.2-0.9
		c0,0,0-0.1-0.1-0.1c-0.2,0-0.4,0-0.6,0c0,0-0.1,0-0.1,0.1c0,0.3-0.1,0.6-0.1,0.9c0,0,0,0.1-0.1,0.1c-0.2,0-0.4,0.1-0.5,0.2
		c0,0-0.1,0-0.1,0c-0.2-0.2-0.4-0.5-0.7-0.7c0,0-0.1,0-0.1,0c-0.2,0.1-0.3,0.2-0.5,0.3c0,0,0,0,0,0.1c0.1,0.3,0.3,0.6,0.4,0.9
		c0,0,0,0.1,0,0.1c-0.1,0.1-0.3,0.3-0.4,0.4c0,0-0.1,0-0.1,0c-0.3-0.1-0.6-0.2-0.9-0.3c0,0-0.1,0-0.1,0c-0.1,0.2-0.2,0.4-0.3,0.6
		c0,0,0,0.1,0,0.1c0.3,0.2,0.5,0.4,0.8,0.6c0,0,0,0,0,0.1c-0.1,0.2-0.1,0.4-0.1,0.5c0,0,0,0.1-0.1,0.1c-0.3,0.1-0.6,0.1-0.9,0.2
		c0,0-0.1,0-0.1,0.1c0,0.2,0,0.4,0,0.6c0,0,0,0.1,0.1,0.1c0.3,0,0.6,0.1,0.9,0.1c0,0,0.1,0,0.1,0.1c0,0.2,0.1,0.4,0.2,0.5
		c0,0,0,0.1,0,0.1c-0.2,0.2-0.5,0.4-0.7,0.7c0,0,0,0.1,0,0.1c0.1,0.2,0.2,0.3,0.3,0.5c0,0,0,0,0.1,0c0.3-0.1,0.6-0.3,0.9-0.4
		c0,0,0.1,0,0.1,0c0.1,0.1,0.3,0.3,0.4,0.4c0,0,0,0,0,0.1c-0.1,0.3-0.2,0.6-0.3,0.9c0,0,0,0.1,0,0.1c0.2,0.1,0.4,0.2,0.6,0.3
		c0,0,0.1,0,0.1,0c0.2-0.3,0.4-0.5,0.6-0.8c0,0,0,0,0.1,0c0.2,0.1,0.4,0.1,0.5,0.1c0.1,0,0.1,0,0.1,0.1c0.1,0.3,0.1,0.6,0.2,0.9
		c0,0,0,0,0,0C136.2,147.7,136.5,147.7,136.7,147.7z"/>
	<path class="st3" d="M133.5,143.5c0.1,1.4,1.3,2.5,2.8,2.4c1.4-0.1,2.5-1.3,2.4-2.8c-0.1-1.4-1.3-2.5-2.8-2.4
		C134.5,140.8,133.4,142,133.5,143.5z"/>
	<path class="st0" d="M132.2,193.2c0-0.3,0.1-0.5,0.1-0.8c0-0.1,0-0.2,0-0.3c0,0,0,0,0-0.1c0.2,0,0.4-0.1,0.6-0.2c0,0,0.1,0,0.1,0
		c0.2,0.2,0.4,0.5,0.7,0.7c0,0,0,0,0.1,0c0.2-0.1,0.4-0.2,0.5-0.4c0,0,0,0,0-0.1c-0.1-0.3-0.3-0.6-0.4-0.9c0,0,0-0.1,0-0.1
		c0.1-0.1,0.3-0.3,0.4-0.4c0,0,0,0,0.1,0c0.3,0.1,0.6,0.2,0.9,0.3c0,0,0.1,0,0.1,0c0.1-0.2,0.2-0.4,0.3-0.6c0,0,0-0.1,0-0.1
		c-0.3-0.2-0.5-0.4-0.8-0.6c0,0,0,0,0-0.1c0.1-0.2,0.1-0.4,0.1-0.5c0,0,0-0.1,0.1-0.1c0.3-0.1,0.6-0.1,0.9-0.2c0,0,0.1,0,0.1-0.1
		c0-0.2,0-0.4,0-0.6c0,0,0-0.1-0.1-0.1c-0.3,0-0.6-0.1-0.9-0.1c0,0-0.1,0-0.1-0.1c0-0.2-0.1-0.4-0.2-0.5c0,0,0-0.1,0-0.1
		c0.2-0.2,0.5-0.4,0.7-0.7c0,0,0,0,0-0.1c-0.1-0.2-0.2-0.4-0.4-0.5c0,0,0,0-0.1,0c-0.3,0.1-0.6,0.3-0.9,0.4c0,0-0.1,0-0.1,0
		c-0.1-0.1-0.3-0.3-0.4-0.4c0,0,0,0,0-0.1c0.1-0.3,0.2-0.6,0.3-0.9c0-0.1,0-0.1,0-0.1c-0.2-0.1-0.4-0.2-0.6-0.3c0,0-0.1,0-0.1,0
		c-0.2,0.3-0.4,0.5-0.6,0.8c0,0-0.1,0-0.1,0c-0.2-0.1-0.4-0.1-0.5-0.1c0,0-0.1,0-0.1-0.1c-0.1-0.3-0.1-0.6-0.2-0.9
		c0,0,0-0.1-0.1-0.1c-0.2,0-0.4,0-0.6,0c0,0-0.1,0-0.1,0.1c0,0.3-0.1,0.6-0.1,0.9c0,0,0,0.1-0.1,0.1c-0.2,0-0.4,0.1-0.5,0.2
		c0,0-0.1,0-0.1,0c-0.2-0.2-0.4-0.5-0.7-0.7c0,0-0.1,0-0.1,0c-0.2,0.1-0.3,0.2-0.5,0.3c0,0,0,0,0,0.1c0.1,0.3,0.3,0.6,0.4,0.9
		c0,0,0,0.1,0,0.1c-0.1,0.1-0.3,0.3-0.4,0.4c0,0-0.1,0-0.1,0c-0.3-0.1-0.6-0.2-0.9-0.3c0,0-0.1,0-0.1,0c-0.1,0.2-0.2,0.4-0.3,0.6
		c0,0,0,0.1,0,0.1c0.3,0.2,0.5,0.4,0.8,0.6c0,0,0,0,0,0.1c-0.1,0.2-0.1,0.4-0.1,0.5c0,0,0,0.1-0.1,0.1c-0.3,0.1-0.6,0.1-0.9,0.2
		c0,0-0.1,0-0.1,0.1c0,0.2,0,0.4,0,0.6c0,0,0,0.1,0.1,0.1c0.3,0,0.6,0.1,0.9,0.1c0,0,0.1,0,0.1,0.1c0,0.2,0.1,0.4,0.2,0.5
		c0,0,0,0.1,0,0.1c-0.2,0.2-0.5,0.4-0.7,0.7c0,0,0,0.1,0,0.1c0.1,0.2,0.2,0.3,0.3,0.5c0,0,0,0,0.1,0c0.3-0.1,0.6-0.3,0.9-0.4
		c0,0,0.1,0,0.1,0c0.1,0.1,0.3,0.3,0.4,0.4c0,0,0,0,0,0.1c-0.1,0.3-0.2,0.6-0.3,0.9c0,0,0,0.1,0,0.1c0.2,0.1,0.4,0.2,0.6,0.3
		c0,0,0.1,0,0.1,0c0.2-0.3,0.4-0.5,0.6-0.8c0,0,0,0,0.1,0c0.2,0.1,0.4,0.1,0.5,0.1c0.1,0,0.1,0,0.1,0.1c0.1,0.3,0.1,0.6,0.2,0.9
		c0,0,0,0,0,0C131.7,193.3,131.9,193.2,132.2,193.2z"/>
	<path class="st3" d="M128.9,189c0.1,1.4,1.3,2.5,2.8,2.4c1.4-0.1,2.5-1.3,2.4-2.8c-0.1-1.4-1.3-2.5-2.8-2.4
		C129.9,186.3,128.8,187.6,128.9,189z"/>
	<path class="st0" d="M133,207c0-0.3,0.1-0.5,0.1-0.8c0-0.1,0-0.2,0-0.3c0,0,0,0,0-0.1c0.2,0,0.4-0.1,0.6-0.2c0,0,0.1,0,0.1,0
		c0.2,0.2,0.4,0.5,0.7,0.7c0,0,0,0,0.1,0c0.2-0.1,0.4-0.2,0.5-0.4c0,0,0,0,0-0.1c-0.1-0.3-0.3-0.6-0.4-0.9c0,0,0-0.1,0-0.1
		c0.1-0.1,0.3-0.3,0.4-0.4c0,0,0,0,0.1,0c0.3,0.1,0.6,0.2,0.9,0.3c0,0,0.1,0,0.1,0c0.1-0.2,0.2-0.4,0.3-0.6c0,0,0-0.1,0-0.1
		c-0.3-0.2-0.5-0.4-0.8-0.6c0,0,0,0,0-0.1c0.1-0.2,0.1-0.4,0.1-0.5c0,0,0-0.1,0.1-0.1c0.3-0.1,0.6-0.1,0.9-0.2c0,0,0.1,0,0.1-0.1
		c0-0.2,0-0.4,0-0.6c0,0,0-0.1-0.1-0.1c-0.3,0-0.6-0.1-0.9-0.1c0,0-0.1,0-0.1-0.1c0-0.2-0.1-0.4-0.2-0.5c0,0,0-0.1,0-0.1
		c0.2-0.2,0.5-0.4,0.7-0.7c0,0,0,0,0-0.1c-0.1-0.2-0.2-0.4-0.4-0.5c0,0,0,0-0.1,0c-0.3,0.1-0.6,0.3-0.9,0.4c0,0-0.1,0-0.1,0
		c-0.1-0.1-0.3-0.3-0.4-0.4c0,0,0,0,0-0.1c0.1-0.3,0.2-0.6,0.3-0.9c0-0.1,0-0.1,0-0.1c-0.2-0.1-0.4-0.2-0.6-0.3c0,0-0.1,0-0.1,0
		c-0.2,0.3-0.4,0.5-0.6,0.8c0,0-0.1,0-0.1,0c-0.2-0.1-0.4-0.1-0.5-0.1c0,0-0.1,0-0.1-0.1c-0.1-0.3-0.1-0.6-0.2-0.9
		c0,0,0-0.1-0.1-0.1c-0.2,0-0.4,0-0.6,0c0,0-0.1,0-0.1,0.1c0,0.3-0.1,0.6-0.1,0.9c0,0,0,0.1-0.1,0.1c-0.2,0-0.4,0.1-0.5,0.2
		c0,0-0.1,0-0.1,0c-0.2-0.2-0.4-0.5-0.7-0.7c0,0-0.1,0-0.1,0c-0.2,0.1-0.3,0.2-0.5,0.3c0,0,0,0,0,0.1c0.1,0.3,0.3,0.6,0.4,0.9
		c0,0,0,0.1,0,0.1c-0.1,0.1-0.3,0.3-0.4,0.4c0,0-0.1,0-0.1,0c-0.3-0.1-0.6-0.2-0.9-0.3c0,0-0.1,0-0.1,0c-0.1,0.2-0.2,0.4-0.3,0.6
		c0,0,0,0.1,0,0.1c0.3,0.2,0.5,0.4,0.8,0.6c0,0,0,0,0,0.1c-0.1,0.2-0.1,0.4-0.1,0.5c0,0,0,0.1-0.1,0.1c-0.3,0.1-0.6,0.1-0.9,0.2
		c0,0-0.1,0-0.1,0.1c0,0.2,0,0.4,0,0.6c0,0,0,0.1,0.1,0.1c0.3,0,0.6,0.1,0.9,0.1c0,0,0.1,0,0.1,0.1c0,0.2,0.1,0.4,0.2,0.5
		c0,0,0,0.1,0,0.1c-0.2,0.2-0.5,0.4-0.7,0.7c0,0,0,0.1,0,0.1c0.1,0.2,0.2,0.3,0.3,0.5c0,0,0,0,0.1,0c0.3-0.1,0.6-0.3,0.9-0.4
		c0,0,0.1,0,0.1,0c0.1,0.1,0.3,0.3,0.4,0.4c0,0,0,0,0,0.1c-0.1,0.3-0.2,0.6-0.3,0.9c0,0,0,0.1,0,0.1c0.2,0.1,0.4,0.2,0.6,0.3
		c0,0,0.1,0,0.1,0c0.2-0.3,0.4-0.5,0.6-0.8c0,0,0,0,0.1,0c0.2,0.1,0.4,0.1,0.5,0.1c0.1,0,0.1,0,0.1,0.1c0.1,0.3,0.1,0.6,0.2,0.9
		c0,0,0,0,0,0C132.6,207,132.8,207,133,207z"/>
	<path class="st3" d="M129.8,202.7c0.1,1.4,1.3,2.5,2.8,2.4c1.4-0.1,2.5-1.3,2.4-2.8c-0.1-1.4-1.3-2.5-2.8-2.4
		C130.8,200,129.7,201.3,129.8,202.7z"/>
	<path class="st0" d="M159.7,176.9c0-0.3,0.1-0.5,0.1-0.8c0-0.1,0-0.2,0-0.3c0,0,0,0,0-0.1c0.2,0,0.4-0.1,0.6-0.2c0,0,0.1,0,0.1,0
		c0.2,0.2,0.4,0.5,0.7,0.7c0,0,0,0,0.1,0c0.2-0.1,0.4-0.2,0.5-0.4c0,0,0,0,0-0.1c-0.1-0.3-0.3-0.6-0.4-0.9c0,0,0-0.1,0-0.1
		c0.1-0.1,0.3-0.3,0.4-0.4c0,0,0,0,0.1,0c0.3,0.1,0.6,0.2,0.9,0.3c0,0,0.1,0,0.1,0c0.1-0.2,0.2-0.4,0.3-0.6c0,0,0-0.1,0-0.1
		c-0.3-0.2-0.5-0.4-0.8-0.6c0,0,0,0,0-0.1c0.1-0.2,0.1-0.4,0.1-0.5c0,0,0-0.1,0.1-0.1c0.3-0.1,0.6-0.1,0.9-0.2c0,0,0.1,0,0.1-0.1
		c0-0.2,0-0.4,0-0.6c0,0,0-0.1-0.1-0.1c-0.3,0-0.6-0.1-0.9-0.1c0,0-0.1,0-0.1-0.1c0-0.2-0.1-0.4-0.2-0.5c0,0,0-0.1,0-0.1
		c0.2-0.2,0.5-0.4,0.7-0.7c0,0,0,0,0-0.1c-0.1-0.2-0.2-0.4-0.4-0.5c0,0,0,0-0.1,0c-0.3,0.1-0.6,0.3-0.9,0.4c0,0-0.1,0-0.1,0
		c-0.1-0.1-0.3-0.3-0.4-0.4c0,0,0,0,0-0.1c0.1-0.3,0.2-0.6,0.3-0.9c0-0.1,0-0.1,0-0.1c-0.2-0.1-0.4-0.2-0.6-0.3c0,0-0.1,0-0.1,0
		c-0.2,0.3-0.4,0.5-0.6,0.8c0,0-0.1,0-0.1,0c-0.2-0.1-0.4-0.1-0.5-0.1c0,0-0.1,0-0.1-0.1c-0.1-0.3-0.1-0.6-0.2-0.9
		c0,0,0-0.1-0.1-0.1c-0.2,0-0.4,0-0.6,0c0,0-0.1,0-0.1,0.1c0,0.3-0.1,0.6-0.1,0.9c0,0,0,0.1-0.1,0.1c-0.2,0-0.4,0.1-0.5,0.2
		c0,0-0.1,0-0.1,0c-0.2-0.2-0.4-0.5-0.7-0.7c0,0-0.1,0-0.1,0c-0.2,0.1-0.3,0.2-0.5,0.3c0,0,0,0,0,0.1c0.1,0.3,0.3,0.6,0.4,0.9
		c0,0,0,0.1,0,0.1c-0.1,0.1-0.3,0.3-0.4,0.4c0,0-0.1,0-0.1,0c-0.3-0.1-0.6-0.2-0.9-0.3c0,0-0.1,0-0.1,0c-0.1,0.2-0.2,0.4-0.3,0.6
		c0,0,0,0.1,0,0.1c0.3,0.2,0.5,0.4,0.8,0.6c0,0,0,0,0,0.1c-0.1,0.2-0.1,0.4-0.1,0.5c0,0,0,0.1-0.1,0.1c-0.3,0.1-0.6,0.1-0.9,0.2
		c0,0-0.1,0-0.1,0.1c0,0.2,0,0.4,0,0.6c0,0,0,0.1,0.1,0.1c0.3,0,0.6,0.1,0.9,0.1c0,0,0.1,0,0.1,0.1c0,0.2,0.1,0.4,0.2,0.5
		c0,0,0,0.1,0,0.1c-0.2,0.2-0.5,0.4-0.7,0.7c0,0,0,0.1,0,0.1c0.1,0.2,0.2,0.3,0.3,0.5c0,0,0,0,0.1,0c0.3-0.1,0.6-0.3,0.9-0.4
		c0,0,0.1,0,0.1,0c0.1,0.1,0.3,0.3,0.4,0.4c0,0,0,0,0,0.1c-0.1,0.3-0.2,0.6-0.3,0.9c0,0,0,0.1,0,0.1c0.2,0.1,0.4,0.2,0.6,0.3
		c0,0,0.1,0,0.1,0c0.2-0.3,0.4-0.5,0.6-0.8c0,0,0,0,0.1,0c0.2,0.1,0.4,0.1,0.5,0.1c0.1,0,0.1,0,0.1,0.1c0.1,0.3,0.1,0.6,0.2,0.9
		c0,0,0,0,0,0C159.3,176.9,159.5,176.9,159.7,176.9z"/>
	<path class="st3" d="M156.5,172.6c0.1,1.4,1.3,2.5,2.8,2.4c1.4-0.1,2.5-1.3,2.4-2.8c-0.1-1.4-1.3-2.5-2.8-2.4
		C157.5,169.9,156.4,171.2,156.5,172.6z"/>
	<path class="st0" d="M117,181.9c0-0.3,0.1-0.5,0.1-0.8c0-0.1,0-0.2,0-0.3c0,0,0,0,0-0.1c0.2,0,0.4-0.1,0.6-0.2c0,0,0.1,0,0.1,0
		c0.2,0.2,0.4,0.5,0.7,0.7c0,0,0,0,0.1,0c0.2-0.1,0.4-0.2,0.5-0.4c0,0,0,0,0-0.1c-0.1-0.3-0.3-0.6-0.4-0.9c0,0,0-0.1,0-0.1
		c0.1-0.1,0.3-0.3,0.4-0.4c0,0,0,0,0.1,0c0.3,0.1,0.6,0.2,0.9,0.3c0,0,0.1,0,0.1,0c0.1-0.2,0.2-0.4,0.3-0.6c0,0,0-0.1,0-0.1
		c-0.3-0.2-0.5-0.4-0.8-0.6c0,0,0,0,0-0.1c0.1-0.2,0.1-0.4,0.1-0.5c0,0,0-0.1,0.1-0.1c0.3-0.1,0.6-0.1,0.9-0.2c0,0,0.1,0,0.1-0.1
		c0-0.2,0-0.4,0-0.6c0,0,0-0.1-0.1-0.1c-0.3,0-0.6-0.1-0.9-0.1c0,0-0.1,0-0.1-0.1c0-0.2-0.1-0.4-0.2-0.5c0,0,0-0.1,0-0.1
		c0.2-0.2,0.5-0.4,0.7-0.7c0,0,0,0,0-0.1c-0.1-0.2-0.2-0.4-0.4-0.5c0,0,0,0-0.1,0c-0.3,0.1-0.6,0.3-0.9,0.4c0,0-0.1,0-0.1,0
		c-0.1-0.1-0.3-0.3-0.4-0.4c0,0,0,0,0-0.1c0.1-0.3,0.2-0.6,0.3-0.9c0-0.1,0-0.1,0-0.1c-0.2-0.1-0.4-0.2-0.6-0.3c0,0-0.1,0-0.1,0
		c-0.2,0.3-0.4,0.5-0.6,0.8c0,0-0.1,0-0.1,0c-0.2-0.1-0.4-0.1-0.5-0.1c0,0-0.1,0-0.1-0.1c-0.1-0.3-0.1-0.6-0.2-0.9
		c0,0,0-0.1-0.1-0.1c-0.2,0-0.4,0-0.6,0c0,0-0.1,0-0.1,0.1c0,0.3-0.1,0.6-0.1,0.9c0,0,0,0.1-0.1,0.1c-0.2,0-0.4,0.1-0.5,0.2
		c0,0-0.1,0-0.1,0c-0.2-0.2-0.4-0.5-0.7-0.7c0,0-0.1,0-0.1,0c-0.2,0.1-0.3,0.2-0.5,0.3c0,0,0,0,0,0.1c0.1,0.3,0.3,0.6,0.4,0.9
		c0,0,0,0.1,0,0.1c-0.1,0.1-0.3,0.3-0.4,0.4c0,0-0.1,0-0.1,0c-0.3-0.1-0.6-0.2-0.9-0.3c0,0-0.1,0-0.1,0c-0.1,0.2-0.2,0.4-0.3,0.6
		c0,0,0,0.1,0,0.1c0.3,0.2,0.5,0.4,0.8,0.6c0,0,0,0,0,0.1c-0.1,0.2-0.1,0.4-0.1,0.5c0,0,0,0.1-0.1,0.1c-0.3,0.1-0.6,0.1-0.9,0.2
		c0,0-0.1,0-0.1,0.1c0,0.2,0,0.4,0,0.6c0,0,0,0.1,0.1,0.1c0.3,0,0.6,0.1,0.9,0.1c0,0,0.1,0,0.1,0.1c0,0.2,0.1,0.4,0.2,0.5
		c0,0,0,0.1,0,0.1c-0.2,0.2-0.5,0.4-0.7,0.7c0,0,0,0.1,0,0.1c0.1,0.2,0.2,0.3,0.3,0.5c0,0,0,0,0.1,0c0.3-0.1,0.6-0.3,0.9-0.4
		c0,0,0.1,0,0.1,0c0.1,0.1,0.3,0.3,0.4,0.4c0,0,0,0,0,0.1c-0.1,0.3-0.2,0.6-0.3,0.9c0,0,0,0.1,0,0.1c0.2,0.1,0.4,0.2,0.6,0.3
		c0,0,0.1,0,0.1,0c0.2-0.3,0.4-0.5,0.6-0.8c0,0,0,0,0.1,0c0.2,0.1,0.4,0.1,0.5,0.1c0.1,0,0.1,0,0.1,0.1c0.1,0.3,0.1,0.6,0.2,0.9
		c0,0,0,0,0,0C116.5,182,116.7,182,117,181.9z"/>
	<path class="st3" d="M113.7,177.7c0.1,1.4,1.3,2.5,2.8,2.4c1.4-0.1,2.5-1.3,2.4-2.8c-0.1-1.4-1.3-2.5-2.8-2.4
		C114.7,175,113.6,176.3,113.7,177.7z"/>
	<path class="st0" d="M138,199.9c0-0.3,0.1-0.5,0.1-0.8c0-0.1,0-0.2,0-0.3c0,0,0,0,0-0.1c0.2,0,0.4-0.1,0.6-0.2c0,0,0.1,0,0.1,0
		c0.2,0.2,0.4,0.5,0.7,0.7c0,0,0,0,0.1,0c0.2-0.1,0.4-0.2,0.5-0.4c0,0,0,0,0-0.1c-0.1-0.3-0.3-0.6-0.4-0.9c0,0,0-0.1,0-0.1
		c0.1-0.1,0.3-0.3,0.4-0.4c0,0,0,0,0.1,0c0.3,0.1,0.6,0.2,0.9,0.3c0,0,0.1,0,0.1,0c0.1-0.2,0.2-0.4,0.3-0.6c0,0,0-0.1,0-0.1
		c-0.3-0.2-0.5-0.4-0.8-0.6c0,0,0,0,0-0.1c0.1-0.2,0.1-0.4,0.1-0.5c0,0,0-0.1,0.1-0.1c0.3-0.1,0.6-0.1,0.9-0.2c0,0,0.1,0,0.1-0.1
		c0-0.2,0-0.4,0-0.6c0,0,0-0.1-0.1-0.1c-0.3,0-0.6-0.1-0.9-0.1c0,0-0.1,0-0.1-0.1c0-0.2-0.1-0.4-0.2-0.5c0,0,0-0.1,0-0.1
		c0.2-0.2,0.5-0.4,0.7-0.7c0,0,0,0,0-0.1c-0.1-0.2-0.2-0.4-0.4-0.5c0,0,0,0-0.1,0c-0.3,0.1-0.6,0.3-0.9,0.4c0,0-0.1,0-0.1,0
		c-0.1-0.1-0.3-0.3-0.4-0.4c0,0,0,0,0-0.1c0.1-0.3,0.2-0.6,0.3-0.9c0-0.1,0-0.1,0-0.1c-0.2-0.1-0.4-0.2-0.6-0.3c0,0-0.1,0-0.1,0
		c-0.2,0.3-0.4,0.5-0.6,0.8c0,0-0.1,0-0.1,0c-0.2-0.1-0.4-0.1-0.5-0.1c0,0-0.1,0-0.1-0.1c-0.1-0.3-0.1-0.6-0.2-0.9
		c0,0,0-0.1-0.1-0.1c-0.2,0-0.4,0-0.6,0c0,0-0.1,0-0.1,0.1c0,0.3-0.1,0.6-0.1,0.9c0,0,0,0.1-0.1,0.1c-0.2,0-0.4,0.1-0.5,0.2
		c0,0-0.1,0-0.1,0c-0.2-0.2-0.4-0.5-0.7-0.7c0,0-0.1,0-0.1,0c-0.2,0.1-0.3,0.2-0.5,0.3c0,0,0,0,0,0.1c0.1,0.3,0.3,0.6,0.4,0.9
		c0,0,0,0.1,0,0.1c-0.1,0.1-0.3,0.3-0.4,0.4c0,0-0.1,0-0.1,0c-0.3-0.1-0.6-0.2-0.9-0.3c0,0-0.1,0-0.1,0c-0.1,0.2-0.2,0.4-0.3,0.6
		c0,0,0,0.1,0,0.1c0.3,0.2,0.5,0.4,0.8,0.6c0,0,0,0,0,0.1c-0.1,0.2-0.1,0.4-0.1,0.5c0,0,0,0.1-0.1,0.1c-0.3,0.1-0.6,0.1-0.9,0.2
		c0,0-0.1,0-0.1,0.1c0,0.2,0,0.4,0,0.6c0,0,0,0.1,0.1,0.1c0.3,0,0.6,0.1,0.9,0.1c0,0,0.1,0,0.1,0.1c0,0.2,0.1,0.4,0.2,0.5
		c0,0,0,0.1,0,0.1c-0.2,0.2-0.5,0.4-0.7,0.7c0,0,0,0.1,0,0.1c0.1,0.2,0.2,0.3,0.3,0.5c0,0,0,0,0.1,0c0.3-0.1,0.6-0.3,0.9-0.4
		c0,0,0.1,0,0.1,0c0.1,0.1,0.3,0.3,0.4,0.4c0,0,0,0,0,0.1c-0.1,0.3-0.2,0.6-0.3,0.9c0,0,0,0.1,0,0.1c0.2,0.1,0.4,0.2,0.6,0.3
		c0,0,0.1,0,0.1,0c0.2-0.3,0.4-0.5,0.6-0.8c0,0,0,0,0.1,0c0.2,0.1,0.4,0.1,0.5,0.1c0.1,0,0.1,0,0.1,0.1c0.1,0.3,0.1,0.6,0.2,0.9
		c0,0,0,0,0,0C137.5,199.9,137.7,199.9,138,199.9z"/>
	<path class="st3" d="M134.7,195.7c0.1,1.4,1.3,2.5,2.8,2.4c1.4-0.1,2.5-1.3,2.4-2.8c-0.1-1.4-1.3-2.5-2.8-2.4
		C135.7,193,134.6,194.2,134.7,195.7z"/>
</g>
<line class="st9" x1="313" y1="23.3" x2="313" y2="324.7"/>
<g>
	<path class="st10" d="M469.3,136.4c0,0-7-28.6-20.7-32.9c-13.7-4.3-23.9,7.9-23.9,7.9s-9,8.9,10.1,25.8c6.2,6,10.6,7.5,10.6,7.5
		c1.7-1,3.4-1.4,6.6-1.4c-0.1-0.7-15.7-2.3-24.6-16.7c-1.3-2-4.2-9.7-0.8-13.6c3.5-4,7.7-4.1,10-3.1c6.4,2.8,20.9,27,26,33.6
		C464.6,136.8,468.8,136.4,469.3,136.4z"/>
	<path class="st11" d="M462.7,143.7l0.3,1.6c-3.2-1.2-6.9-1.7-10.9-1.9c-15-4.3-23.7-11.8-26.6-22.1c-1.8-7.2,3.5-11.9,9.4-11.7
		c3-0.2,7.2,5,11.4,10.4c0.9,4,2.7,8.2,6.4,12.6c1.6,1.3,3.1,2.2,4,2.3L462.7,143.7z"/>
	<path class="st10" d="M534.3,111.9c-11.6-4.3-21.5,5-21.5,5c-12.1,9.4-23.1,20.9-33.3,33.8c17.7,8.4,34,9.3,48.9,3.1
		c12.3-5.2,18.2-12.3,18.9-21C547.3,132.7,549.4,117.8,534.3,111.9z M527.3,138.4c-3,6.7-5.8,12.4-13.9,15.7
		c-4.9,2.4-20.3,1.3-32.2-4c-0.4-0.1,14-15.4,20.6-21.9c0,0,13.4-17.5,24.1-9.8C532.6,125.2,527.3,138.4,527.3,138.4z"/>
	<path class="st11" d="M529.3,128.2c0,0,0.6-8.3-5.7-11c-9-4.1-21.1,10.3-21.1,10.3l-21.2,22.7l9-2.6c5.6-5,12-10,19-14.9
		C516.7,127.9,523.3,126.8,529.3,128.2z"/>
	<path class="st11" d="M481.3,150.1l9-2.6c5.3,1.3,11.2,2.4,17.6,3.3c5.1,0.5,10.2-1.4,15.3-4.5c-3.7,5-8.4,8.4-14.9,9
		C498.6,155.5,488.8,153.5,481.3,150.1z"/>
	<path class="st10" d="M469.3,136.4c0.5-0.1,1.1,0,1.8,0.2c4.1,1.1,8.2,2.9,12.4,5.2c0.8,0.4,1.5,0.9,2.1,1.4l-5,8
		c-0.5,0.6-1.3,0.9-2.5,0.8c-7-0.7-12-2.6-14.9-6l-0.5-2.3C464,139,466.3,137,469.3,136.4z"/>
	<path class="st10" d="M473.5,151.3c0,0,3.3,1.9,1.7,6.1c-1.1,3.5,0.3,8.3,0.3,8.3s2.1,5.7,5.1,8.4c2.6-0.5,3.6-4.1,3.6-4.1l6.8,3.9
		l-3.9-9.9l-0.3-5.1l0.5-3.4l-1-1.8l-5.8-2.4L473.5,151.3z"/>
	<path class="st10" d="M466.9,148.9c-3.7-0.4-7.5-0.1-11.2,0.9c-3.3,1.4-6.3,3-8.8,4.7c-2.3,1.2-4.6,2.1-7,2l-18.1,0.6l2.4-5.9
		l-9.3-3.1l17.6,0.8c4.8,0.1,6.9-1.7,10-2.7c3.3-1.4,4.1-2.9,9.6-2.9c4,0.2,7.7,0.8,10.9,1.9C463.3,146.3,464.4,147.5,466.9,148.9z"
		/>
</g>
<g>
</g>
<g>
</g>
<g>
</g>
<g>
</g>
<g>
</g>
<g>
</g>
</svg>
