<?xml version="1.0" encoding="utf-8"?>
<!-- Generator: Adobe Illustrator 22.0.1, SVG Export Plug-In . SVG Version: 6.00 Build 0)  -->
<svg version="1.1" id="Ebene_1" xmlns="http://www.w3.org/2000/svg" xmlns:xlink="http://www.w3.org/1999/xlink" x="0px" y="0px"
	 viewBox="0 0 299 193" style="enable-background:new 0 0 299 193;" xml:space="preserve">
<style type="text/css">
	.st0{fill:#92B040;}
	.st1{fill:#682C15;}
	.st2{fill:#FFFFFF;}
	.st3{fill:#8D7475;}
	.st4{opacity:0.6;fill:#755D5D;}
	.st5{fill:#F2BC98;}
	.st6{opacity:0.8;fill:#E28451;}
	.st7{opacity:0.8;fill:#EFA47E;}
	.st8{fill:#7D6967;}
	.st9{opacity:0.2;fill:#FFFFFF;}
	.st10{opacity:0.8;fill:#796262;}
	.st11{opacity:0.8;fill:#685052;}
	.st12{fill:#441718;}
	.st13{fill:#EBA67E;}
	.st14{fill:#E4645C;}
	.st15{fill:#A12E30;}
	.st16{fill:#E67A6B;}
	.st17{fill:#E57B6A;}
	.st18{fill:#A73033;}
	.st19{fill:#EFA47E;}
	.st20{fill:#C66A40;}
	.st21{fill:#EFA47F;}
	.st22{fill:#1E1F1D;}
	.st23{fill:#EBA9A9;}
	.st24{fill:#274381;}
	.st25{opacity:0.55;fill:#9BA0CF;}
	.st26{fill:#23274B;}
	.st27{fill:#8F5C59;}
	.st28{fill:#A05B49;}
	.st29{fill:#643024;}
	.st30{fill:none;stroke:#FFFFFF;stroke-width:1.5572;stroke-miterlimit:10;}
	.st31{fill:none;stroke:#FFFFFF;stroke-width:1.5572;stroke-linecap:round;stroke-linejoin:round;stroke-miterlimit:10;}
</style>
<rect x="0" class="st0" width="299" height="193"/>
<g>
	<path class="st1" d="M78.6,92.4c-4.2-1.8-10.4-3.9-12.4-12c-0.1-0.3-3.2,2.1-4.9-4.2c-0.3-0.3-0.8-1-1.5-2.8
		c-0.5-1.2-1-3.8,0.3-5.3c2.2-2,4.2-0.6,4.9,0.3c0.2,0.3,0.7,8.2,0.8,7.8c2.4-4.3,3.7-14.3,3.9-23.1L66,48.6
		c-15.5,5.9-15.9,36.3,4.3,60.2l9.9-8C80.7,98.7,79.4,93.9,78.6,92.4z M58.1,58.7c1.3-4.7,5.6-7.4,5.6-7.4
		c-4.4,5.5-5.1,7.8-5.7,16.3C58,67.6,56.8,63.4,58.1,58.7z"/>
	<path class="st2" d="M63.6,51.3c-1.7,2.1-3.5,4.9-4.4,7.7c-0.8,2.9-1,5.4-1.2,8.7c0,0-1-3.8-0.1-8C58.9,54.4,63.6,51.3,63.6,51.3z"
		/>
</g>
<path class="st3" d="M63.6,109.2c0,0,3.4,15.7,23.6,15.7s21.8-16.9,21.8-16.9l0.6,0c3.4,12.9,8.5,32.1,5.5,40.1
	c-1.2,3.4-1.5,4.7-2.3,7.1c-1.8,1.1-6.4,1-10.4,0.9c0.3,1,9.3,17.8,9.3,18.4l3,0.2c0,0-0.8,17.2-6.4,22.1
	c-15.4,8.6-42.7,6.5-49.4-4.2l0.8-13.5c0-2.8-0.1-5.7-0.8-7.8c0,0,3-0.2,5.2-0.4c-1.3-6.9-1.2-11.3,1.1-19.6
	c-0.1,0.1-8.9-0.6-8.9-0.6c-1.5-14.3,4.1-31.3,7-41.7C63.1,109.1,63.4,109.1,63.6,109.2z"/>
<path class="st4" d="M114.5,173c-6.3,2.6-11.5,5.9-15.9,9.5l16-7.1L114.5,173z"/>
<path class="st5" d="M72.8,87.5L97,86.9c-0.6,11.9,1.6,20.7,12.2,20.9c0,0,9.3,25.5-20.7,26.3s-25.3-25.2-25.3-25.2
	C71.8,107.9,76.1,101.4,72.8,87.5z"/>
<path class="st6" d="M63.2,108.9c10.4-1.4,12.1-10,9.6-21.4c0,0,8,4.9,12.7,5.7c4.8,0.7,11.5-6.3,11.5-6.3
	c-0.6,14.7,2.5,19.5,12.2,20.9c0.2,0.6,0.5,1.5,0.7,2.4c-3.7-1-7-1.1-10.7-4.4C96.1,103.1,95.6,97,95,91c0,0-4.3,7-8.6,7.1
	s-11.8-8.5-11.8-8.5c1.1,7.7,1.2,14.6-3.3,18.1c-2.4,1.8-4.8,2.6-8.2,3L63.2,108.9z"/>
<path class="st7" d="M76.9,93.5c-0.1,7.7-0.9,13.4-2.8,16.4c-1.6,2.8-8.8,2.2-11.2,0.8c0,0,7.1-1.5,9.1-4.8
	c1.9-3.3,2.6-16.3,2.6-16.3l6.6,6.2c5.1,3.9,8.7,2.5,13.7-4.9c1.2,15.6,4.2,16.8,14.9,19.2l0.4,2.1c-5.9-0.3-13.9-1.1-17.6-2.8
	C85.3,105.1,80.5,99.3,76.9,93.5z"/>
<path class="st5" d="M65,68.3l0.7,5.9l0.5,6.1c0,0-3.4,1.9-4.9-4.2c-1.9-2.4-2.9-6.2-1.2-8.1C62.8,65.5,65,68.3,65,68.3z"/>
<path class="st7" d="M62.2,71.8c0.7,0.1,1.2,0.3,1.5,0.5c-0.6,0.6-1,1.1-0.8,1.5c0.2,0.6,0.6,0.8,1,1c-0.2-0.4-0.4-0.7-0.3-1
	c0.3-0.4,0.7-0.7,1.2-1c0.2,0.3,0.4,0.5,0.7,0.7l0-1.4C64,71.4,63,71.3,62.2,71.8z"/>
<path class="st5" d="M69.3,53.2c-0.1,9.6-1.1,16.3-3.4,21.4c-0.1,2-0.1,4.1,0.3,5.8c1.9,8.1,9.3,12.3,19.5,13.7
	c10.2-1,14.8-6.4,18.4-14.2c1-3.6,1.7-7,1.8-10c0.6-2.5-4.5-3.9-10.9-5.4c-3.7-1-7-1.9-10.1-2.8C78.1,59.5,73,56.7,69.6,53
	C69.6,53,69.3,53.2,69.3,53.2z"/>
<path class="st5" d="M105.9,69.8c0,0,2.9-3.6,4.8-1.8c1.9,1.9,1.5,3.6,0.8,5.1c-0.7,1.5-2.2,2.2-2.2,2.2s0.2,2.4-1.2,3.7
	c-0.8,1-2.5,1.9-4,0.8C106,73.2,105.9,69.8,105.9,69.8z"/>
<path class="st7" d="M109,71c-0.7,0.1-1.2,0.3-1.5,0.5c0.6,0.6,1,1.1,0.8,1.5c-0.2,0.6-0.6,0.8-1,1c0.2-0.4,0.4-0.7,0.3-1
	c-0.3-0.4-0.7-0.7-1.2-1c-0.2,0.3-0.4,0.5-0.7,0.7l0-1.4C107.2,70.6,108.2,70.4,109,71z"/>
<g>
	<path class="st3" d="M109,108.1c0,0,10.2-0.4,14.1,3.4c3.9,3.8,6.5,20.4,6.5,20.4s2,20.8,0.9,30.1c-1.1,6-0.6,9.2-7.1,11.2
		c-7,1.8-11.5,1-12,1c-0.3-0.8-10.2-18.2-9.2-17.9c1.3-0.2,8,0.5,10.4-1c3.9-10.8,2.3-20.7,0.1-30L109,108.1z"/>
	<path class="st8" d="M114.6,174.6c-1,0-2,0-2.9-0.1c-0.1,0-0.3,0-0.3,0h-0.2l-0.1-0.2c-0.1-0.2-1.3-2.5-2.6-4.8
		c-6.4-11.7-6.9-13-6.6-13.3c0.1-0.1,0.2-0.1,0.3-0.1c0.4,0,1,0,1.9,0c2.4,0,6.5,0.1,8.2-0.9c4-11.2,2.1-21.2,0-29.8l-3.7-17.5
		l0.3,0c0.4,0,10.3-0.4,14.3,3.5c4,3.8,6.5,19.9,6.6,20.6c0,0.2,2,21,0.9,30.2c-0.1,0.8-0.3,1.6-0.4,2.3c-0.7,4.6-1.2,7.4-6.9,9.1
		C120.4,174.2,117.5,174.6,114.6,174.6z M111.6,173.9c0.1,0,0.1,0,0.2,0c3.6,0.4,7.5,0,11.6-1c5.4-1.7,5.8-4.2,6.5-8.7
		c0.1-0.7,0.2-1.5,0.4-2.3c1.1-9.1-0.9-29.8-0.9-30c0-0.1-2.6-16.6-6.4-20.2c-3.4-3.3-11.8-3.4-13.6-3.3l3.6,16.8
		c2.1,8.7,4,18.9-0.1,30.2l0,0.1l-0.1,0.1c-1.8,1.2-5.9,1.1-8.6,1c-0.7,0-1.3,0-1.7,0c0.4,1.4,4.3,8.4,6.6,12.6
		C110.5,171.8,111.3,173.4,111.6,173.9z"/>
</g>
<path class="st4" d="M117.4,121.9l-4.3,4.7l0.8,4.9c2.3-2,4.9-3.7,8.2-4.9c-2.2-0.7-4.8,0-8,2.1
	C115.4,126.5,116.5,124.3,117.4,121.9z"/>
<path class="st4" d="M113.7,151.5c0,0,1.4-5.1,7.4-4.4c-4.7,2.3-5.4,3.9-5.4,3.9s6.5-0.7,8.5,3.3c-4.6-2.2-8.1-1.2-8.1-1.2l-2.8,0.9
	L113.7,151.5z"/>
<path class="st4" d="M112.5,161.4c1-0.4,10.5,7.2,10.8,10.2S111.5,161.8,112.5,161.4z"/>
<path class="st5" d="M111,173.9c-12.4-1.2-24.8-3.4-37.2-6.3c9.4-3.1,18.9-6.9,28.5-10.7C104.2,160.4,107.5,167.1,111,173.9z"/>
<path class="st6" d="M102.5,157.4c-7.5,4.1-15,7.3-21.9,10.1c10,3,20,4.1,29,3.6l1.5,3c-12.4-0.4-24.7-3.3-37.1-6.4
	C83.1,164.4,93,160.5,102.5,157.4z"/>
<path class="st9" d="M92.7,163.6c0.8,1.1,9.9,1.1,9.9,1.1c2.4,0,2.4-3.2,0-3.5C97.5,161,91.9,162.5,92.7,163.6z"/>
<path class="st10" d="M109.1,145c3.4-4.7,3.8-11.9,3.3-19.9c1.8-4.2,3,14.3,1.4,21.1c-0.4,0.9-2.1,1.1-3.3,1.2l-7.5-1.5
	c-12.2,3.1-24,5.1-35.2,5.6l-1.5-2.8l-5.1-7.7c0.7-7.3-0.2-11.9-2.3-15c-0.3-0.6-0.4-1,0.1-1.1c1.7,0.9,3,2.5,3.6,5.2l0.7,9.9
	c0.6,3.4,1.5,8.8,5.9,9.1l15.6-2.9l12.9-6.2l-5.7,5.4C98,143.3,103.7,142.9,109.1,145z"/>
<path class="st11" d="M113.7,126.2c1.6,6.1,2,13.1,1.1,21.8c-1.4-0.4-2.1-0.5-3.6-0.9c1.4-0.2,1.5,0.1,2.1-0.7
	C114.4,141.8,114.2,133.9,113.7,126.2z"/>
<path class="st12" d="M109.3,75.4c0,0-0.3,26.3,14.2,38.8c-2.8,4.8-15.8,8.1-15.8,8.1c-1.7-12.4-1.2-11.9-7.5-14.9
	c-1.6-0.6-3.3-1.3-5-4.8c-0.6-1.6-1.6-8.3-1.3-10.9c3.7-2,7.1-5.4,10.1-11.9C106.8,81.4,109.3,78.8,109.3,75.4z"/>
<ellipse class="st13" cx="93.2" cy="85.8" rx="0.8" ry="0.6"/>
<ellipse class="st13" cx="76.9" cy="84" rx="0.6" ry="0.8"/>
<path class="st14" d="M93.1,85.7c0,0-3.5-1.4-4.5-1.6s-2.8,0.3-2.8,0.3s-1.1-0.4-1.6-0.5c-0.5-0.1-6.5,0-6.5,0
	c0.1,0.1,0.7,0.3,1,0.5c0.1-0.1,5.7,1.4,6.7,1.6c1.1,0.2,3.8-0.3,3.8-0.3L93.1,85.7z"/>
<ellipse class="st15" cx="77.3" cy="83.8" rx="0.5" ry="0.3"/>
<ellipse class="st15" cx="92.8" cy="85.6" rx="0.4" ry="0.2"/>
<g>
	<path class="st16" d="M92.5,85.8c0,0-2.7,2.4-6.5,2.4c-3.9,0-8.4-4.2-8.4-4.2s7.2,2,8.2,2C86.8,86.1,89.4,85.5,92.5,85.8z"/>
	<path class="st17" d="M86,88.3c-3.8,0-8.3-4.1-8.4-4.2c0,0,0,0,0,0c0,0,0,0,0,0c0.1,0,7.3,2,8.2,2c0.3,0,0.7,0,1.2-0.1
		c1.3-0.2,3.3-0.4,5.5-0.1c0,0,0,0,0,0c0,0,0,0,0,0C92.5,85.9,89.8,88.3,86,88.3z M77.7,84.1c0.6,0.6,4.7,4.1,8.3,4.1
		c3.5,0,6.1-2,6.5-2.4c-2.2-0.2-4.1,0-5.4,0.2c-0.5,0.1-0.9,0.1-1.2,0.1C84.9,86.1,78.7,84.4,77.7,84.1z"/>
</g>
<path class="st18" d="M85.6,86.2C85.6,86.2,85.6,86.2,85.6,86.2c-2.4-0.4-6.3-1.4-7.9-2c-0.1,0-0.2-0.2-0.1-0.3
	c0-0.1,0.2-0.2,0.3-0.1c1.4,0.6,5.1,1.5,7.7,2c0.1,0,0.2,0.1,0.2,0.3C85.8,86.1,85.7,86.2,85.6,86.2z"/>
<path class="st18" d="M85.7,86.2C85.7,86.2,85.7,86.2,85.7,86.2c-0.2,0-0.3-0.1-0.3-0.2s0.1-0.2,0.2-0.2c0.3,0,1.6-0.1,3-0.2
	c4-0.2,4-0.2,4.1-0.1c0,0,0.1,0.1,0.1,0.2c0,0.1-0.1,0.2-0.2,0.2c0,0-0.1,0-0.1,0c-0.3,0-2.4,0.1-3.9,0.2
	C87.3,86.1,86.1,86.2,85.7,86.2z M92.4,85.7 M92.4,85.7L92.4,85.7L92.4,85.7z M92.4,85.7L92.4,85.7L92.4,85.7z M92.4,85.7L92.4,85.7
	L92.4,85.7z M92.4,85.6"/>
<path class="st9" d="M82.5,86.2c0,0.4,0.2,0.7,0.5,1.1c1,0.7,3.6,0.8,5.3,0.2c0.8-0.3,0.9-0.8,0.9-1.1c-0.4-0.4-1.8,0-3.1,0.1
	C84.6,86.4,82.7,85.5,82.5,86.2z"/>
<path class="st13" d="M99.1,82.3l-0.6,1.9c0,0-0.7-0.5-0.4-1.3S99.1,82.3,99.1,82.3z"/>
<path class="st13" d="M73.8,83.1l-0.9-1.8c0,0,0.9-0.1,1.2,0.6S73.8,83.1,73.8,83.1z"/>
<path class="st19" d="M82.2,76.2c-0.7,0.8-1.2,2-0.5,2.6c0.6,0.5,1.1,0.4,1.9,0.4c0,0,0.5,0.1,1,0.2c0.5,0.2,0.8,0.4,1.2,0.4
	c0.4,0,0.7-0.3,1.2-0.4c0.8-0.2,1.5-0.2,1.5-0.2c0.9-0.1,1.9-0.8,1.8-1.4c-0.1-0.6-0.5-1.2-1.1-1.5c0,0,0.9,1.6,0.2,2
	c-0.4,0.3-0.4-0.7-1.5-0.4c-1,0.3-1.6,1.1-2.3,1.1S84,78,83.3,78c-0.4,0-1.2,0.4-1.4,0.1C81.7,77.7,81.9,76.8,82.2,76.2z"/>
<ellipse class="st20" cx="83.5" cy="78.6" rx="0.9" ry="0.3"/>
<ellipse class="st20" cx="88.1" cy="78.6" rx="0.9" ry="0.3"/>
<path class="st21" d="M90.5,64.8c0,0-2.4,3.9-2.3,5.5c1.2-1.9,2.6-3.4,4-4.7L90.5,64.8z"/>
<path class="st21" d="M79.7,63c0,0,2.5,2,3.3,7.3c-1.5-2.3-3.7-4.9-5.4-6.4L79.7,63z"/>
<g>
	<path class="st22" d="M91.5,69.2c0,0,1.2-2.4,4.7-2.1c3.5,0.3,4.9,3.3,4.9,3.3s-1.1,1-0.8,0.5C99.5,67.2,93.5,66.3,91.5,69.2z"/>
	<path class="st22" d="M100.4,71.3C100.3,71.3,100.3,71.3,100.4,71.3c-0.2-0.1-0.1-0.2-0.1-0.3c-0.5-2-2.3-3-3.9-3.3
		c-2-0.4-3.8,0.3-4.7,1.6c0,0-0.1,0.1-0.1,0c-0.1,0-0.1-0.1,0-0.1c0,0,1.3-2.5,4.8-2.1c3.5,0.3,5,3.4,5,3.4c0,0,0,0.1,0,0.1
		C100.7,71.2,100.5,71.3,100.4,71.3z M95.3,67.4c0.4,0,0.7,0,1.1,0.1c1.7,0.3,3.6,1.4,4.1,3.5c0,0,0,0,0,0c0.1-0.1,0.4-0.3,0.6-0.5
		c-0.2-0.4-1.7-2.9-4.8-3.2c-1.1-0.1-2,0.1-2.7,0.4C94.1,67.5,94.7,67.4,95.3,67.4z"/>
</g>
<g>
	<path class="st2" d="M90.2,71.9c3.9,1.2,7.3,1.1,10.1-0.9c0,0-0.6-3.2-5-3.2S90.2,71.9,90.2,71.9z"/>
	<path class="st23" d="M94.9,72.9c-1.4,0-3-0.3-4.8-0.8L89.9,72l0-0.2c0,0,0.9-4.3,5.3-4.3c4.5,0,5.2,3.4,5.2,3.4l0,0.1l-0.1,0.1
		C98.8,72.3,97,72.9,94.9,72.9z M90.4,71.7c4,1.2,7.1,0.9,9.6-0.8c-0.2-0.6-1-2.9-4.7-2.9C91.7,67.9,90.6,70.9,90.4,71.7z"/>
</g>
<path class="st24" d="M95,67.8c0,0-1.2,1,0.7,3c3.1,2.1,4.3-0.4,4.3-0.4C99.5,68.9,97.6,67.6,95,67.8z"/>
<path class="st25" d="M95.6,68.5c0,0,0.5-0.3,1.1,0.1c0.5,0.2,2,1.3,2,1.3s0.5,0.4,0.3,0.8s-1.3,0.7-1.7,0.8
	C96.1,71.5,94.1,69.7,95.6,68.5z"/>
<circle class="st26" cx="97.6" cy="69.2" r="1"/>
<circle class="st2" cx="98.6" cy="69.6" r="0.4"/>
<path class="st27" d="M101.6,70.4c0,0-1.6,2.2-4.4,2.4c2.6-0.8,4-2.9,4-2.9L101.6,70.4z"/>
<path class="st2" d="M94.7,69.5c0,0,0.6-0.3,1,0c0.4,0.2-0.1,0.5-0.1,0.5l-0.5,0.3C95,70,94.9,69.7,94.7,69.5z"/>
<g>
	<path class="st22" d="M79.5,69.4c0,0-1.2-2.4-4.7-2.1c-3.5,0.3-4.9,3.3-4.9,3.3s1.1,1,0.8,0.5C71.5,67.4,77.5,66.4,79.5,69.4z"/>
	<path class="st22" d="M70.7,71.4c-0.1,0-0.3-0.1-0.9-0.7c0,0,0-0.1,0-0.1c0,0,1.5-3.1,5-3.4c3.5-0.3,4.8,2.1,4.8,2.1
		c0,0.1,0,0.1,0,0.1c-0.1,0-0.1,0-0.1,0c-0.9-1.3-2.7-1.9-4.7-1.6c-1.6,0.3-3.4,1.3-3.9,3.3C70.8,71.2,70.8,71.3,70.7,71.4
		C70.7,71.4,70.7,71.4,70.7,71.4z M70,70.6c0.2,0.2,0.4,0.4,0.6,0.5c0,0,0,0,0,0c0.5-2.1,2.4-3.2,4.1-3.5c1-0.2,2-0.1,2.8,0.2
		c-0.7-0.3-1.6-0.5-2.7-0.4C71.7,67.7,70.2,70.2,70,70.6z"/>
</g>
<g>
	<path class="st2" d="M80.9,72c-3.9,1.2-7.3,1.1-10.1-0.9c0,0,0.6-3.2,5-3.2S80.9,72,80.9,72z"/>
	<path class="st23" d="M76.1,73c-2.1,0-3.9-0.6-5.5-1.7l-0.1-0.1l0-0.1c0,0,0.7-3.4,5.2-3.4s5.3,4.3,5.3,4.3l0,0.2l-0.2,0.1
		C79.2,72.7,77.6,73,76.1,73z M71,71c2.4,1.7,5.5,2,9.6,0.8c-0.2-0.8-1.2-3.8-4.9-3.8C72.1,68.1,71.2,70.4,71,71z"/>
</g>
<path class="st24" d="M75.1,68.1c0,0-1.2,1,0.7,3c3.1,2.1,4.3-0.4,4.3-0.4C79.6,69.2,77.8,67.9,75.1,68.1z"/>
<path class="st25" d="M75.7,68.8c0,0,0.5-0.3,1.1,0.1c0.5,0.2,2,1.3,2,1.3s0.5,0.4,0.3,0.8s-1.3,0.7-1.7,0.8
	C76.3,71.8,74.3,70.1,75.7,68.8z"/>
<circle class="st26" cx="77.7" cy="69.5" r="1"/>
<circle class="st2" cx="78.7" cy="70" r="0.4"/>
<path class="st27" d="M69.5,70.7c0,0,1.6,2.2,4.4,2.4c-2.6-0.8-4-2.9-4-2.9L69.5,70.7z"/>
<path class="st2" d="M74.9,69.8c0,0,0.6-0.3,1,0c0.4,0.2-0.1,0.5-0.1,0.5l-0.5,0.3C75.2,70.3,75,70.1,74.9,69.8z"/>
<path class="st28" d="M90,63.2c0.3,0,3.2,0.2,3.2,0.2s6.8-1.2,8.8,3.2c-1.7-2-3.4-1.8-3.4-1.8c-2.3-0.1-5.2,1.1-6,1
	C91.8,65.7,89.4,64.7,90,63.2z"/>
<path class="st29" d="M90.8,63.9c0,0,0.6,1.4,1.7,1.4c1.2,0.1,3.1-1.2,5.9-0.9c-0.2-0.4-1.8-0.5-3.5-0.5
	C92.5,64.1,91.5,63.9,90.8,63.9z"/>
<path class="st28" d="M81.5,61.2c-0.3,0-3.2,0.6-3.2,0.6s-6.9-0.3-8.3,4.3c1.4-2.2,3.2-2.3,3.2-2.3c2.2-0.4,5.3,0.4,6.1,0.3
	C80,64,82.3,62.7,81.5,61.2z"/>
<path class="st29" d="M80.8,62c0,0-0.4,1.5-1.5,1.7c-1.2,0.2-3.2-0.8-6-0.1c0.2-0.4,1.7-0.7,3.4-1C79.2,62.5,80.1,62.2,80.8,62z"/>
<g>
	<path class="st3" d="M63,109.2c0,0-12.7-3.4-17.9,9c-2.7,9.1-2.3,19.9-2.3,19.9c-1,8.9-0.9,16.9,0.8,23.9c1.5,8,6.3,10.2,13.2,9.1
		l6.5-0.5c-1.3-6.5-0.9-13,1.5-19.4l-9.8-0.3c5.1-3.3,6.3-14.4,5.2-22.9L63,109.2z"/>
	<path class="st8" d="M53.6,171.6c-5.7,0-9.1-3.2-10.3-9.6c-1.6-6.6-1.9-14.5-0.8-23.9c0-0.5-0.3-11.1,2.3-20l0,0
		c2.7-6.5,7.5-8.6,11.1-9.3c3.8-0.7,7,0.1,7.1,0.2l0.2,0.1l-2.9,18.9c1.1,8.6-0.1,18.9-4.7,22.7l9.4,0.3l-0.1,0.4
		c-2.3,6.1-2.8,12.6-1.5,19.3l0.1,0.3l-6.8,0.6C55.7,171.5,54.6,171.6,53.6,171.6z M45.3,118.2c-2.6,9-2.3,19.7-2.3,19.8l0,0l0,0
		c-1.1,9.4-0.8,17.2,0.8,23.8c1.3,7.2,5.5,10.1,12.8,8.9l6.2-0.5c-1.2-6.5-0.7-12.9,1.4-18.9l-10.3-0.3l0.7-0.5
		c4.9-3.2,6.3-13.8,5.1-22.7l0,0l2.8-18.5c-0.8-0.2-3.5-0.7-6.7-0.1C51,110.2,47.4,113.2,45.3,118.2z"/>
</g>
<path class="st4" d="M48.7,156.5c0,0,2.7-3.9,4-4.3s6.5-0.5,6.5-0.5C54.3,152.7,50.9,154.3,48.7,156.5z"/>
<path class="st4" d="M46.7,154.3c0,0,2.1-3.1,3.3-3.6c1.2-0.5,5,0.1,5,0.1C51.6,151.4,48.9,152.6,46.7,154.3z"/>
<path class="st5" d="M114.7,148c-3.1-0.8-8.6-2.3-12.1-2.3c-2.7-0.1-11.1,2.7-20.6,4.1c-7.3,0.8-13.2,1.4-17.2,1.9
	c-2.1,6.5-2.9,13-1.3,18.9c11.1-2.9,24.3-7.8,38.1-13.5c2.9-1.3,8.7-0.9,10.8-2.1C113,153,114.4,149.9,114.7,148z"/>
<path class="st7" d="M62.9,167.3c0.1,1.1,0.4,2.2,0.6,3.3c15.3-3.9,27.8-10,39-13.3l-0.1-0.5c3.3-0.6,8.9-1,9.9-1.8l1.3-3.6
	c-1.2,1.3-4.4,2.1-7.7,2.8c0,0-4.4-2-4.6-1.9c-0.2,0.1-0.4,1.5-0.3,1.9C87.8,160.5,74.7,165,62.9,167.3z"/>
<path class="st9" d="M64.2,156c4.8-2,21.7-5.4,35.4-7.3c0,0,5.3,0.7,5.2,2.2c-0.2,1.4-7.3-0.4-7.3-0.4l-27.8,8.5
	C66.9,159.5,65.2,158.4,64.2,156z"/>
<path class="st11" d="M58.1,124.3c-2-4-4.2-6.5-6.6-6.6c-0.2,0.3,1.4,1.8,3.5,4.2l-0.1,0c0,0,0.3,0.2,0.6,0.6c0.4,0.5,0.8,1,1.2,1.5
	c1.9,2.6,4.3,7.7,2.8,15.2c0.4,0.9,1.4,1.6,1.4,1.6C62.3,133.1,60.5,128.4,58.1,124.3z"/>
<path class="st5" d="M67.7,151.4l-3.7-7.3c-2.3-2.5-5-5.7-6.6-6.7c-1.8-0.7-4.4-1.1-6.8-1.4c0,0-1.9-0.4-2.3,0.5
	c-0.4,0.9,1.2,1.4,1.2,1.4l-5,0.7c0,0-0.7,0.5-0.7,1.2s1.2,1.2,1.2,1.2s-1.2,0.5-1.1,1.6c0.1,1,3.5,1.6,3.5,1.6s-0.7,1.1-0.4,2.1
	c0.2,0.6,3,1.5,3.3,1.9c0.4,0.3,2.3,2.1,2.3,2.1l12.1,1l0.1,0.7L67.7,151.4z"/>
<g>
	<path class="st13" d="M62,145.5c-0.8-0.8-1.6-1.7-2.4-2.5c-0.8-0.8-1.6-1.7-2.5-2.4c-0.9-0.7-1.9-1.3-2.9-1.7
		c-1.1-0.4-2.2-0.7-3.3-0.9c1.1,0.1,2.3,0.4,3.4,0.8c1.1,0.4,2.1,1,3,1.7c0.9,0.7,1.8,1.5,2.6,2.3c0.8,0.8,1.6,1.6,2.5,2.4
		c0.1,0.1,0.1,0.3,0,0.4S62.2,145.6,62,145.5C62,145.5,62,145.5,62,145.5z"/>
	<path class="st13" d="M56.9,145.9c-0.6-1-1.3-1.8-2.2-2.6c-0.9-0.7-1.8-1.3-2.9-1.8c-1.1-0.4-2.2-0.7-3.3-0.8
		c-1.1-0.1-2.3-0.1-3.4,0.1c1.1-0.2,2.3-0.3,3.5-0.2c1.2,0.1,2.3,0.3,3.4,0.7c1.1,0.4,2.1,1,3.1,1.7c0.9,0.7,1.7,1.6,2.4,2.6
		c0.1,0.1,0.1,0.3-0.1,0.4C57.2,146,57,146,56.9,145.9C56.9,145.9,56.9,145.9,56.9,145.9z"/>
	<path class="st13" d="M55.4,148.2c-1.2-0.9-2.4-1.8-3.7-2.6c-0.6-0.4-1.3-0.7-2-1c-0.7-0.3-1.4-0.5-2.2-0.7
		c0.8,0.1,1.5,0.3,2.2,0.5c0.7,0.2,1.4,0.6,2.1,0.9c1.3,0.7,2.6,1.6,3.9,2.4c0.1,0.1,0.2,0.3,0.1,0.4
		C55.7,148.3,55.6,148.3,55.4,148.2C55.4,148.2,55.4,148.2,55.4,148.2L55.4,148.2z"/>
</g>
<path class="st4" d="M52.8,123.9c0,0,2.2,3.8,3.2,4.7c0.7,1.1,4.6,4,4.6,4c-1.5-4.6-4.2-5.4-7.6-8.7"/>
<g>
	<rect x="166.8" y="39.6" class="st2" width="5.1" height="7.8"/>
	<rect x="176.9" y="39.6" class="st2" width="5.1" height="7.8"/>
	<rect x="177.1" y="29.9" class="st2" width="3.1" height="6.6"/>
	<polygon class="st2" points="174.1,29.9 164,39.6 184.3,39.6 	"/>
</g>
<g>
	<circle class="st30" cx="192.9" cy="142.4" r="7.4"/>
	<g>
		<path class="st2" d="M195.7,145.9c-0.4,0.3-1.3,0.6-2.3,0.6c-1.1,0-2.2-0.4-3-1.2c-0.5-0.5-0.9-1.2-1-2h-1.1v-0.8h1
			c0-0.2,0-0.3,0-0.4c0-0.2,0-0.4,0.1-0.6h-1v-0.8h1.1c0.2-0.8,0.6-1.5,1.1-2c0.9-0.9,2-1.3,3.2-1.3c1,0,1.7,0.3,2.1,0.5l-0.3,1.1
			c-0.4-0.2-1-0.4-1.8-0.4c-0.7,0-1.5,0.2-2.1,0.8c-0.3,0.3-0.6,0.8-0.7,1.3h4.2v0.8h-4.4c0,0.2,0,0.4,0,0.5c0,0.2,0,0.3,0,0.5h4.4
			v0.8h-4.3c0.1,0.5,0.4,0.9,0.7,1.2c0.6,0.6,1.3,0.8,2.1,0.8c0.8,0,1.5-0.2,1.9-0.4L195.7,145.9z"/>
	</g>
</g>
<g>
	<circle class="st30" cx="221.9" cy="61.9" r="7.4"/>
	<circle class="st2" cx="225.2" cy="62.1" r="1.4"/>
	<circle class="st2" cx="221.7" cy="59" r="1.4"/>
	<path class="st31" d="M217.4,59.8c-0.6,5.2,2.3,8.2,6.6,6.6"/>
</g>
<path class="st2" d="M169.8,83.9c0,0,1.1-4,3.8-3.8c2.7,0.2,2.8,3.6,2.8,3.6c0.3,2.8-0.3,5.3-1.6,8.1c-3.7-0.1-6.7-1.1-8.9-3.1
	C162.5,86,165.3,82.1,169.8,83.9z"/>
<g>
	<path class="st2" d="M243.3,109.5l8.1,10.1c0.2,0.8-1.2,1.8-1.9,1.5l-7.6-10.5c-1.5,0.3-2.7-0.4-3.6-1.9l-3-5.1
		c-0.2-0.2,0.2-0.5,0.3-0.2l2.7,3.7l0.4-0.3l-2.6-3.8c-0.2-0.3,0.1-0.5,0.3-0.2l2.8,3.6l0.5-0.4l-2.7-3.7c-0.2-0.3,0-0.5,0.3-0.2
		l3,3.4l0.5-0.3l-2.9-3.5c-0.2-0.3,0.1-0.5,0.3-0.2l4.6,4.7C243.6,107.1,243.9,108.3,243.3,109.5z"/>
	<path class="st2" d="M251.6,106.4l6.6,8.2c-0.1,0.9-1,1.6-1.9,1.5L242.8,98c-0.3-0.4-0.1-0.5,0.5-0.4c2.9,0.8,8.4,6,8.6,7.7
		C252,105.7,251.8,106.1,251.6,106.4z"/>
</g>
<g>
	<circle class="st2" cx="262.4" cy="34.3" r="3.5"/>
	<path class="st2" d="M258.5,42.8v2.7h7.8v-2.3l2.9,2.9c1.2,1.2,3.2-0.7,1.9-1.9l-5.8-5.8c-1.8,0.5-3.7,0.5-5.6,0l-5.7,5.7
		c-1.5,1.5,0.4,3.3,1.8,1.8L258.5,42.8z"/>
	<path class="st2" d="M266.3,47.1l-2.7,2.7l1.9,2.3l-2.3,2.3c-1.1,1.1,0.9,3,1.9,1.9l3.9-4.3c0.6-0.9,0.6-1.7,0-2.3L266.3,47.1z"/>
	<path class="st2" d="M258.6,47.1l2.7,2.7l-1.9,2.3l2.3,2.3c1.1,1.1-0.9,3-1.9,1.9l-3.9-4.3c-0.6-0.9-0.6-1.7,0-2.3L258.6,47.1z"/>
</g>
<polygon class="st2" points="269.4,145.9 272.1,151.3 278,152.2 273.7,156.3 274.7,162.2 269.4,159.4 264.1,162.2 265.1,156.3 
	260.8,152.2 266.8,151.3 "/>
<g>
	<path class="st12" d="M88.3,35.7c-10.4-0.3-18,3.8-22.4,12.9c11,15.9,27.1,13.6,40,21.3c1.1-1.3,3.2-3.4,5-1.5
		C110.9,44.5,100.9,36.7,88.3,35.7z M91.9,40.5c-3.6-1.2-12.2-1.5-12.2-1.5s6.8-1.9,13.2,0.3c6.4,2.2,12,9.3,12,9.3
		S95.4,41.6,91.9,40.5z"/>
	<path class="st2" d="M104.9,48.6c0,0-4.2-5.9-10.7-8.8c-6.5-2.9-14.7-0.8-14.7-0.8s8.9,0.5,12.4,1.5
		C95.5,41.6,104.9,48.6,104.9,48.6z"/>
</g>
<g>
</g>
<g>
</g>
<g>
</g>
<g>
</g>
<g>
</g>
<g>
</g>
</svg>
