<?xml version="1.0" encoding="utf-8"?>
<!-- Generator: Adobe Illustrator 22.0.1, SVG Export Plug-In . SVG Version: 6.00 Build 0)  -->
<svg version="1.1" id="Ebene_1" xmlns="http://www.w3.org/2000/svg" xmlns:xlink="http://www.w3.org/1999/xlink" x="0px" y="0px"
	 viewBox="0 0 626 417" style="enable-background:new 0 0 626 417;" xml:space="preserve">
<style type="text/css">
	.st0{fill:#A0D2F2;}
	.st1{fill:#736862;}
	.st2{fill:#B9B6B3;}
	.st3{fill:#EFA47E;}
	.st4{fill-rule:evenodd;clip-rule:evenodd;fill:#182942;}
	.st5{fill-rule:evenodd;clip-rule:evenodd;fill:#020203;}
	.st6{fill-rule:evenodd;clip-rule:evenodd;fill:#133658;}
	.st7{fill:#F2BC98;}
	.st8{fill-rule:evenodd;clip-rule:evenodd;fill:#C1DBDF;}
	.st9{fill-rule:evenodd;clip-rule:evenodd;fill:#D9ECEE;}
	.st10{fill:#133658;}
	.st11{fill-rule:evenodd;clip-rule:evenodd;fill:#EFA47E;}
	.st12{fill:#1E1F1D;}
	.st13{fill:none;stroke:#1E1F1D;stroke-width:0.2127;stroke-miterlimit:10;}
	.st14{fill:none;stroke:#1E1F1D;stroke-width:0.6382;stroke-linecap:round;stroke-linejoin:round;stroke-miterlimit:10;}
	.st15{fill:#6D93CC;}
	.st16{fill:#FFFFFF;}
	.st17{fill:#5E7EAB;}
	.st18{fill:none;stroke:#FFFFFF;stroke-width:0.2988;stroke-miterlimit:10;}
	.st19{fill:none;stroke:#4E6B8C;stroke-width:0.2157;stroke-miterlimit:10;}
	.st20{fill:none;stroke:#5E7EAB;stroke-width:0.4314;stroke-linecap:round;stroke-linejoin:round;stroke-miterlimit:10;}
	.st21{fill:none;stroke:#5E7EAB;stroke-width:4.1805;stroke-miterlimit:10;}
	.st22{fill:none;stroke:#4D6486;stroke-width:0.3755;stroke-linecap:round;stroke-linejoin:round;stroke-miterlimit:10;}
	.st23{fill:none;stroke:#5E7EAB;stroke-width:1.0951;stroke-linecap:round;stroke-linejoin:round;stroke-miterlimit:10;}
	.st24{fill:#57739C;}
	.st25{fill:none;stroke:#FFFFFF;stroke-width:0.2738;stroke-miterlimit:10;}
	.st26{opacity:0.3;fill:#FFFFFF;}
</style>
<path class="st0" d="M0.4,352.2h625.7V0H0v351.5C0.1,351.8,0.2,352,0.4,352.2z"/>
<path class="st1" d="M626.1,360.5c-0.3-2.4-0.2-61.4-0.1-63l-39.7-10.9l-239,59.7l-12.7,19.7l-95.4-26.1l-45.7,17.2L41.6,318
	L0.1,330.8L0,369.2c-0.1,1.5,0.1,47.5,0.1,47.5c0.7,0,617.7,0.7,626.1,0.2C626.1,409,626.3,361.8,626.1,360.5z"/>
<path class="st2" d="M626.2,360.8l-33.3-14.9L460,349.4l-46.6,36.3l-177.1-48.5l-42.6,21.9L79.4,377.3l-25.9-32.8l-22.2-2.3L0,362.2
	c0,0.3,0.1,54.5,0.1,54.5c0.7,0,593.3,0.6,603.9,0.2c8.5-0.3,13.7,0.5,22.2,0.1C626.1,409,626.3,361.5,626.2,360.8z"/>
<path class="st1" d="M626.2,399.6c0-0.6-0.1-2-0.1-2.7l-83.1-7.7l-25.2-9.9l-393,6l-28.2,18.2l-43.8-15.3l-39.1,28.9
	c0,0,497.1-0.2,505.8-0.2c22,0.1,31.8,0,53.8,0c10.7,0,19.1,0.4,29.7,0c8.5-0.3,14.5,0.4,23,0C625.9,409,625.9,407.6,626.2,399.6z"
	/>
<g>
	<g>
		<path class="st3" d="M429.9,157.1c0,0-3,8.2-2,10.4c1,2.2-1.8,4.9-1.8,4.9s-1.5,0.9-1.3,2.5c0.2,1.6,2.5,1.3,2.5,1.3l0.3,3.1
			l0.7,6.2c0,0,1,2.2,6.4,0.9c5.3-1.4,7.2,0.8,7.2,0.8l9.2-1.8l1.3-2.5l0.4-24.4L429.9,157.1z"/>
		<path class="st4" d="M449.7,271.3c-8.4,7.5-17.6,16.9-20.1,24.7c-0.3,1,0.4,3.5,1.3,4.5c5.1,5.6,8.8,1.7,12.5-0.6
			c7.2-4.5,21.4-11.3,27-16.5l0,0c8.2-5.8,4.4-13.7,4.1-14.9c-1.4-5.2,7.5-21.4,5.8-25.9l-23.6,20.7
			C458.2,266.6,452.3,266.3,449.7,271.3z"/>
		<path class="st4" d="M445.1,296.3c1.7,8.1,0.7,21.7-0.2,37.4c0.7,3.3-8,10.8-12,7.7l-3.2-44c-1-3.5,7.5-13.6,10.7-17.1
			C444,276.4,443.4,288.4,445.1,296.3z"/>
		<path class="st5" d="M434.5,337.6c-0.8,2.7-1.4,4.8-2.3,7.1c-0.8,1.8-1.8,3.8-2.8,5.8c-0.7,1.6-2.6,2.8-2.8,4.3
			c-0.1,1,0.5,2,2.2,2.3c1.9,0.3,4.7-0.9,6.6-2c3.9-2.3,6.1-6.4,8.4-10.2l0.6,0.7l3.5-3.7l-0.9-3.6c-1.1-2.9-1.7-3-4-5.2l-4,1.9
			L434.5,337.6z"/>
		<g>
			<path class="st6" d="M473.3,275c-5.1,10.5-10.2,23.4-9.3,33c0.1,1.3,1.9,4,3.2,4.9c7.5,5.3,9.4,0,12.1-3.6
				c1.8-2.3,15.6-19.6,18.2-24.5c5.7-10.7-2.3-18.8-3.1-20.1c-3.6-5.6-10.4-15.9-14.1-22.8l-15.4,19.8
				C465.6,265.6,472.6,269.6,473.3,275z"/>
			<path class="st6" d="M481.3,303.4c5.1,8.9,9.3,25.2,14.5,44c2.1,3.6-4.7,15.1-10.3,12.8l-20.8-50.7c-2.4-3.8,3-18.3,5.2-23.4
				C472.3,280.4,476.3,294.7,481.3,303.4z"/>
		</g>
		<path class="st5" d="M485.5,354.8c0.2,3.4,0.4,6.1,0.2,9.1c-0.1,2.4-0.5,5-0.8,7.7c-0.2,2-1.8,4.1-1.4,5.9c0.3,1.3,1.3,2.2,3.4,2
			c2.2-0.2,4.9-2.5,6.6-4.4c3.4-4,4.2-9.4,5.3-14.6l0.9,0.7l2.4-5.4l-2.4-3.9c-2.4-3.1-3.1-3-6.5-4.9l-3.7,3.5L485.5,354.8z"/>
		<path class="st7" d="M385.4,170.9c-0.3,0.4-2.1-0.7-2.1-0.7s-2.2-1.5-2.7-0.8c-0.6,0.7,0.9,1.8,0.9,1.8l2.2,1.8
			c2.3,1.3,6.2,1,7.2,1.1c1,0.1,3.5,2.8,3.5,2.8l4.4-5.5c0,0-4-3-4.5-3.6c-1.1-2.1-3.7-5.3-4.2-5.7c-1.3-1.3-3.4-2.7-4.4-2.9
			c-1.5-0.3-1.8,0.3-1.5,0.8c1.5,0.8,2.6,1.3,3.4,2c0.2,0.2-0.2,0.7-0.3,0.4c-1.7-1.8-3.4-3.2-4.8-3.3c-1.2-0.1-2.5,0.2-2.6,0.9
			c0.1,0.7,1.6,0.4,2.9,1c1.1,0.5,1.9,1.5,2.9,2.3c0.2,0.2-0.1,0.6-0.3,0.4c-2.3-2-4.5-3.3-6.6-4.1c-1.4-0.6-2.1,1.2-0.3,1.7
			c1.9,0.5,3.4,1.9,5.5,3.8c0.2,0.2-0.2,0.6-0.4,0.5c-2.3-1.8-3.5-2.9-5.8-3.4c-1.2-0.1-1.5,0.8-0.3,1.4
			C379.1,164.7,386,169.9,385.4,170.9z"/>
		<path class="st7" d="M384.6,229.3c-0.1-0.5-2.1-0.5-2.1-0.5s-2.6,0.1-2.7-0.8c-0.1-0.9,1.8-1,1.8-1l2.8-0.3
			c2.6,0.1,5.8,2.5,6.7,2.9c0.9,0.4,4.5-0.5,4.5-0.5l0.8,7c0,0-5,0.4-5.8,0.7c-2,1.2-6,2.4-6.6,2.6c-1.8,0.4-4.4,0.5-5.2,0.1
			c-1.4-0.5-1.3-1.2-0.9-1.5c1.7,0.2,2.9,0.3,3.9,0.1c0.3-0.1,0.2-0.6-0.1-0.5c-2.4,0.6-4.6,0.9-5.8,0.2c-1.1-0.6-2-1.5-1.7-2.1
			c0.5-0.6,1.6,0.5,3,0.6c1.2,0.1,2.3-0.2,3.7-0.4c0.3,0,0.2-0.6-0.1-0.5c-3,0.5-5.6,0.4-7.7-0.1c-1.5-0.2-1.2-2.1,0.7-1.6
			c1.9,0.6,3.9,0.2,6.7-0.3c0.3-0.1,0.1-0.7-0.1-0.6c-2.9,0.3-4.5,0.6-6.7-0.2c-1.1-0.5-0.8-1.5,0.5-1.4
			C375.9,231.1,384.5,230.4,384.6,229.3z"/>
		<path class="st8" d="M411.9,196c-5.9-2.8-1.4-11.1,5.1-8.5c6.6,1.8,22.3,4.4,26.5,9c3.1,3.4,2.2,6.3,0.8,8.1
			c-1.3,1.6-3.9,2.5-7,2.2C430.1,205.9,417.8,198.8,411.9,196z"/>
		<path class="st8" d="M391.1,174.7c0.1,0.1,20.9,23.8,22.1,22.3c2.2-1.9,6.6-6.1,9-8.4c-3.9-1.9-25-18.1-27.4-19.8
			C392.7,168.3,389.5,172.8,391.1,174.7z"/>
		<path class="st8" d="M393,236.5c0.2,0,31.6-1.3,31.3-3.1c-0.1-2.9-0.6-9-0.8-12.3c-3.9,1.9-29.8,8-32.7,8.9
			C389.1,231.2,390.6,236.5,393,236.5z"/>
		<path class="st9" d="M430.8,220.1c3.5,13.3,23.7,40.3,24.9,42.1c1.2,1.8,1.8,2.7,2.9,2.8c13.4,2.9,30.2-8.4,21.2-23.6
			c-5.1-10.3-18.1-54.6-32-50.5C437.8,193.9,427.8,208.8,430.8,220.1z"/>
		<path class="st8" d="M426.8,232c-4.6,4.7-10.9-2.3-6.5-7.5c3.8-5.7,11.3-19.7,17-22.2c4.2-1.9,6.7-0.1,7.9,1.9
			c1.1,1.7,1.1,4.5-0.2,7.3C442,217.9,431.4,227.3,426.8,232z"/>
		<path class="st10" d="M428.7,159.6"/>
		<path class="st11" d="M451.1,185.4c-0.1,2.8,0,3.2,0.7,5.9c0,1.4-4.7,7.3-8,4.8c-0.3-1.8-1.4-7.1-1.9-8.9L451.1,185.4z"/>
		<path class="st12" d="M454.3,183.8c-2-0.6-3.8-1.6-5.3-3c-0.9-1.4-1.1-2.9-0.1-4.2l2.5-3.1c2.6-3.8-2.8-6.4-5.7-4.5l-6,3.6
			c-2.1,0.6-4.2-2.1-3.5-5.6c0,0,2.5-1.6,0.9-4.3c-1.6-2.7-10.9-7.9-10.9-7.9c3.3-6,12-10.7,19.6-10.3c9.9,0.5,14.4,6.8,18,14.2
			c1.5,4.2,0.9,10-1.6,15.2C460.2,178.4,457.7,181.9,454.3,183.8z"/>
		<path class="st12" d="M437,188.8l-0.3,0c-0.3,0-0.6-0.3-0.5-0.6l1.8-18.2c0-0.3,0.3-0.6,0.6-0.5l0.3,0c0.3,0,0.6,0.3,0.5,0.6
			l-1.8,18.2C437.6,188.6,437.3,188.8,437,188.8z"/>
		<path class="st12" d="M437,189.1l-0.2-0.3c-0.2-0.3-0.1-0.7,0.1-0.9l14.6-10.8c0.3-0.2,0.7-0.1,0.9,0.1l0.2,0.3
			c0.2,0.3,0.1,0.7-0.1,0.9l-14.6,10.8C437.6,189.5,437.2,189.4,437,189.1z"/>
		<g>
			<path class="st13" d="M427.5,180.1c0.1,0.5,4.6,0.6,5.7-0.6"/>
			<path class="st14" d="M427.5,165.6c1.8-0.8,5.9-0.8,7.6,2.4"/>
			<path class="st13" d="M429.9,167.3c0.1,1.2,1.5,2,3.1,1.8"/>
			<path class="st13" d="M433,169.1c-0.1,0.2-1.2,1.2-2.9,1.6"/>
		</g>
	</g>
	<polygon class="st15" points="313.2,51.8 108.4,417 518,417 	"/>
	<g>
		<path class="st16" d="M277.2,203.4h1.6l0.9,6.2h0.2l1.3-6.2h1.8l1.3,6.2h0.2l0.9-6.2h1.6l-1.4,7.4h-2.3l-1.2-5.7l-1.2,5.7h-2.3
			L277.2,203.4z"/>
		<path class="st16" d="M289.1,209.4c0.2,0.2,0.4,0.2,0.7,0.2c0.7,0,1.3,0,1.8-0.1l0.3,0l0,1.1c-0.8,0.2-1.6,0.3-2.3,0.3
			c-0.8,0-1.4-0.2-1.8-0.7c-0.4-0.4-0.6-1.2-0.6-2.1c0-2,0.8-2.9,2.4-2.9c1.6,0,2.4,0.8,2.4,2.5l-0.1,1h-3.2
			C288.8,209,288.9,209.3,289.1,209.4z M290.7,207.6c0-0.4-0.1-0.7-0.2-0.9c-0.1-0.2-0.4-0.3-0.7-0.3s-0.6,0.1-0.7,0.3
			c-0.1,0.2-0.2,0.5-0.2,0.9H290.7z"/>
		<path class="st16" d="M293.2,210.8v-5.5h1.5v0.6c0.6-0.4,1.2-0.6,1.8-0.7v1.5c-0.6,0.1-1.1,0.3-1.5,0.4l-0.2,0.1v3.7H293.2z"/>
		<path class="st16" d="M300.3,206.6h-1.3v2.2c0,0.2,0,0.4,0,0.5c0,0.1,0.1,0.2,0.1,0.2c0.1,0.1,0.2,0.1,0.3,0.1l0.8,0l0.1,1.2
			c-0.5,0.1-0.9,0.2-1.1,0.2c-0.7,0-1.1-0.1-1.3-0.4c-0.2-0.3-0.4-0.8-0.4-1.6v-2.3h-0.6v-1.2h0.6v-1.5h1.5v1.5h1.3V206.6z"/>
		<path class="st16" d="M305.2,206.7c-0.9-0.1-1.5-0.2-1.9-0.2s-0.6,0-0.7,0.1c-0.1,0.1-0.2,0.2-0.2,0.3s0.1,0.2,0.2,0.3
			c0.1,0.1,0.5,0.1,1.1,0.2c0.6,0.1,1,0.3,1.3,0.5s0.4,0.6,0.4,1.2c0,1.2-0.7,1.8-2.2,1.8c-0.5,0-1.1-0.1-1.8-0.2l-0.4-0.1l0-1.2
			c0.9,0.1,1.5,0.2,1.9,0.2s0.6,0,0.7-0.1c0.1-0.1,0.2-0.2,0.2-0.3s-0.1-0.2-0.2-0.3c-0.1-0.1-0.5-0.1-1.1-0.2
			c-0.6-0.1-1-0.3-1.3-0.5c-0.3-0.2-0.4-0.6-0.4-1.2c0-0.6,0.2-1,0.6-1.3c0.4-0.3,0.9-0.4,1.5-0.4c0.4,0,1,0.1,1.8,0.2l0.4,0.1
			L305.2,206.7z"/>
		<path class="st16" d="M308.5,205.2c0.4,0,0.9,0.1,1.5,0.2l0.3,0.1l0,1.2c-0.6-0.1-1-0.1-1.3-0.1c-0.5,0-0.8,0.1-1,0.3
			c-0.2,0.2-0.2,0.6-0.2,1.2c0,0.6,0.1,1,0.2,1.2c0.2,0.2,0.5,0.3,1,0.3l1.3-0.1l0,1.2c-0.8,0.2-1.4,0.2-1.8,0.2
			c-0.8,0-1.4-0.2-1.7-0.7s-0.5-1.2-0.5-2.2c0-1,0.2-1.7,0.5-2.2C307.1,205.4,307.7,205.2,308.5,205.2z"/>
		<path class="st16" d="M312.8,210.8h-1.5v-7.7h1.5v2.5c0.5-0.3,1-0.4,1.4-0.4c0.7,0,1.2,0.2,1.5,0.6s0.4,1.1,0.4,2v3h-1.5v-2.9
			c0-0.5-0.1-0.8-0.2-1s-0.3-0.3-0.7-0.3c-0.3,0-0.6,0-0.9,0.1l-0.1,0V210.8z"/>
		<path class="st16" d="M321.6,207v2.3c0,0.2,0,0.3,0.1,0.4s0.1,0.1,0.3,0.1l0,1.1c-0.4,0-0.7,0-0.9-0.1s-0.4-0.2-0.7-0.3
			c-0.5,0.3-1.1,0.4-1.6,0.4c-1.1,0-1.7-0.6-1.7-1.8c0-0.6,0.2-1,0.5-1.2c0.3-0.2,0.8-0.4,1.4-0.4l1.2-0.1V207
			c0-0.2-0.1-0.4-0.2-0.5c-0.1-0.1-0.3-0.1-0.5-0.1l-2.1,0.1l0-1c0.8-0.2,1.5-0.3,2.2-0.3c0.7,0,1.2,0.1,1.5,0.4
			C321.4,205.9,321.6,206.4,321.6,207z M317.4,204.3v-1.4h1.4v1.4H317.4z M319.1,208.5c-0.4,0-0.6,0.3-0.6,0.7s0.2,0.6,0.5,0.6
			c0.3,0,0.6,0,0.9-0.1l0.2,0v-1.2L319.1,208.5z M319.8,204.3v-1.4h1.4v1.4H319.8z"/>
		<path class="st16" d="M326,206.6h-1.3v2.2c0,0.2,0,0.4,0,0.5s0.1,0.2,0.1,0.2s0.2,0.1,0.3,0.1l0.8,0l0.1,1.2
			c-0.5,0.1-0.9,0.2-1.1,0.2c-0.7,0-1.1-0.1-1.3-0.4c-0.2-0.3-0.4-0.8-0.4-1.6v-2.3h-0.6v-1.2h0.6v-1.5h1.5v1.5h1.3V206.6z"/>
		<path class="st16" d="M326.7,206.7v-1.3h4.1v1.3l-2.3,2.8h2.3v1.3h-4.1v-1.3l2.3-2.8H326.7z"/>
		<path class="st16" d="M335.1,205.3h1.5v5.5h-1.5v-0.3c-0.5,0.3-1,0.4-1.4,0.4c-0.8,0-1.3-0.2-1.5-0.6s-0.4-1.1-0.4-2.1v-2.9h1.5
			v2.9c0,0.5,0,0.9,0.1,1.1c0.1,0.2,0.3,0.3,0.6,0.3c0.3,0,0.6-0.1,0.9-0.2l0.1,0V205.3z"/>
		<path class="st16" d="M339.4,210.8H338v-5.5h1.5v0.3c0.5-0.3,1-0.4,1.4-0.4c0.7,0,1.2,0.2,1.5,0.6s0.4,1.1,0.4,2v3h-1.5v-2.9
			c0-0.5-0.1-0.8-0.2-1s-0.3-0.3-0.7-0.3c-0.3,0-0.6,0.1-0.9,0.2l-0.1,0V210.8z"/>
		<path class="st16" d="M349,211.5c0,0.6-0.2,1.1-0.7,1.4c-0.5,0.3-1.1,0.4-2,0.4s-1.5-0.1-1.9-0.3c-0.4-0.2-0.7-0.6-0.7-1.2
			c0-0.5,0.3-0.9,0.8-1.3c-0.3-0.2-0.4-0.5-0.4-0.8c0-0.1,0.1-0.4,0.3-0.7l0.1-0.2c-0.5-0.4-0.7-0.9-0.7-1.6c0-0.7,0.2-1.2,0.6-1.5
			c0.4-0.3,1-0.5,1.7-0.5c0.3,0,0.6,0,0.9,0.1l0.2,0l1.8-0.1v1.2l-0.8-0.1c0.2,0.2,0.2,0.5,0.2,0.7c0,0.7-0.2,1.2-0.6,1.5
			c-0.4,0.3-1,0.4-1.8,0.4c-0.2,0-0.3,0-0.4,0c-0.1,0.2-0.1,0.3-0.1,0.5c0,0.1,0.1,0.2,0.2,0.2c0.1,0,0.4,0.1,0.9,0.1
			c0.9,0,1.5,0.1,1.9,0.4S349,210.9,349,211.5z M345.2,211.7c0,0.3,0.4,0.5,1.2,0.5s1.2-0.2,1.2-0.5c0-0.2-0.1-0.3-0.2-0.4
			c-0.1-0.1-0.4-0.1-0.8-0.1l-1-0.1C345.3,211.2,345.2,211.4,345.2,211.7z M345.3,207.2c0,0.5,0.3,0.8,0.8,0.8s0.8-0.3,0.8-0.8
			c0-0.5-0.3-0.8-0.8-0.8S345.3,206.6,345.3,207.2z"/>
	</g>
	<g>
		<path class="st16" d="M269,269.7h-4.2v-7.4h1.5v6.1h2.7V269.7z"/>
		<path class="st16" d="M269.8,263.5v-1.5h1.5v1.5H269.8z M269.8,269.7v-5.5h1.5v5.5H269.8z"/>
		<path class="st16" d="M274.1,268.3c0.2,0.2,0.4,0.2,0.7,0.2c0.7,0,1.3,0,1.8-0.1l0.3,0l0,1.1c-0.8,0.2-1.6,0.3-2.3,0.3
			c-0.8,0-1.4-0.2-1.8-0.7c-0.4-0.4-0.6-1.2-0.6-2.1c0-2,0.8-2.9,2.4-2.9c1.6,0,2.4,0.8,2.4,2.5l-0.1,1h-3.2
			C273.8,267.9,273.9,268.2,274.1,268.3z M275.7,266.5c0-0.4-0.1-0.7-0.2-0.9c-0.1-0.2-0.4-0.3-0.7-0.3s-0.6,0.1-0.7,0.3
			c-0.1,0.2-0.2,0.5-0.2,0.9H275.7z"/>
		<path class="st16" d="M280.9,264.1c0.8,0,1.3,0.2,1.7,0.6c0.4,0.4,0.5,1.2,0.5,2.3s-0.2,1.8-0.6,2.2s-1.1,0.6-2.1,0.6
			c-0.3,0-0.9,0-1.7-0.1l-0.4,0v-7.6h1.5v2.4C280.1,264.2,280.5,264.1,280.9,264.1z M280.3,268.5c0.5,0,0.8-0.1,1-0.4
			s0.3-0.7,0.3-1.3c0-1-0.3-1.5-0.9-1.5c-0.3,0-0.6,0-0.8,0.1l-0.2,0v2.9C280,268.5,280.2,268.5,280.3,268.5z"/>
		<path class="st16" d="M285.6,268.3c0.2,0.2,0.4,0.2,0.7,0.2c0.7,0,1.3,0,1.8-0.1l0.3,0l0,1.1c-0.8,0.2-1.6,0.3-2.3,0.3
			c-0.8,0-1.4-0.2-1.8-0.7c-0.4-0.4-0.6-1.2-0.6-2.1c0-2,0.8-2.9,2.4-2.9c1.6,0,2.4,0.8,2.4,2.5l-0.1,1h-3.2
			C285.4,267.9,285.5,268.2,285.6,268.3z M287.2,266.5c0-0.4-0.1-0.7-0.2-0.9c-0.1-0.2-0.4-0.3-0.7-0.3s-0.6,0.1-0.7,0.3
			c-0.1,0.2-0.2,0.5-0.2,0.9H287.2z"/>
		<path class="st16" d="M289.4,269.6l3.2-7.8l1.3,0.5l-3.2,7.8L289.4,269.6z"/>
		<path class="st16" d="M297,263.6v-1.3h4.9v1.3l-3.1,4.6v0.2h3.1v1.3H297v-1.3l3.1-4.6v-0.2H297z"/>
		<path class="st16" d="M306.2,264.2h1.5v5.5h-1.5v-0.3c-0.5,0.3-1,0.4-1.4,0.4c-0.8,0-1.3-0.2-1.5-0.6c-0.3-0.4-0.4-1.1-0.4-2.1
			v-2.9h1.5v2.9c0,0.5,0,0.9,0.1,1.1c0.1,0.2,0.3,0.3,0.6,0.3c0.3,0,0.6-0.1,0.9-0.2l0.1,0V264.2z"/>
		<path class="st16" d="M314,270.4c0,0.6-0.2,1.1-0.7,1.4c-0.5,0.3-1.1,0.4-2,0.4c-0.8,0-1.5-0.1-1.9-0.3c-0.4-0.2-0.7-0.6-0.7-1.2
			c0-0.5,0.3-0.9,0.8-1.3c-0.3-0.2-0.4-0.5-0.4-0.8c0-0.1,0.1-0.4,0.3-0.7l0.1-0.2c-0.5-0.4-0.7-0.9-0.7-1.6c0-0.7,0.2-1.2,0.6-1.5
			c0.4-0.3,1-0.5,1.7-0.5c0.3,0,0.6,0,0.9,0.1l0.2,0l1.8-0.1v1.2l-0.8-0.1c0.2,0.2,0.2,0.5,0.2,0.7c0,0.7-0.2,1.2-0.6,1.5
			c-0.4,0.3-1,0.4-1.8,0.4c-0.2,0-0.3,0-0.4,0c-0.1,0.2-0.1,0.3-0.1,0.5c0,0.1,0.1,0.2,0.2,0.2c0.1,0,0.4,0.1,0.9,0.1
			c0.9,0,1.5,0.1,1.9,0.4S314,269.8,314,270.4z M310.2,270.6c0,0.3,0.4,0.5,1.2,0.5s1.2-0.2,1.2-0.5c0-0.2-0.1-0.3-0.2-0.4
			c-0.1-0.1-0.4-0.1-0.8-0.1l-1-0.1C310.3,270.1,310.2,270.3,310.2,270.6z M310.3,266.1c0,0.5,0.3,0.8,0.8,0.8s0.8-0.3,0.8-0.8
			c0-0.5-0.3-0.8-0.8-0.8S310.3,265.5,310.3,266.1z"/>
		<path class="st16" d="M316.4,268.3c0.2,0.2,0.4,0.2,0.7,0.2c0.7,0,1.3,0,1.8-0.1l0.3,0l0,1.1c-0.8,0.2-1.6,0.3-2.3,0.3
			c-0.8,0-1.4-0.2-1.8-0.7c-0.4-0.4-0.6-1.2-0.6-2.1c0-2,0.8-2.9,2.4-2.9c1.6,0,2.4,0.8,2.4,2.5l-0.1,1h-3.2
			C316.1,267.9,316.2,268.2,316.4,268.3z M318,266.5c0-0.4-0.1-0.7-0.2-0.9c-0.1-0.2-0.4-0.3-0.7-0.3s-0.6,0.1-0.7,0.3
			c-0.1,0.2-0.2,0.5-0.2,0.9H318z"/>
		<path class="st16" d="M321.9,269.7h-1.5v-7.7h1.5v2.5c0.5-0.3,1-0.4,1.4-0.4c0.7,0,1.2,0.2,1.5,0.6s0.4,1.1,0.4,2v3h-1.5v-2.9
			c0-0.5-0.1-0.8-0.2-1s-0.3-0.3-0.7-0.3c-0.3,0-0.6,0-0.9,0.1l-0.1,0V269.7z"/>
		<path class="st16" d="M326.8,264.9c0.4-0.5,1-0.8,1.9-0.8s1.6,0.3,1.9,0.8c0.4,0.5,0.6,1.2,0.6,2.1c0,1.9-0.8,2.9-2.5,2.9
			c-1.7,0-2.5-1-2.5-2.9C326.3,266.1,326.4,265.4,326.8,264.9z M326.9,263.2v-1.4h1.4v1.4H326.9z M328,268.2
			c0.1,0.3,0.4,0.4,0.8,0.4c0.4,0,0.7-0.1,0.8-0.4c0.1-0.3,0.2-0.7,0.2-1.2c0-0.6-0.1-1-0.2-1.2c-0.1-0.3-0.4-0.4-0.8-0.4
			c-0.4,0-0.7,0.1-0.8,0.4c-0.2,0.3-0.2,0.7-0.2,1.2C327.7,267.5,327.8,267.9,328,268.2z M329.2,263.2v-1.4h1.4v1.4H329.2z"/>
		<path class="st16" d="M332.4,269.7v-5.5h1.5v0.6c0.6-0.4,1.2-0.6,1.8-0.7v1.5c-0.6,0.1-1.1,0.3-1.5,0.4l-0.2,0.1v3.7H332.4z"/>
		<path class="st16" d="M336.4,263.5v-1.5h1.5v1.5H336.4z M336.4,269.7v-5.5h1.5v5.5H336.4z"/>
		<path class="st16" d="M344.2,270.4c0,0.6-0.2,1.1-0.7,1.4c-0.5,0.3-1.1,0.4-2,0.4s-1.5-0.1-1.9-0.3c-0.4-0.2-0.7-0.6-0.7-1.2
			c0-0.5,0.3-0.9,0.8-1.3c-0.3-0.2-0.4-0.5-0.4-0.8c0-0.1,0.1-0.4,0.3-0.7l0.1-0.2c-0.5-0.4-0.7-0.9-0.7-1.6c0-0.7,0.2-1.2,0.6-1.5
			c0.4-0.3,1-0.5,1.7-0.5c0.3,0,0.6,0,0.9,0.1l0.2,0l1.8-0.1v1.2l-0.8-0.1c0.2,0.2,0.2,0.5,0.2,0.7c0,0.7-0.2,1.2-0.6,1.5
			c-0.4,0.3-1,0.4-1.8,0.4c-0.2,0-0.3,0-0.4,0c-0.1,0.2-0.1,0.3-0.1,0.5c0,0.1,0.1,0.2,0.2,0.2c0.1,0,0.4,0.1,0.9,0.1
			c0.9,0,1.5,0.1,1.9,0.4S344.2,269.8,344.2,270.4z M340.4,270.6c0,0.3,0.4,0.5,1.2,0.5s1.2-0.2,1.2-0.5c0-0.2-0.1-0.3-0.2-0.4
			c-0.1-0.1-0.4-0.1-0.8-0.1l-1-0.1C340.5,270.1,340.4,270.3,340.4,270.6z M340.5,266.1c0,0.5,0.3,0.8,0.8,0.8s0.8-0.3,0.8-0.8
			c0-0.5-0.3-0.8-0.8-0.8S340.5,265.5,340.5,266.1z"/>
		<path class="st16" d="M346.6,269.7h-1.5v-7.7h1.5v4.4l0.6-0.1l1.1-2.1h1.6l-1.4,2.6l1.5,2.9h-1.7l-1.1-2.1l-0.6,0.1V269.7z"/>
		<path class="st16" d="M352.1,268.3c0.2,0.2,0.4,0.2,0.7,0.2c0.7,0,1.3,0,1.8-0.1l0.3,0l0,1.1c-0.8,0.2-1.6,0.3-2.3,0.3
			c-0.8,0-1.4-0.2-1.8-0.7c-0.4-0.4-0.6-1.2-0.6-2.1c0-2,0.8-2.9,2.4-2.9c1.6,0,2.4,0.8,2.4,2.5l-0.1,1h-3.2
			C351.9,267.9,352,268.2,352.1,268.3z M353.7,266.5c0-0.4-0.1-0.7-0.2-0.9c-0.1-0.2-0.4-0.3-0.7-0.3s-0.6,0.1-0.7,0.3
			c-0.1,0.2-0.2,0.5-0.2,0.9H353.7z"/>
		<path class="st16" d="M356.2,263.5v-1.5h1.5v1.5H356.2z M356.2,269.7v-5.5h1.5v5.5H356.2z"/>
		<path class="st16" d="M362.1,265.5h-1.3v2.2c0,0.2,0,0.4,0,0.5s0.1,0.2,0.1,0.2s0.2,0.1,0.3,0.1l0.8,0l0.1,1.2
			c-0.5,0.1-0.9,0.2-1.1,0.2c-0.7,0-1.1-0.1-1.3-0.4c-0.2-0.3-0.4-0.8-0.4-1.6v-2.3h-0.6v-1.2h0.6v-1.5h1.5v1.5h1.3V265.5z"/>
	</g>
	<g>
		<path class="st16" d="M292.4,325.7c-0.8,0-1.2,0.3-1.2,0.8c0,0.2,0.1,0.4,0.3,0.5s0.7,0.3,1.4,0.5c0.7,0.2,1.2,0.5,1.5,0.8
			s0.4,0.8,0.4,1.4c0,0.8-0.2,1.4-0.7,1.8c-0.5,0.4-1.1,0.6-1.9,0.6c-0.6,0-1.3-0.1-2.1-0.3l-0.4-0.1l0.2-1.2c1,0.1,1.7,0.2,2.2,0.2
			c0.8,0,1.2-0.3,1.2-1c0-0.2-0.1-0.4-0.3-0.5c-0.2-0.1-0.5-0.3-1.1-0.4c-0.8-0.2-1.4-0.5-1.8-0.9s-0.5-0.8-0.5-1.4
			c0-0.7,0.2-1.3,0.7-1.7s1.1-0.5,1.9-0.5c0.5,0,1.2,0.1,2.1,0.2l0.4,0.1l-0.1,1.2C293.5,325.8,292.8,325.7,292.4,325.7z"/>
		<path class="st16" d="M295.9,325.8v-1.5h1.5v1.5H295.9z M295.9,332v-5.5h1.5v5.5H295.9z"/>
		<path class="st16" d="M300.8,326.3c0.4,0,0.9,0.1,1.5,0.2l0.3,0.1l0,1.2c-0.6-0.1-1-0.1-1.3-0.1c-0.5,0-0.8,0.1-1,0.3
			c-0.2,0.2-0.2,0.6-0.2,1.2c0,0.6,0.1,1,0.2,1.2c0.2,0.2,0.5,0.3,1,0.3l1.3-0.1l0,1.2c-0.8,0.2-1.4,0.2-1.8,0.2
			c-0.8,0-1.4-0.2-1.7-0.7s-0.5-1.2-0.5-2.2c0-1,0.2-1.7,0.5-2.2C299.4,326.6,300,326.3,300.8,326.3z"/>
		<path class="st16" d="M305.1,332h-1.5v-7.7h1.5v2.5c0.5-0.3,1-0.4,1.4-0.4c0.7,0,1.2,0.2,1.5,0.6c0.3,0.4,0.4,1.1,0.4,2v3h-1.5
			V329c0-0.5-0.1-0.8-0.2-1s-0.3-0.3-0.7-0.3c-0.3,0-0.6,0-0.9,0.1l-0.1,0V332z"/>
		<path class="st16" d="M311.1,330.6c0.2,0.2,0.4,0.2,0.7,0.2c0.7,0,1.3,0,1.8-0.1l0.3,0l0,1.1c-0.8,0.2-1.6,0.3-2.3,0.3
			c-0.8,0-1.4-0.2-1.8-0.7c-0.4-0.4-0.6-1.2-0.6-2.1c0-2,0.8-2.9,2.4-2.9c1.6,0,2.4,0.8,2.4,2.5l-0.1,1h-3.2
			C310.9,330.2,311,330.4,311.1,330.6z M312.8,328.7c0-0.4-0.1-0.7-0.2-0.9c-0.1-0.2-0.4-0.3-0.7-0.3s-0.6,0.1-0.7,0.3
			c-0.1,0.2-0.2,0.5-0.2,0.9H312.8z"/>
		<path class="st16" d="M315.3,332v-5.5h1.5v0.6c0.6-0.4,1.2-0.6,1.8-0.7v1.5c-0.6,0.1-1.1,0.3-1.5,0.4l-0.2,0.1v3.7H315.3z"/>
		<path class="st16" d="M320.8,332h-1.5v-7.7h1.5v2.5c0.5-0.3,1-0.4,1.4-0.4c0.7,0,1.2,0.2,1.5,0.6s0.4,1.1,0.4,2v3h-1.5V329
			c0-0.5-0.1-0.8-0.2-1s-0.3-0.3-0.7-0.3c-0.3,0-0.6,0-0.9,0.1l-0.1,0V332z"/>
		<path class="st16" d="M326.9,330.6c0.2,0.2,0.4,0.2,0.7,0.2c0.7,0,1.3,0,1.8-0.1l0.3,0l0,1.1c-0.8,0.2-1.6,0.3-2.3,0.3
			c-0.8,0-1.4-0.2-1.8-0.7c-0.4-0.4-0.6-1.2-0.6-2.1c0-2,0.8-2.9,2.4-2.9c1.6,0,2.4,0.8,2.4,2.5l-0.1,1h-3.2
			C326.6,330.2,326.7,330.4,326.9,330.6z M328.5,328.7c0-0.4-0.1-0.7-0.2-0.9c-0.1-0.2-0.4-0.3-0.7-0.3s-0.6,0.1-0.7,0.3
			c-0.1,0.2-0.2,0.5-0.2,0.9H328.5z"/>
		<path class="st16" d="M331,325.8v-1.5h1.5v1.5H331z M331,332v-5.5h1.5v5.5H331z"/>
		<path class="st16" d="M336.8,327.7h-1.3v2.2c0,0.2,0,0.4,0,0.5s0.1,0.2,0.1,0.2s0.2,0.1,0.3,0.1l0.8,0l0.1,1.2
			c-0.5,0.1-0.9,0.2-1.1,0.2c-0.7,0-1.1-0.1-1.3-0.4c-0.2-0.3-0.4-0.8-0.4-1.6v-2.3h-0.6v-1.2h0.6V325h1.5v1.5h1.3V327.7z"/>
	</g>
	<g>
		<path class="st16" d="M284.1,388.7h-1.2v2.2h-1.5v-7.4h2.7c1.8,0,2.7,0.9,2.7,2.6c0,0.9-0.2,1.5-0.7,2
			C285.6,388.5,285,388.7,284.1,388.7z M282.9,387.4h1.2c0.8,0,1.1-0.5,1.1-1.4c0-0.5-0.1-0.8-0.3-1c-0.2-0.2-0.5-0.3-0.9-0.3h-1.2
			V387.4z"/>
		<path class="st16" d="M289.1,390.9h-1.5v-7.7h1.5v2.5c0.5-0.3,1-0.4,1.4-0.4c0.7,0,1.2,0.2,1.5,0.6c0.3,0.4,0.4,1.1,0.4,2v3H291
			v-2.9c0-0.5-0.1-0.8-0.2-1s-0.3-0.3-0.7-0.3c-0.3,0-0.6,0-0.9,0.1l-0.1,0V390.9z"/>
		<path class="st16" d="M293.2,385.4h1.4l1,4.2h0.3l1-4.2h1.4l-1.9,7.8H295l0.6-2.3h-1L293.2,385.4z"/>
		<path class="st16" d="M303,386.8c-0.9-0.1-1.5-0.2-1.9-0.2s-0.6,0-0.7,0.1c-0.1,0.1-0.2,0.2-0.2,0.3s0.1,0.2,0.2,0.3
			c0.1,0.1,0.5,0.1,1.1,0.2c0.6,0.1,1,0.3,1.3,0.5s0.4,0.6,0.4,1.2c0,1.2-0.7,1.8-2.2,1.8c-0.5,0-1.1-0.1-1.8-0.2l-0.4-0.1l0-1.2
			c0.9,0.1,1.5,0.2,1.9,0.2s0.6,0,0.7-0.1c0.1-0.1,0.2-0.2,0.2-0.3s-0.1-0.2-0.2-0.3c-0.1-0.1-0.5-0.1-1.1-0.2
			c-0.6-0.1-1-0.3-1.3-0.5c-0.3-0.2-0.4-0.6-0.4-1.2c0-0.6,0.2-1,0.6-1.3c0.4-0.3,0.9-0.4,1.5-0.4c0.4,0,1,0.1,1.8,0.2l0.4,0.1
			L303,386.8z"/>
		<path class="st16" d="M304.3,384.7v-1.5h1.5v1.5H304.3z M304.3,390.9v-5.5h1.5v5.5H304.3z"/>
		<path class="st16" d="M307.4,386c0.4-0.5,1-0.8,1.9-0.8c0.9,0,1.6,0.3,1.9,0.8c0.4,0.5,0.6,1.2,0.6,2.1c0,1.9-0.8,2.9-2.5,2.9
			c-1.7,0-2.5-1-2.5-2.9C306.8,387.2,307,386.5,307.4,386z M308.5,389.4c0.1,0.3,0.4,0.4,0.8,0.4c0.4,0,0.7-0.1,0.8-0.4
			c0.1-0.3,0.2-0.7,0.2-1.2c0-0.6-0.1-1-0.2-1.2c-0.1-0.3-0.4-0.4-0.8-0.4c-0.4,0-0.7,0.1-0.8,0.4c-0.1,0.3-0.2,0.7-0.2,1.2
			C308.3,388.7,308.4,389.1,308.5,389.4z"/>
		<path class="st16" d="M313,390.9v-7.7h1.5v7.7H313z"/>
		<path class="st16" d="M316.2,386c0.4-0.5,1-0.8,1.9-0.8s1.6,0.3,1.9,0.8c0.4,0.5,0.6,1.2,0.6,2.1c0,1.9-0.8,2.9-2.5,2.9
			c-1.7,0-2.5-1-2.5-2.9C315.6,387.2,315.8,386.5,316.2,386z M317.3,389.4c0.1,0.3,0.4,0.4,0.8,0.4c0.4,0,0.7-0.1,0.8-0.4
			c0.1-0.3,0.2-0.7,0.2-1.2c0-0.6-0.1-1-0.2-1.2c-0.1-0.3-0.4-0.4-0.8-0.4c-0.4,0-0.7,0.1-0.8,0.4c-0.2,0.3-0.2,0.7-0.2,1.2
			C317.1,388.7,317.1,389.1,317.3,389.4z"/>
		<path class="st16" d="M326.6,391.5c0,0.6-0.2,1.1-0.7,1.4c-0.5,0.3-1.1,0.4-2,0.4s-1.5-0.1-1.9-0.3c-0.4-0.2-0.7-0.6-0.7-1.2
			c0-0.5,0.3-0.9,0.8-1.3c-0.3-0.2-0.4-0.5-0.4-0.8c0-0.1,0.1-0.4,0.3-0.7l0.1-0.2c-0.5-0.4-0.7-0.9-0.7-1.6c0-0.7,0.2-1.2,0.6-1.5
			c0.4-0.3,1-0.5,1.7-0.5c0.3,0,0.6,0,0.9,0.1l0.2,0l1.8-0.1v1.2l-0.8-0.1c0.2,0.2,0.2,0.5,0.2,0.7c0,0.7-0.2,1.2-0.6,1.5
			c-0.4,0.3-1,0.4-1.8,0.4c-0.2,0-0.3,0-0.4,0c-0.1,0.2-0.1,0.3-0.1,0.5c0,0.1,0.1,0.2,0.2,0.2c0.1,0,0.4,0.1,0.9,0.1
			c0.9,0,1.5,0.1,1.9,0.4S326.6,390.9,326.6,391.5z M322.9,391.7c0,0.3,0.4,0.5,1.2,0.5s1.2-0.2,1.2-0.5c0-0.2-0.1-0.3-0.2-0.4
			c-0.1-0.1-0.4-0.1-0.8-0.1l-1-0.1C323,391.3,322.9,391.5,322.9,391.7z M322.9,387.2c0,0.5,0.3,0.8,0.8,0.8s0.8-0.3,0.8-0.8
			c0-0.5-0.3-0.8-0.8-0.8S322.9,386.7,322.9,387.2z"/>
		<path class="st16" d="M327.5,384.7v-1.5h1.5v1.5H327.5z M327.5,390.9v-5.5h1.5v5.5H327.5z"/>
		<path class="st16" d="M334.3,386.8c-0.9-0.1-1.5-0.2-1.9-0.2s-0.6,0-0.7,0.1c-0.1,0.1-0.2,0.2-0.2,0.3s0.1,0.2,0.2,0.3
			s0.5,0.1,1.1,0.2c0.6,0.1,1,0.3,1.3,0.5s0.4,0.6,0.4,1.2c0,1.2-0.7,1.8-2.2,1.8c-0.5,0-1.1-0.1-1.8-0.2l-0.4-0.1l0-1.2
			c0.9,0.1,1.5,0.2,1.9,0.2c0.4,0,0.6,0,0.7-0.1c0.1-0.1,0.2-0.2,0.2-0.3s-0.1-0.2-0.2-0.3c-0.1-0.1-0.5-0.1-1.1-0.2s-1-0.3-1.3-0.5
			s-0.4-0.6-0.4-1.2c0-0.6,0.2-1,0.6-1.3c0.4-0.3,0.9-0.4,1.5-0.4c0.4,0,1,0.1,1.8,0.2l0.4,0.1L334.3,386.8z"/>
		<path class="st16" d="M337.6,385.3c0.4,0,0.9,0.1,1.5,0.2l0.3,0.1l0,1.2c-0.6-0.1-1-0.1-1.3-0.1c-0.5,0-0.8,0.1-1,0.3
			c-0.2,0.2-0.2,0.6-0.2,1.2c0,0.6,0.1,1,0.2,1.2c0.2,0.2,0.5,0.3,1,0.3l1.3-0.1l0,1.2c-0.8,0.2-1.4,0.2-1.8,0.2
			c-0.8,0-1.4-0.2-1.7-0.7c-0.4-0.5-0.5-1.2-0.5-2.2c0-1,0.2-1.7,0.5-2.2C336.2,385.5,336.8,385.3,337.6,385.3z"/>
		<path class="st16" d="M341.9,390.9h-1.5v-7.7h1.5v2.5c0.5-0.3,1-0.4,1.4-0.4c0.7,0,1.2,0.2,1.5,0.6s0.4,1.1,0.4,2v3h-1.5v-2.9
			c0-0.5-0.1-0.8-0.2-1s-0.3-0.3-0.7-0.3c-0.3,0-0.6,0-0.9,0.1l-0.1,0V390.9z"/>
	</g>
	<g>
		<path class="st16" d="M266.1,155.1c-0.8,0-1.2,0.3-1.2,0.8c0,0.2,0.1,0.4,0.3,0.5c0.2,0.1,0.7,0.3,1.4,0.5
			c0.7,0.2,1.2,0.5,1.5,0.8c0.3,0.3,0.4,0.8,0.4,1.4c0,0.8-0.2,1.4-0.7,1.8c-0.5,0.4-1.1,0.6-1.9,0.6c-0.6,0-1.3-0.1-2.1-0.3
			l-0.4-0.1l0.2-1.2c1,0.1,1.7,0.2,2.2,0.2c0.8,0,1.2-0.3,1.2-1c0-0.2-0.1-0.4-0.3-0.5c-0.2-0.1-0.5-0.3-1.1-0.4
			c-0.8-0.2-1.4-0.5-1.8-0.9s-0.5-0.8-0.5-1.4c0-0.7,0.2-1.3,0.7-1.7s1.1-0.5,1.9-0.5c0.5,0,1.2,0.1,2.1,0.2l0.4,0.1l-0.1,1.2
			C267.2,155.2,266.5,155.1,266.1,155.1z"/>
		<path class="st16" d="M271.1,160c0.2,0.1,0.4,0.2,0.7,0.2c0.7,0,1.3,0,1.8-0.1l0.3,0l0,1.1c-0.8,0.2-1.6,0.3-2.3,0.3
			c-0.8,0-1.4-0.2-1.8-0.7c-0.4-0.4-0.6-1.1-0.6-2.1c0-2,0.8-2.9,2.4-2.9c1.6,0,2.4,0.8,2.4,2.5l-0.1,1h-3.2
			C270.8,159.6,270.9,159.9,271.1,160z M272.7,158.2c0-0.4-0.1-0.7-0.2-0.9c-0.1-0.2-0.4-0.3-0.7-0.3s-0.6,0.1-0.7,0.3
			c-0.1,0.2-0.2,0.5-0.2,0.9H272.7z"/>
		<path class="st16" d="M275.3,161.4v-7.7h1.5v7.7H275.3z"/>
		<path class="st16" d="M280.8,155.8c0.8,0,1.3,0.2,1.7,0.6s0.5,1.2,0.5,2.3s-0.2,1.8-0.6,2.2s-1.1,0.6-2.1,0.6
			c-0.3,0-0.9,0-1.7-0.1l-0.4,0v-7.6h1.5v2.4C280.1,155.9,280.5,155.8,280.8,155.8z M280.3,160.2c0.5,0,0.8-0.1,1-0.4
			s0.3-0.7,0.3-1.3c0-1-0.3-1.5-0.9-1.5c-0.3,0-0.6,0-0.8,0.1l-0.2,0v2.9C280,160.2,280.2,160.2,280.3,160.2z"/>
		<path class="st16" d="M288.1,157.3c-0.9-0.1-1.5-0.2-1.9-0.2s-0.6,0-0.7,0.1c-0.1,0.1-0.2,0.2-0.2,0.3c0,0.1,0.1,0.2,0.2,0.3
			c0.1,0.1,0.5,0.1,1.1,0.2s1,0.3,1.3,0.5c0.2,0.2,0.4,0.6,0.4,1.2c0,1.2-0.7,1.8-2.2,1.8c-0.5,0-1.1-0.1-1.8-0.2l-0.4-0.1l0-1.2
			c0.9,0.1,1.5,0.2,1.9,0.2s0.6,0,0.7-0.1c0.1-0.1,0.2-0.2,0.2-0.3s-0.1-0.2-0.2-0.3c-0.1-0.1-0.5-0.1-1.1-0.2
			c-0.6-0.1-1-0.3-1.3-0.5c-0.3-0.2-0.4-0.6-0.4-1.2c0-0.6,0.2-1,0.6-1.3c0.4-0.3,0.9-0.4,1.5-0.4c0.4,0,1,0.1,1.8,0.2l0.4,0.1
			L288.1,157.3z"/>
		<path class="st16" d="M292.3,157.2H291v2.2c0,0.2,0,0.4,0,0.5c0,0.1,0.1,0.2,0.1,0.2c0.1,0.1,0.2,0.1,0.3,0.1l0.8,0l0.1,1.2
			c-0.5,0.1-0.9,0.2-1.1,0.2c-0.7,0-1.1-0.1-1.3-0.4c-0.2-0.3-0.4-0.8-0.4-1.6v-2.3h-0.6v-1.2h0.6v-1.5h1.5v1.5h1.3V157.2z"/>
		<path class="st16" d="M292.8,155.9h1.5l0.9,4.2h0.3l0.9-4.2h1.5l-1.3,5.5h-2.5L292.8,155.9z"/>
		<path class="st16" d="M300.1,160c0.2,0.1,0.4,0.2,0.7,0.2c0.7,0,1.3,0,1.8-0.1l0.3,0l0,1.1c-0.8,0.2-1.6,0.3-2.3,0.3
			c-0.8,0-1.4-0.2-1.8-0.7c-0.4-0.4-0.6-1.1-0.6-2.1c0-2,0.8-2.9,2.4-2.9c1.6,0,2.4,0.8,2.4,2.5l-0.1,1h-3.2
			C299.9,159.6,300,159.9,300.1,160z M301.7,158.2c0-0.4-0.1-0.7-0.2-0.9c-0.1-0.2-0.4-0.3-0.7-0.3s-0.6,0.1-0.7,0.3
			c-0.1,0.2-0.2,0.5-0.2,0.9H301.7z"/>
		<path class="st16" d="M304.2,161.4v-5.5h1.5v0.6c0.6-0.4,1.2-0.6,1.8-0.7v1.5c-0.6,0.1-1.1,0.3-1.5,0.4l-0.2,0.1v3.7H304.2z"/>
		<path class="st16" d="M307.9,155.9h1.4l0.7,4.2h0.3l0.8-4.1h1.5l0.8,4.1h0.3l0.7-4.2h1.4l-1,5.5h-2.3l-0.6-3.4l-0.6,3.4h-2.3
			L307.9,155.9z"/>
		<path class="st16" d="M316.8,155.2v-1.5h1.5v1.5H316.8z M316.8,161.4v-5.5h1.5v5.5H316.8z"/>
		<path class="st16" d="M319.6,161.4v-5.5h1.5v0.6c0.6-0.4,1.2-0.6,1.8-0.7v1.5c-0.6,0.1-1.1,0.3-1.5,0.4l-0.2,0.1v3.7H319.6z"/>
		<path class="st16" d="M325.1,161.4h-1.5v-7.7h1.5v4.4l0.6-0.1l1.1-2.1h1.6l-1.4,2.6l1.5,2.9h-1.7l-1.1-2.1l-0.6,0.1V161.4z"/>
		<path class="st16" d="M329.4,161.4v-7.7h1.5v7.7H329.4z"/>
		<path class="st16" d="M332.3,155.2v-1.5h1.5v1.5H332.3z M332.3,161.4v-5.5h1.5v5.5H332.3z"/>
		<path class="st16" d="M337.1,155.8c0.4,0,0.9,0.1,1.5,0.2l0.3,0.1l0,1.2c-0.6-0.1-1-0.1-1.3-0.1c-0.5,0-0.8,0.1-1,0.3
			c-0.2,0.2-0.2,0.6-0.2,1.2s0.1,1,0.2,1.2c0.2,0.2,0.5,0.3,1,0.3l1.3-0.1l0,1.2c-0.8,0.2-1.4,0.2-1.8,0.2c-0.8,0-1.4-0.2-1.7-0.7
			c-0.4-0.5-0.5-1.2-0.5-2.2s0.2-1.7,0.5-2.2C335.7,156,336.3,155.8,337.1,155.8z"/>
		<path class="st16" d="M341.4,161.4H340v-7.7h1.5v2.5c0.5-0.3,1-0.4,1.4-0.4c0.7,0,1.2,0.2,1.5,0.6s0.4,1.1,0.4,2v3h-1.5v-2.9
			c0-0.5-0.1-0.8-0.2-1s-0.3-0.3-0.7-0.3c-0.3,0-0.6,0-0.9,0.1l-0.1,0V161.4z"/>
		<path class="st16" d="M349.3,155.9h1.5v5.5h-1.5v-0.3c-0.5,0.3-1,0.4-1.4,0.4c-0.8,0-1.3-0.2-1.5-0.6s-0.4-1.1-0.4-2.1v-2.9h1.5
			v2.9c0,0.5,0,0.9,0.1,1.1c0.1,0.2,0.3,0.3,0.6,0.3c0.3,0,0.6-0.1,0.9-0.2l0.1,0V155.9z"/>
		<path class="st16" d="M353.5,161.4h-1.5v-5.5h1.5v0.3c0.5-0.3,1-0.4,1.4-0.4c0.7,0,1.2,0.2,1.5,0.6s0.4,1.1,0.4,2v3h-1.5v-2.9
			c0-0.5-0.1-0.8-0.2-1s-0.3-0.3-0.7-0.3c-0.3,0-0.6,0.1-0.9,0.2l-0.1,0V161.4z"/>
		<path class="st16" d="M363.1,162.1c0,0.6-0.2,1.1-0.7,1.4c-0.5,0.3-1.1,0.4-2,0.4s-1.5-0.1-1.9-0.3c-0.4-0.2-0.7-0.6-0.7-1.2
			c0-0.5,0.3-0.9,0.8-1.3c-0.3-0.2-0.4-0.5-0.4-0.8c0-0.1,0.1-0.4,0.3-0.7l0.1-0.2c-0.5-0.4-0.7-0.9-0.7-1.6s0.2-1.2,0.6-1.5
			s1-0.5,1.7-0.5c0.3,0,0.6,0,0.9,0.1l0.2,0l1.8-0.1v1.2l-0.8-0.1c0.2,0.2,0.2,0.5,0.2,0.7c0,0.7-0.2,1.2-0.6,1.5
			c-0.4,0.3-1,0.4-1.8,0.4c-0.2,0-0.3,0-0.4,0c-0.1,0.2-0.1,0.3-0.1,0.5c0,0.1,0.1,0.2,0.2,0.2s0.4,0.1,0.9,0.1
			c0.9,0,1.5,0.1,1.9,0.4C362.9,161,363.1,161.5,363.1,162.1z M359.3,162.2c0,0.3,0.4,0.5,1.2,0.5s1.2-0.2,1.2-0.5
			c0-0.2-0.1-0.3-0.2-0.4c-0.1-0.1-0.4-0.1-0.8-0.1l-1-0.1C359.4,161.8,359.3,162,359.3,162.2z M359.4,157.8c0,0.5,0.3,0.8,0.8,0.8
			s0.8-0.3,0.8-0.8s-0.3-0.8-0.8-0.8S359.4,157.2,359.4,157.8z"/>
	</g>
	<g>
		<g>
			
				<ellipse transform="matrix(0.9961 -8.782788e-02 8.782788e-02 0.9961 -21.5996 20.6729)" class="st17" cx="224.1" cy="255.8" rx="3.5" ry="3.9"/>
			<path class="st17" d="M221.3,269.4l1.6,17.7c0.2,2.2,3.7,1.8,3.5-0.3l-1.1-12.1c0,0-0.1-1.3,0.2-1.4s0.5,1.3,0.5,1.3l1.1,12.1
				c0.2,2.2,3.9,1.9,3.7-0.3l-1.6-17.9l1.3,5.3c0.2,2.5,4,2.4,3.7-0.3c-0.8-4.3-2.1-8.1-4.3-11.2c-0.5-1.1-1.3-1.7-2.4-1.9
				c-2-0.2-3.8,0-5.4,0.5c-1.4,0.4-2,0.7-2.6,1.8c-1.8,3.9-2.6,7.9-2.4,12.1c0.3,2.9,3.9,2.6,3.6-0.3L221.3,269.4z"/>
		</g>
		<g>
			
				<ellipse transform="matrix(0.9961 -8.782788e-02 8.782788e-02 0.9961 -21.4386 21.8539)" class="st17" cx="237.6" cy="254.6" rx="3.5" ry="3.9"/>
			<path class="st17" d="M234.8,268.2l1.6,17.7c0.2,2.2,3.7,1.8,3.5-0.3l-1.1-12.1c0,0-0.1-1.3,0.2-1.4s0.5,1.3,0.5,1.3l1.1,12.1
				c0.2,2.2,3.9,1.9,3.7-0.3l-1.6-17.9l1.3,5.3c0.2,2.5,4,2.4,3.7-0.3c-0.8-4.3-2.1-8.1-4.3-11.2c-0.5-1.1-1.3-1.7-2.4-1.9
				c-2-0.2-3.8,0-5.4,0.5c-1.4,0.4-2,0.7-2.6,1.8c-1.8,3.9-2.6,7.9-2.4,12.1c0.3,2.9,3.9,2.6,3.6-0.3L234.8,268.2z"/>
		</g>
	</g>
	<path class="st17" d="M389.1,254.5c0,0,3.1-5,6.7-3.6s2.3,6.1,2.3,6.1c-0.8,3.9-2.6,7.1-5.5,10.5c-5.1-1.7-8.8-4.3-11-7.9
		C378.3,254.4,383.7,250.2,389.1,254.5z"/>
	<g>
		<path class="st17" d="M254.2,343.9l-22.6-3.6c-0.4-0.1-0.7-0.4-0.6-0.8l2.4-14.7c0.1-0.4,0.4-0.7,0.8-0.6l5.3,0.8l17.3,2.8
			c0.4,0.1,0.7,0.4,0.6,0.8l-2.4,14.7C254.9,343.7,254.6,343.9,254.2,343.9z"/>
		<circle class="st16" cx="244.6" cy="331.5" r="2"/>
		<polygon class="st16" points="243.2,332.8 245.4,333.2 245.4,337.8 241.8,337.2 		"/>
		<path class="st17" d="M240.2,320.1c0.1-0.8,1.8-5.5,6.8-4.6c4.4,0.7,5.7,4.3,5.2,7.3l-0.7,4.1l2.4,0.4l0.7-4.6
			c0.2-1.1-0.1-8.4-7.3-9.4c-7.2-1.1-9.5,5.9-9.7,7.1l-0.7,4.2l2.5,0.4L240.2,320.1z"/>
	</g>
	<g>
		
			<rect x="188.4" y="325.6" transform="matrix(0.9987 -5.178433e-02 5.178433e-02 0.9987 -17.0097 10.8394)" class="st17" width="24.5" height="16.1"/>
		<polygon class="st17" points="199.1,312.9 183.5,326.9 216,325.2 		"/>
		
			<rect x="205.6" y="313.3" transform="matrix(0.9987 -5.178433e-02 5.178433e-02 0.9987 -16.1596 11.18)" class="st17" width="4.1" height="8.2"/>
		<g>
			
				<rect x="192.4" y="328.1" transform="matrix(0.9987 -5.178433e-02 5.178433e-02 0.9987 -16.8527 10.5561)" class="st18" width="5.8" height="4.7"/>
			
				<rect x="195" y="328.2" transform="matrix(0.9987 -5.178433e-02 5.178433e-02 0.9987 -16.8537 10.5561)" class="st16" width="0.6" height="4.6"/>
			
				<rect x="195" y="327.7" transform="matrix(5.178433e-02 0.9987 -0.9987 5.178433e-02 515.2425 118.3456)" class="st16" width="0.6" height="5.6"/>
		</g>
		<g>
			
				<rect x="201.7" y="327.6" transform="matrix(0.9987 -5.178433e-02 5.178433e-02 0.9987 -16.8131 11.0389)" class="st18" width="5.8" height="4.7"/>
			
				<rect x="204.3" y="327.7" transform="matrix(0.9987 -5.178433e-02 5.178433e-02 0.9987 -16.8142 11.0389)" class="st16" width="0.6" height="4.6"/>
			
				<rect x="204.3" y="327.2" transform="matrix(5.178433e-02 0.9987 -0.9987 5.178433e-02 523.5748 108.527)" class="st16" width="0.6" height="5.6"/>
		</g>
		
			<rect x="192.8" y="335.9" transform="matrix(0.9987 -5.178433e-02 5.178433e-02 0.9987 -17.2903 10.564)" class="st16" width="4.9" height="6.2"/>
	</g>
	<g>
		
			<rect x="369.9" y="323.6" transform="matrix(0.9757 0.219 -0.219 0.9757 80.612 -74.549)" class="st17" width="13.3" height="5.4"/>
		<path class="st17" d="M365.9,335.9l-1.5-0.3c-1.3-0.3-2.1-1.6-1.8-2.9l3.9-17.5c0.3-1.3,1.6-2.1,2.9-1.8l1.5,0.3
			c1.3,0.3,2.1,1.6,1.8,2.9l-3.9,17.5C368.5,335.4,367.2,336.2,365.9,335.9z"/>
		<path class="st17" d="M362.1,331.8l-1-0.2c-1.2-0.3-2-1.5-1.7-2.7l2.4-10.8c0.3-1.2,1.5-2,2.7-1.7l1,0.2c1.2,0.3,2,1.5,1.7,2.7
			l-2.4,10.8C364.5,331.3,363.3,332,362.1,331.8z"/>
		<path class="st17" d="M360.4,326.4l-1.2-0.3c-1.2-0.3-1.9-1.4-1.6-2.6l0.4-2c0.3-1.2,1.4-1.9,2.6-1.6l1.2,0.3
			c1.2,0.3,1.9,1.4,1.6,2.6l-0.4,2C362.7,325.9,361.5,326.6,360.4,326.4z"/>
		<path class="st17" d="M387.2,317.3l1.5,0.3c1.3,0.3,2.1,1.6,1.8,2.9l-3.9,17.5c-0.3,1.3-1.6,2.1-2.9,1.8l-1.5-0.3
			c-1.3-0.3-2.1-1.6-1.8-2.9l3.9-17.5C384.6,317.8,385.9,317,387.2,317.3z"/>
		<path class="st17" d="M391,321.4l1,0.2c1.2,0.3,2,1.5,1.7,2.7l-2.4,10.8c-0.3,1.2-1.5,2-2.7,1.7l-1-0.2c-1.2-0.3-2-1.5-1.7-2.7
			l2.4-10.8C388.6,321.9,389.8,321.2,391,321.4z"/>
		<path class="st17" d="M392.7,326.8l1.2,0.3c1.2,0.3,1.9,1.4,1.6,2.6l-0.4,2c-0.3,1.2-1.4,1.9-2.6,1.6l-1.2-0.3
			c-1.2-0.3-1.9-1.4-1.6-2.6l0.4-2C390.4,327.3,391.6,326.5,392.7,326.8z"/>
	</g>
	<g>
		<path class="st17" d="M427.1,322.1c-5,2.3-10.2,10-7.8,16.5c0,0-0.3,6.1,15.6,4.2c14.6-0.5,14.2-7.5,14.2-7.5
			c0.7-6.9-5-12.8-12.6-14.8C434,322.4,431.1,322.9,427.1,322.1z"/>
		<path class="st17" d="M436.6,320.6c-0.8-1.3-1.1-2.9-0.8-4.9c0.6-1.3,3-4,2-4.7c-1-0.7-2.8,1.1-4.2,0.8c-1.4-0.3-1.6-2-3.4-1.8
			c-1.8,0.2-1.8,1.6-2.7,2.4c-0.8,0.9-4.4,0.6-4.9,1.6c0.4,1.3,2.9,2.2,3.2,2.9c1.4,2.3,1.7,5.2,1.7,5.2
			C430.7,322.7,433.8,322.2,436.6,320.6z"/>
		<path class="st19" d="M437.8,312.4c0,0-3,3.7-4.8,3.7c-1.8,0-1.8-1.4-3.1-1.5c-1.7,0.7-2.6,2.8-4.2,2.4"/>
		<path class="st20" d="M445.1,318.2c-2.7-1.3-5.6-0.6-8.6,2"/>
		<path class="st20" d="M444.1,321.4c-1.6-2.1-4.1-2.4-7.3-1"/>
		<g>
			<path class="st16" d="M430.4,331.7l-0.1-0.8l0.8-0.1c0-1.1,0.2-1.8,0.6-2.4c0.4-0.5,1.1-0.9,2.2-1c0.7-0.1,1.5-0.1,2.4,0l0,0.8
				c-0.8-0.1-1.6-0.1-2.3,0c-0.7,0.1-1.2,0.3-1.5,0.7c-0.3,0.4-0.4,0.9-0.4,1.7l3.8-0.4l0.1,0.8l-3.8,0.4c0,0.1,0,0.4,0.1,0.7
				l0.1,0.6l3.8-0.4l0.1,0.8l-3.8,0.4c0.2,0.8,0.4,1.3,0.8,1.6c0.4,0.3,0.9,0.4,1.6,0.4c0.7-0.1,1.5-0.2,2.2-0.5l0.1,0.8
				c-0.8,0.3-1.6,0.4-2.4,0.5c-1,0.1-1.8-0.1-2.3-0.5c-0.5-0.5-0.9-1.2-1.1-2.2l-0.8,0.1l-0.1-0.8l0.8-0.1c0-0.1,0-0.3-0.1-0.6
				c0-0.3,0-0.5-0.1-0.6L430.4,331.7z"/>
		</g>
	</g>
	<g>
		<path class="st21" d="M374.3,195.1l-2.9,0.3c-0.8,0.1-1.5,0.4-2.1,0.9l-2.2,2c-0.6,0.5-1,1.2-1.1,2l-0.6,2.9
			c-0.2,0.8-0.1,1.6,0.2,2.3l1.2,2.7c0.3,0.7,0.9,1.3,1.5,1.7l2.6,1.5c0.7,0.4,1.5,0.6,2.2,0.5l2.9-0.3c0.8-0.1,1.5-0.4,2.1-0.9
			l2.2-2c0.6-0.5,1-1.2,1.1-2l0.6-2.9c0.2-0.8,0.1-1.6-0.2-2.3l-1.2-2.7c-0.3-0.7-0.9-1.3-1.5-1.7l-2.6-1.5
			C375.8,195.2,375,195,374.3,195.1z"/>
		<polygon class="st17" points="381.5,224 383.4,219.9 387.9,220.2 383,211.8 376.5,215.6 		"/>
		<polygon class="st17" points="370.5,225.3 367.7,221.7 363.4,223 366.4,213.7 373.5,216 		"/>
		<g>
			<path class="st17" d="M373.7,204.9L373,205l0.1,1.1l-0.8,0.1l-0.1-1.1l-0.8,0.1l0.1,1.1l-0.8,0.1l-0.1-1.1l-0.7,0.1l-0.1-0.8
				l0.7-0.1l-0.1-0.9l-0.7,0.1l-0.1-0.8l0.7-0.1l-0.1-1.2l0.8-0.1l0.1,1.2l0.8-0.1l-0.1-1.2l0.8-0.1l0.1,1.2l0.7-0.1l0.1,0.8
				l-0.7,0.1l0.1,0.9l0.7-0.1L373.7,204.9z M372.1,204.2l-0.1-0.9l-0.8,0.1l0.1,0.9L372.1,204.2z"/>
			<path class="st17" d="M376.4,200.9l0.5,4.8l-1,0.1l-0.4-3.6l-1,0.8l-0.5-0.7l1.5-1.2L376.4,200.9z"/>
		</g>
	</g>
	<g>
		<g>
			<ellipse class="st17" cx="313.5" cy="112.6" rx="3.5" ry="3.9"/>
			<path class="st17" d="M309.5,120.6v23.1c0,2.2,3.5,2.2,3.5,0l0-12.1c0,0,0-1.3,0.3-1.3s0.4,1.3,0.4,1.3v12.1c0,2.2,3.7,2.2,3.7,0
				l0-23.1c1.1-0.1,2.1,0.4,3.3-0.8c1.4-1.6,1.4-3.6,1.6-8.8c-0.1-2.6-2.6-2.5-2.5,0.1c-0.2,0.8,0.2,8.9-2,7.2
				c-0.6-0.6-0.6-0.5-1.3-0.7c-1.9-0.4-3.9-0.4-5.6,0c-0.8,0.2-0.8,0.2-1.6,0.7c-2.4,1.8-2.5-6.7-3.1-8.3c-0.8-1.7-2.2-0.9-2.1,0.9
				c0,2.9,0.7,7.7,2.1,9C307.4,120.7,308.4,120.7,309.5,120.6z"/>
		</g>
		<path class="st17" d="M316.6,108.5h-6.3c-0.1,0-0.2-0.1-0.2-0.2v-0.5c0-0.1,0.1-0.2,0.2-0.2h6.3c0.1,0,0.2,0.1,0.2,0.2v0.5
			C316.8,108.4,316.7,108.5,316.6,108.5z"/>
		<path class="st17" d="M310.5,107.3h5.8l1.1-2.9l-0.5-0.4l-1.1,0.6c-0.2,0.2-0.5,0.1-0.7-0.2l-1.2-2.1H313l-1.2,2.1
			c-0.1,0.2-0.4,0.3-0.7,0.2L310,104l-0.6,0.4L310.5,107.3z"/>
		<circle class="st17" cx="309.3" cy="103.7" r="0.6"/>
		<circle class="st17" cx="313.5" cy="101.6" r="0.6"/>
		<circle class="st17" cx="317.6" cy="103.7" r="0.6"/>
		<path class="st17" d="M313.5,99L313.5,99c-0.2,0-0.3-0.2-0.3-0.3V96c0-0.2,0.2-0.3,0.3-0.3l0,0c0.2,0,0.3,0.2,0.3,0.3v2.6
			C313.8,98.8,313.7,99,313.5,99z"/>
		<path class="st17" d="M319.3,100.7L319.3,100.7c-0.1-0.1-0.1-0.4,0-0.5l1.9-1.9c0.1-0.1,0.4-0.1,0.5,0l0,0c0.1,0.1,0.1,0.4,0,0.5
			l-1.9,1.9C319.6,100.8,319.4,100.8,319.3,100.7z"/>
		<path class="st17" d="M307.7,100.7L307.7,100.7c0.1-0.1,0.1-0.4,0-0.5l-1.9-1.9c-0.1-0.1-0.4-0.1-0.5,0l0,0
			c-0.1,0.1-0.1,0.4,0,0.5l1.9,1.9C307.4,100.8,307.6,100.8,307.7,100.7z"/>
	</g>
	<g>
		<path class="st17" d="M260,207.9c0,0,4.5,0.2,3.5,7.1c-0.9,6.4-6.4,4.5-6.4,4.5c-2.1,1.1-4.2,1.5-6.5,0.7c-3.9,1.1-6.5,0.5-6.8-3
			c-2-1-2.6-2.5-2.1-4.3c-1.2-1.5-0.9-2.8,0-4c-0.9-2.7-0.1-4.7,3.5-5.8c1.8-0.3,3.5-0.1,5.3,0.4c-0.9-1.4-1.6-2.8-2-4.5
			c-0.2-1.6,0.7-3.3,2.1-4.4c0,0,1.9-1.2,3-0.3s0.6,1.9,0.6,1.9s-0.6,1.2-0.4,2.9c0.1,1.7,2,3.5,2,3.5
			C257.8,204.3,259.2,206,260,207.9z"/>
		<path class="st22" d="M241.8,209c2.9,2.1,7.1,2.2,8.3,0.3"/>
		<path class="st22" d="M246.8,206.1c2.9,0.3,4,2,3.3,3.3"/>
		<path class="st22" d="M241.9,213c3.1,1.7,7.8,1.3,9-0.6"/>
		<path class="st22" d="M243.5,217.1c3.4,1.2,6.9,0.2,7.8-1.8"/>
		<path class="st22" d="M250.7,220.3c0.9-0.7,1.2-1.2,1.5-1.8"/>
		<path class="st22" d="M250.1,209.4c0.8,1.2,1.3,2.1,0.7,3.1"/>
		<path class="st22" d="M250.5,212.8c0.7,1,1.1,1.9,0.7,2.7"/>
		<path class="st22" d="M251.1,215.6c1.2,0.6,1.5,2.2,1.1,2.9"/>
		<path class="st22" d="M251.3,204.8c-1.8,3.5-1.1,6.7,1.9,8.5"/>
		<path class="st22" d="M259.6,216.5c-0.4,1-1.5,2.4-2.4,3.1"/>
		<path class="st22" d="M260,207.9c0.1,1.5,0,2.7,0,2.7"/>
	</g>
	<g>
		<path class="st23" d="M221.4,396.5c-2.6,3.6-8.9,5.2-13.9,5.2c-8.2,0-14.9-6.6-14.9-14.7c0-8.1,6.7-14.7,14.9-14.7
			c3-0.1,6.6,0.1,10.1,2.1"/>
		<path class="st23" d="M199.7,379.5c1.9-2.6,6.5-3.8,10.2-3.8c6,0,11.2,5,11.2,10.9s-5.8,11-12.2,11"/>
	</g>
	<path class="st17" d="M188.2,383.6l0.5,17.8c-0.5,1-2.8,1-3.3,0l0.4-17.8c-1.9-1-2.6-2.7-2.3-5l1-8.1c0-0.4,0.5-0.4,0.5,0l-0.2,6.3
		h0.8l0.4-6.3c0-0.5,0.5-0.5,0.5,0l0.1,6.3h0.9l0.1-6.3c0-0.5,0.5-0.5,0.5,0l0.4,6.3h0.8l-0.2-6.3c0-0.5,0.5-0.5,0.5,0l1.1,9
		C190.6,381.3,189.9,382.8,188.2,383.6z"/>
	<path class="st17" d="M228.1,388.3l0.3,14.5c-0.8,0.9-2.5,0.9-3.3,0l0.4-31c0-0.7,0.3-0.6,0.9,0c2.5,3.2,4.1,13.5,2.9,15.6
		C229.1,387.8,228.6,388.1,228.1,388.3z"/>
	<g>
		<rect x="390.5" y="374.5" class="st17" width="2.6" height="27.2"/>
		<rect x="433" y="374.4" class="st17" width="2.6" height="27.2"/>
		
			<rect x="412.2" y="368.3" transform="matrix(-1.836970e-16 1 -1 -1.836970e-16 803.9447 -22.3958)" class="st17" width="2" height="44.9"/>
		<ellipse class="st17" cx="428.2" cy="386.6" rx="5.1" ry="3.9"/>
		<path class="st17" d="M424.6,385.6c0,1.1,0.2,3.3-1.6,4.1c-2.8,1.3-8.7,1-14.1,1c-5.1,0-11.2,0.1-14-1.1c-2-0.9-1.7-2.9-1.7-4
			c0-2.8,7-5.1,15.7-5.1S424.6,382.8,424.6,385.6z"/>
		<polygon class="st24" points="413.2,389.7 412.3,389.7 412.3,380.7 413.2,380.7 		"/>
		<polygon class="st24" points="412,389.8 410.8,389.8 410.8,380.6 412,380.6 		"/>
		<g>
			<path class="st17" d="M425.7,375.9l0.2-1l3,0.7l-0.2,1l-2.2,1.7l1.7,0.4l-0.2,1l-3-0.7l0.2-1l2.2-1.7L425.7,375.9z"/>
		</g>
		<g>
			<path class="st17" d="M420.6,371.4l0.2-1l3,0.7l-0.2,1l-2.2,1.7l1.7,0.4l-0.2,1l-3-0.7l0.2-1l2.2-1.7L420.6,371.4z"/>
		</g>
		<g>
			<path class="st17" d="M415.5,367.2l0.2-1l3,0.7l-0.2,1l-2.2,1.7l1.7,0.4l-0.2,1l-3-0.7l0.2-1l2.2-1.7L415.5,367.2z"/>
		</g>
	</g>
	<line class="st25" x1="250.5" y1="175.9" x2="375.9" y2="175.9"/>
	<line class="st25" x1="216.8" y1="236.1" x2="409.7" y2="236.1"/>
	<line class="st25" x1="183.1" y1="296.2" x2="443.4" y2="296.2"/>
	<line class="st25" x1="149.2" y1="356.5" x2="477.2" y2="356.5"/>
</g>
<path class="st26" d="M113.5,48.9c0-4.9-6.1-3-9.2-5.8c-3.5-3.1-4.6-10.4-12.3-10c-10.8,0-14-5.4-19.3-5.4
	c-13.9,0-12.3,7.7-23.9,7.7c-7.4,0-14.8,9.9-14,13.1h-0.1c0,4.9,6.1,3,9.2,5.8c3.5,3.1,4.6,10.4,12.3,10c10.8,0,14,5.4,19.3,5.4
	c13.9,0,12.3-7.7,23.9-7.7C106.8,62,114.2,52.1,113.5,48.9L113.5,48.9z"/>
<path class="st26" d="M256.7,80.7c0-4.9-6.1-3-9.2-5.8c-3.5-3.1-4.6-10.4-12.3-10c-10.8,0-14-5.4-19.3-5.4
	c-13.9,0-12.3,7.7-23.9,7.7c-7.4,0-14.8,9.9-14,13.1h-0.1c0,4.9,6.1,3,9.2,5.8c3.5,3.1,4.6,10.4,12.3,10c10.8,0,14,5.4,19.3,5.4
	c13.9,0,12.3-7.7,23.9-7.7C250,93.8,257.4,83.9,256.7,80.7L256.7,80.7z"/>
<path class="st26" d="M143.8,165.3c0-4.9-6.1-3-9.2-5.8c-3.5-3.1-4.6-10.4-12.3-10c-10.8,0-14-5.4-19.3-5.4
	c-13.9,0-12.3,7.7-23.9,7.7c-7.4,0-14.8,9.9-14,13.1H65c0,4.9,6.1,3,9.2,5.8c3.5,3.1,4.6,10.4,12.3,10c10.8,0,14,5.4,19.3,5.4
	c13.9,0,12.3-7.7,23.9-7.7C137.1,178.4,144.5,168.5,143.8,165.3L143.8,165.3z"/>
<path class="st26" d="M590.4,165.7c0-4.9-6.1-3-9.2-5.8c-3.5-3.1-4.6-10.4-12.3-10c-10.8,0-14-5.4-19.3-5.4
	c-13.9,0-12.3,7.7-23.9,7.7c-7.4,0-14.8,9.9-14,13.1h-0.1c0,4.9,6.1,3,9.2,5.8c3.5,3.1,4.6,10.4,12.3,10c10.8,0,14,5.4,19.3,5.4
	c13.9,0,12.3-7.7,23.9-7.7C583.8,178.8,591.1,168.9,590.4,165.7L590.4,165.7z"/>
<path class="st26" d="M562.2,54.9c0-6.2-7.7-3.8-11.6-7.2c-4.4-3.9-5.7-13.1-15.5-12.6c-13.5,0-17.5-6.8-24.2-6.8
	c-17.4,0-15.5,9.7-29.9,9.7c-9.3,0-18.5,12.4-17.6,16.4h-0.1c0,6.2,7.7,3.8,11.6,7.2c4.4,3.9,5.7,13.1,15.5,12.6
	c13.5,0,17.5,6.8,24.2,6.8c17.4,0,15.5-9.7,29.9-9.7C553.8,71.3,563.1,58.9,562.2,54.9L562.2,54.9z"/>
<g>
</g>
<g>
</g>
<g>
</g>
<g>
</g>
<g>
</g>
<g>
</g>
</svg>
