<?xml version="1.0" encoding="utf-8"?>
<!-- Generator: Adobe Illustrator 22.0.1, SVG Export Plug-In . SVG Version: 6.00 Build 0)  -->
<svg version="1.1" id="Ebene_1" xmlns="http://www.w3.org/2000/svg" xmlns:xlink="http://www.w3.org/1999/xlink" x="0px" y="0px"
	 viewBox="0 0 299 299" style="enable-background:new 0 0 299 299;" xml:space="preserve">
<style type="text/css">
	.st0{fill:#DE3A45;}
	.st1{fill:#F6D500;}
	.st2{fill:#878787;}
	.st3{fill:#51B1E0;}
	.st4{fill:#74B859;}
</style>
<g>
	<ellipse class="st0" cx="151.5" cy="100.1" rx="17" ry="19.1"/>
	<path class="st0" d="M132.1,139.3l0,112.5c0,10.5,17.2,10.5,17.2,0l0-59.2c0,0,0-6.5,1.5-6.5s2.1,6.5,2.1,6.5l0,59.2
		c0,10.7,18.1,10.7,18.1,0l0-112.9c5.2-0.6,10.4,1.8,16.1-4.1c7-7.9,6.8-17.7,7.6-43c-0.6-12.5-12.8-12-12.1,0.4
		c-1.1,4,1.2,43.5-9.7,35c-2.8-2.7-2.9-2.5-6.4-3.5c-9.5-1.8-19.2-1.8-27.5,0c-3.7,0.8-4.1,0.9-8,3.5c-11.5,8.9-12.3-32.5-14.9-40.7
		c-3.7-8.5-10.7-4.5-10.4,4.3c0,14.2,3.4,37.6,10,44.1C121.5,139.4,126.7,139.3,132.1,139.3z"/>
</g>
<path class="st1" d="M166.6,79.8h-30.7c-0.6,0-1.1-0.5-1.1-1.1v-2.4c0-0.6,0.5-1.1,1.1-1.1h30.7c0.6,0,1.1,0.5,1.1,1.1v2.4
	C167.7,79.3,167.2,79.8,166.6,79.8z"/>
<path class="st1" d="M137.1,74.4h28.2l5.4-14.1l-2.6-2.1l-5.4,3.1c-1.1,0.7-2.6,0.4-3.3-0.8l-5.9-10.4h-4.5l-6,10.4
	c-0.7,1.2-2,1.5-3.3,0.8l-5.2-3.1l-2.7,2L137.1,74.4z"/>
<circle class="st1" cx="131" cy="56.4" r="3.1"/>
<circle class="st1" cx="151.2" cy="46.6" r="3.1"/>
<circle class="st1" cx="171.5" cy="56.4" r="3.1"/>
<path class="st1" d="M151.3,33.6L151.3,33.6c-0.9,0-1.7-0.8-1.7-1.7V19c0-0.9,0.8-1.7,1.7-1.7l0,0c0.9,0,1.7,0.8,1.7,1.7v12.9
	C153,32.8,152.3,33.6,151.3,33.6z"/>
<path class="st1" d="M179.7,42L179.7,42c-0.6-0.6-0.6-1.7,0-2.4l9.1-9.1c0.6-0.6,1.7-0.6,2.4,0l0,0c0.6,0.6,0.6,1.7,0,2.4l-9.1,9.1
	C181.5,42.7,180.4,42.7,179.7,42z"/>
<path class="st1" d="M123.2,42L123.2,42c0.6-0.6,0.6-1.7,0-2.4l-9.1-9.1c-0.6-0.6-1.7-0.6-2.4,0v0c-0.6,0.6-0.6,1.7,0,2.4l9.1,9.1
	C121.5,42.7,122.6,42.7,123.2,42z"/>
<rect x="108.8" y="259.2" class="st2" width="86" height="39.8"/>
<rect x="22.8" y="275.3" class="st2" width="86" height="23.7"/>
<rect x="194.7" y="282.7" class="st2" width="86" height="16.3"/>
<g>
	<ellipse class="st3" cx="237.8" cy="123.6" rx="17" ry="19"/>
	<path class="st3" d="M218.5,188.3l0,86.3c0,10.5,17.1,10.5,17.1,0v-58.9c0,0,0-6.5,1.5-6.5s2.1,6.5,2.1,6.5v58.9
		c0,10.7,18,10.7,18,0v-87.5l4.1,26c0,12.3,18.2,13.4,18.2,0c-2-21.2-6.8-40.3-16.1-56c-2.1-5.5-5.8-8.7-10.6-10.1
		c-9.5-1.7-18.3-1.8-26.5,0c-7,1.4-10.1,2.4-13.4,7.7c-10.2,18.1-15.8,37.4-16.8,57.7c0,14.1,17.6,14.1,17.6,0L218.5,188.3z"/>
</g>
<g>
	<ellipse class="st4" cx="65.9" cy="116.2" rx="17" ry="19"/>
	<path class="st4" d="M46.5,181l0,86.3c0,10.5,17.1,10.5,17.1,0v-58.9c0,0,0-6.5,1.5-6.5c1.5,0,2.1,6.5,2.1,6.5v58.9
		c0,10.7,18,10.7,18,0v-87.5l4.1,26c0,12.3,18.2,13.4,18.2,0c-2-21.2-6.8-40.3-16.1-56c-2.1-5.5-5.8-8.7-10.6-10.1
		c-9.5-1.7-18.3-1.8-26.5,0c-7,1.4-10.1,2.4-13.4,7.7c-10.2,18.1-15.8,37.4-16.8,57.7c0,14.1,17.6,14.1,17.6,0L46.5,181z"/>
</g>
<g>
</g>
<g>
</g>
<g>
</g>
<g>
</g>
<g>
</g>
<g>
</g>
</svg>
